<?xml version="1.0" standalone="no"?>
<!DOCTYPE svg PUBLIC "-//W3C//DTD SVG 1.1//EN" "http://www.w3.org/Graphics/SVG/1.1/DTD/svg11.dtd" >
<svg xmlns="http://www.w3.org/2000/svg">
<metadata></metadata>
<defs>
<font id="catalogregular" horiz-adv-x="1318" >
<font-face units-per-em="2048" ascent="1536" descent="-512" />
<missing-glyph horiz-adv-x="501" />
<glyph horiz-adv-x="2048" />
<glyph horiz-adv-x="2048" />
<glyph unicode="&#xd;" horiz-adv-x="2048" />
<glyph unicode=" "  horiz-adv-x="501" />
<glyph unicode="&#x09;" horiz-adv-x="501" />
<glyph unicode="&#xa0;" horiz-adv-x="501" />
<glyph unicode="!" horiz-adv-x="483" d="M119 94q0 52 35.5 87.5t87.5 35.5t87.5 -35.5t35.5 -87.5t-35.5 -87.5t-87.5 -35.5t-87.5 35.5t-35.5 87.5zM154 1350h180l-37 -920h-107z" />
<glyph unicode="&#x22;" horiz-adv-x="577" d="M98 1014v428h152l-103 -428h-49zM348 1442h152l-103 -428h-47z" />
<glyph unicode="#" horiz-adv-x="1271" d="M57 446v82h273l106 332h-327v82h354l149 463h88l-149 -463h323l150 463h88l-149 -463h251v-82h-278l-109 -332h336v-82h-362l-162 -499h-86l162 499h-326l-160 -499h-88l162 499h-246zM416 528h325l107 332h-324z" />
<glyph unicode="$" horiz-adv-x="991" d="M84 119v246h121q21 -172 91 -246t189 -74q123 0 194 68t71 180q0 55 -25.5 103t-65.5 75q-28 19 -208 133.5t-207 132.5q-160 104 -160 303q0 136 101 226.5t272 99.5v193h84v-193q105 -6 192.5 -40.5t140.5 -90.5v-248h-124q-16 179 -80 247.5t-185 68.5 q-124 0 -183.5 -67t-59.5 -167q0 -108 94 -166l401 -254q178 -112 178 -315q0 -141 -101.5 -240t-272.5 -112v-211h-84v206q-129 4 -226.5 44t-146.5 98z" />
<glyph unicode="%" horiz-adv-x="1390" d="M47 995q0 168 76 261.5t186 93.5q113 0 188.5 -89.5t75.5 -265.5q0 -171 -76 -263.5t-188 -92.5q-111 0 -186.5 90t-75.5 266zM172 995q0 -62 5.5 -109.5t19 -92t42 -69t70.5 -24.5q140 0 140 295q0 60 -5.5 107t-19.5 92t-43 69.5t-72 24.5q-137 0 -137 -293zM381 -53 l524 1458h88l-522 -1458h-90zM817 356q0 170 76 262.5t186 92.5q113 0 188.5 -89t75.5 -266q0 -170 -76.5 -263t-187.5 -93t-186.5 91t-75.5 265zM942 356q0 -49 2.5 -87t11.5 -78.5t23.5 -67t40 -43.5t59.5 -17q140 0 140 293q0 295 -140 295q-42 0 -71 -25.5t-42.5 -72 t-18.5 -92.5t-5 -105z" />
<glyph unicode="&#x26;" horiz-adv-x="1175" d="M96 377q0 132 78 232t191 124q-78 43 -121 119t-43 174q0 153 100 247.5t262 94.5q102 0 198 -34t150 -93v-233h-118q-16 169 -72.5 233t-161.5 64q-101 0 -151 -69t-50 -177q-1 -83 18.5 -151.5t68.5 -115.5t120 -47v-59h-22q-88 0 -148 -43t-86 -111.5t-26 -156.5 q0 -164 76.5 -246t201.5 -82q137 0 208 81t71 194q0 68 -26 127t-73 75h-127v62h463v-62h-131q30 -28 49 -84.5t19 -107.5q0 -71 -30 -135t-86 -113t-143 -78t-194 -29q-92 0 -173 23t-147.5 69t-105.5 125t-39 183z" />
<glyph unicode="'" horiz-adv-x="329" d="M98 1442h154l-102 -428h-50z" />
<glyph unicode="(" horiz-adv-x="555" d="M129 639q0 536 358 770l31 -29q-107 -88 -175.5 -291t-68.5 -448t68.5 -448t175.5 -291l-31 -29q-358 234 -358 766z" />
<glyph unicode=")" horiz-adv-x="555" d="M37 -98q107 88 175.5 291t68.5 448t-68.5 448t-175.5 291l31 29q358 -234 358 -770q0 -532 -358 -766z" />
<glyph unicode="*" horiz-adv-x="948" d="M80 809l350 147l-350 150l70 119l301 -230l-45 375h137l-47 -375l303 228l69 -117l-348 -150l348 -147l-67 -119l-305 230l47 -381h-137l45 381l-304 -232z" />
<glyph unicode="+" horiz-adv-x="997" d="M80 496v79h379v381h80v-381h379v-79h-379v-377h-80v377h-379z" />
<glyph unicode="," horiz-adv-x="442" d="M90 -221q57 36 88 67q61 61 58 134q-9 -3 -25 -3q-45 0 -79 35.5t-34 81.5q0 49 33.5 82t83.5 33q55 0 92 -38.5t37 -121.5q0 -133 -88 -221q-28 -28 -59 -50.5t-49 -31.5l-17 -8z" />
<glyph unicode="-" horiz-adv-x="608" d="M80 498v80h448v-80h-448z" />
<glyph unicode="." horiz-adv-x="430" d="M92 94q0 52 35 87.5t88 35.5t88 -35.5t35 -87.5t-35 -87.5t-88 -35.5t-88 35.5t-35 87.5z" />
<glyph unicode="/" horiz-adv-x="845" d="M47 -53l666 1458h86l-666 -1458h-86z" />
<glyph unicode="0" horiz-adv-x="1216" d="M121 621q0 143 26 259t72.5 196t111 134.5t139.5 79.5t161 25q94 0 177.5 -43t148 -122.5t102 -201.5t37.5 -270q0 -171 -40 -306t-110 -219t-161.5 -127.5t-198.5 -43.5q-88 0 -164 35.5t-130.5 96.5t-93.5 142t-58 174t-19 191zM295 776q0 -79 5.5 -154.5t18.5 -161.5 t38.5 -157t61.5 -130t91.5 -92.5t124.5 -33.5q82 0 140.5 40t89.5 111t44 150.5t13 175.5q0 84 -6 163.5t-20.5 164t-40 153.5t-61.5 125t-90 87.5t-120 31.5q-83 0 -142 -40t-89.5 -110.5t-44 -149t-13.5 -173.5z" />
<glyph unicode="1" horiz-adv-x="913" d="M156 1059l358 239h37v-1226h190v-72h-540v72h188v1044l-190 -121z" />
<glyph unicode="2" horiz-adv-x="1003" d="M63 1094q69 111 170.5 168t219.5 57q78 0 151 -22.5t134.5 -65.5t98.5 -114.5t37 -160.5q0 -63 -19 -119.5t-61.5 -113.5t-80 -98t-106.5 -110t-109 -114l-222 -241h613v-160h-799v68l371 421q235 269 235 461q0 123 -68 201t-179 78q-94 0 -177 -48t-133 -130z" />
<glyph unicode="3" horiz-adv-x="1015" d="M70 145l67 60q104 -129 312 -129q55 0 103.5 16.5t89 50t64 91.5t23.5 135q0 132 -71 205t-193 73h-66v64q70 0 135.5 29t112.5 94.5t47 154.5q0 116 -63 176t-160 60q-190 0 -295 -162l-74 45q66 104 161.5 157.5t207.5 53.5q74 0 143 -21t126.5 -61.5t92.5 -108 t35 -153.5t-56.5 -166.5t-137.5 -116.5q237 -77 237 -305q0 -99 -41.5 -178.5t-109 -127.5t-147.5 -73.5t-164 -25.5q-234 0 -379 163z" />
<glyph unicode="4" horiz-adv-x="1150" d="M74 299v82l649 917h106v-862h226v-137h-226v-299h-163v299h-592zM209 436h457v651z" />
<glyph unicode="5" horiz-adv-x="1056" d="M78 145l65 60q111 -135 314 -135q124 0 207.5 85t83.5 253q0 123 -75.5 190.5t-199.5 67.5h-311l86 632h624v-159h-563l-43 -322h207q94 0 171.5 -21.5t140.5 -68t98 -127.5t35 -192q0 -103 -41.5 -186.5t-109 -135t-147.5 -79t-163 -27.5q-239 0 -379 165z" />
<glyph unicode="6" horiz-adv-x="1124" d="M104 573q0 143 32 266t86.5 209.5t125.5 149t149 92t158 29.5q196 0 330 -152l-61 -55q-96 123 -267 123q-109 0 -190 -76t-121.5 -194.5t-46.5 -264.5q26 51 109 101.5t182 50.5q90 0 167.5 -26.5t139.5 -79t97.5 -140t35.5 -200.5q0 -120 -62.5 -220t-163.5 -154.5 t-214 -54.5q-94 0 -174 33.5t-136.5 91t-96.5 133.5t-59.5 162t-19.5 176zM297 522q4 -102 22 -186t52.5 -151t90.5 -104.5t130 -37.5q110 0 186 102.5t76 257.5q0 181 -73 277t-191 96q-92 0 -179.5 -67t-113.5 -187z" />
<glyph unicode="7" horiz-adv-x="960" d="M61 971v327h861v-71l-566 -1227h-108l528 1141h-573l-72 -170h-70z" />
<glyph unicode="8" horiz-adv-x="1153" d="M115 358q0 126 76 215.5t190 120.5q-83 25 -151 108t-68 183q0 76 23.5 136.5t62.5 99.5t92.5 64.5t110 36.5t118.5 11q78 0 147.5 -18t129.5 -57t95.5 -109t35.5 -164q0 -100 -68 -183t-151 -108q114 -31 190 -120.5t76 -215.5q0 -101 -39.5 -179t-106 -122.5 t-144.5 -67t-165 -22.5q-71 0 -135.5 13.5t-123 43.5t-101.5 74.5t-68.5 111t-25.5 148.5zM295 356q0 -162 75 -242.5t199 -80.5t199.5 81t75.5 242q0 132 -72 215.5t-203 83.5t-202.5 -83.5t-71.5 -215.5zM330 985q0 -115 68 -188.5t171 -73.5q105 0 172.5 73.5t67.5 188.5 q0 135 -67 208t-173 73t-172.5 -73t-66.5 -208z" />
<glyph unicode="9" horiz-adv-x="1126" d="M90 891q0 120 62.5 219.5t163.5 154t214 54.5q94 0 174 -33.5t136.5 -91t96.5 -134t59.5 -162.5t19.5 -177q0 -177 -46 -321.5t-122 -235t-170 -139t-195 -48.5q-196 0 -327 152l61 55q89 -114 264 -114q83 0 147.5 42t104.5 115.5t61.5 166t26.5 202.5 q-26 -51 -109 -101.5t-182 -50.5q-90 0 -167.5 26.5t-139.5 79.5t-97.5 140.5t-35.5 200.5zM266 893q0 -181 73 -277t191 -96q92 0 179.5 67t113.5 187q-4 102 -22 186t-52.5 151t-90.5 104.5t-130 37.5q-110 0 -186 -102.5t-76 -257.5z" />
<glyph unicode=":" horiz-adv-x="430" d="M92 94q0 52 35 87.5t88 35.5t88 -35.5t35 -87.5t-35 -87.5t-88 -35.5t-88 35.5t-35 87.5zM92 803q0 53 35 88t88 35t88 -35t35 -88t-35 -88t-88 -35t-88 35t-35 88z" />
<glyph unicode=";" horiz-adv-x="442" d="M90 -221q57 36 88 67q61 61 58 134q-9 -3 -25 -3q-45 0 -79 35.5t-34 81.5q0 49 33.5 82t83.5 33q55 0 92 -38.5t37 -121.5q0 -133 -88 -221q-28 -28 -59 -50.5t-49 -31.5l-17 -8zM98 803q0 52 35 86.5t88 34.5t87 -34t34 -87t-34.5 -88t-86.5 -35q-53 0 -88 35t-35 88z " />
<glyph unicode="&#x3c;" horiz-adv-x="997" d="M80 492v88l838 329v-86l-734 -286l734 -289v-86z" />
<glyph unicode="=" horiz-adv-x="997" d="M80 367v82h838v-82h-838zM80 629v82h838v-82h-838z" />
<glyph unicode="&#x3e;" horiz-adv-x="997" d="M80 162v86l731 289l-731 286v86l838 -329v-88z" />
<glyph unicode="?" horiz-adv-x="958" d="M47 989v246q59 62 162 99.5t223 37.5q184 0 296 -94t112 -236q0 -54 -11 -97t-35 -78t-43.5 -56.5t-54.5 -54.5q-9 -9 -14 -13l-147 -145q-28 -28 -43.5 -47t-30.5 -52.5t-15 -68.5h-92q0 52 3.5 82.5t21.5 63.5t33 51.5t61 70.5q26 32 67 77t74 85q66 80 66 211 q0 99 -60.5 165.5t-183.5 66.5q-60 0 -105 -14.5t-82.5 -49t-61 -97t-31.5 -153.5h-109zM287 94q0 52 35.5 87.5t87.5 35.5t87 -35t35 -88t-35 -88t-87 -35t-87.5 35.5t-35.5 87.5z" />
<glyph unicode="@" horiz-adv-x="1951" d="M80 459q0 186 72.5 356t195.5 293t293 195.5t356 72.5q185 0 348.5 -64.5t278.5 -174t181.5 -260t66.5 -318.5q0 -115 -36 -224t-96.5 -189t-143 -128.5t-171.5 -48.5q-214 0 -243 150q-123 -142 -299 -142q-88 0 -154.5 26t-103.5 69.5t-59.5 101t-22.5 121.5t8 129 q39 259 186 403q123 119 299 119q83 0 141.5 -29t88.5 -75l12 84h156l-103 -674q-14 -94 13.5 -149.5t93.5 -55.5q94 0 174.5 73.5t126 191.5t45.5 247q0 120 -37.5 233t-108.5 205.5t-167 161.5t-218 107.5t-256 38.5q-168 0 -321.5 -67.5t-264.5 -181t-177 -270 t-66 -327.5t66 -327.5t177 -270t264.5 -181t321.5 -67.5q149 0 292 56t227 155l57 -53q-102 -107 -258 -168.5t-318 -61.5q-186 0 -356 73t-293 196t-195.5 293t-72.5 356zM718.5 360.5q2.5 -85.5 18 -154.5t58.5 -113t108 -44q101 0 179.5 61.5t97.5 184.5l51 336 q10 67 -3.5 116.5t-45.5 76.5t-71 40t-85 13q-64 0 -116 -27.5t-86.5 -77t-56.5 -109.5t-34 -133q-17 -84 -14.5 -169.5z" />
<glyph unicode="A" horiz-adv-x="1296" d="M37 0v74h127l450 1276h93l454 -1276h121v-74h-418v74h121l-151 422h-435l-149 -422h129v-74h-342zM428 575h377l-191 531z" />
<glyph unicode="B" horiz-adv-x="1214" d="M51 0v74h180v1202h-180v74h645q149 0 246.5 -96.5t97.5 -235.5q0 -82 -51 -161t-127 -118q112 -32 183 -125.5t71 -224.5q0 -170 -115 -279.5t-303 -109.5h-647zM403 74h265q106 0 185 84.5t79 228.5q0 119 -74.5 204t-191.5 85h-263v-602zM403 758h236q98 0 161.5 69.5 t63.5 184.5q0 121 -67 192.5t-158 71.5h-236v-518z" />
<glyph unicode="C" horiz-adv-x="1140" d="M80 635q0 85 13.5 168.5t41.5 167t75 154.5t109 126t149.5 86t190.5 31q264 0 420 -164v-219h-125q-9 84 -38.5 147.5t-71.5 99.5t-88.5 53.5t-96.5 17.5q-87 0 -155.5 -28t-113.5 -76t-74 -116.5t-41.5 -145t-12.5 -165.5q0 -105 14.5 -205t47 -193t79 -162.5t116 -111 t153.5 -41.5q118 0 219.5 81.5t132.5 226.5h78q-30 -167 -154.5 -278.5t-288.5 -111.5q-126 0 -226.5 39.5t-165 103.5t-108 151t-61.5 177.5t-18 186.5z" />
<glyph unicode="D" horiz-adv-x="1355" d="M51 0v74h180v1202h-180v74h645q124 0 223.5 -35.5t165 -96.5t109.5 -146t63 -179.5t19 -202.5q0 -84 -14 -165t-42.5 -159.5t-76 -144t-110 -115.5t-149 -78t-188.5 -28h-645zM408 74h288q87 0 156 35.5t113 94.5t73.5 140t41.5 167t12 181q0 127 -23 231t-70 184 t-124 124.5t-179 44.5h-288v-1202z" />
<glyph unicode="E" horiz-adv-x="1144" d="M51 0v74h180v1202h-180v74h1010v-361h-74l-110 287h-474v-518h330v147h94v-377h-94v148h-330v-602h492l109 286h73v-360h-1026z" />
<glyph unicode="F" horiz-adv-x="1128" d="M51 0v74h180v1202h-180v74h1010v-361h-74l-110 287h-474v-518h330v147h94v-377h-94v148h-330v-602h181v-74h-533z" />
<glyph unicode="G" horiz-adv-x="1316" d="M80 635q0 105 18.5 205t62 197t108.5 169.5t165.5 117t224.5 44.5q143 0 256 -47.5t179 -116.5v-219h-125q-8 84 -39.5 147.5t-76.5 99.5t-94 53.5t-100 17.5q-108 0 -187 -42t-124.5 -117t-66.5 -167.5t-21 -204.5v-11q0 -126 22 -247q24 -126 70.5 -233t126 -172.5 t180.5 -65.5q127 0 212 87.5t85 215.5v150h-231v73h524v-73h-116v-496h-177v119q-32 -54 -109.5 -98t-187.5 -44q-126 0 -227 39.5t-165.5 103.5t-107.5 151t-61 177t-18 187z" />
<glyph unicode="H" horiz-adv-x="1370" d="M51 0v74h148v1202h-148v74h459v-74h-139v-522h626v522h-137v74h459v-74h-148v-1202h148v-74h-459v74h137v600h-626v-600h139v-74h-459z" />
<glyph unicode="I" horiz-adv-x="688" d="M51 0v74h203v1202h-203v74h586v-74h-211v-1202h211v-74h-586z" />
<glyph unicode="J" horiz-adv-x="681" d="M-127 -383l53 53q78 -67 189 -67q67 0 101 58.5t34 160.5v1454h-205v74h586v-74h-209v-1399q0 -70 -17.5 -128t-47 -97t-69 -66t-83 -39t-90.5 -12q-72 0 -136 23t-106 59z" />
<glyph unicode="K" d="M51 0v74h150v1202h-150v74h486v-74h-162v-531h31l550 531h-151v74h442v-74h-172l-514 -502l619 -700h151v-74h-543v74h154l-516 588h-51v-588h162v-74h-486z" />
<glyph unicode="L" horiz-adv-x="1124" d="M47 0v74h180v1202h-180v74h543v-74h-191v-1202h506l109 286h73v-360h-1040z" />
<glyph unicode="M" horiz-adv-x="1658" d="M51 0v74h164v1200h-164v76h346l439 -1123l428 1123h344v-76h-160v-1200h160v-74h-494v74h160v1056l-430 -1128h-92l-2 -2l-447 1139v-1065h158v-74h-410z" />
<glyph unicode="N" horiz-adv-x="1312" d="M51 0v74h164v1200h-164v76h334l614 -1006v930h-165v76h428v-76h-172v-1274h-95l-692 1137v-1063h174v-74h-426z" />
<glyph unicode="O" d="M80 635q0 103 19 203t63 197t108.5 170t165 118t223.5 45t223 -38.5t165 -102.5t109.5 -150t63.5 -176t19 -186q0 -102 -19.5 -202.5t-64.5 -198t-110 -172t-165 -120t-221 -45.5q-126 0 -226.5 39.5t-165 103.5t-108 151t-61.5 177.5t-18 186.5zM262 772v-11 q0 -126 22 -247q24 -126 70.5 -233t125.5 -172.5t179 -65.5q109 0 188 41.5t124.5 117t66.5 169.5t21 211q0 134 -24.5 259t-71.5 230.5t-126.5 168.5t-179.5 63q-87 0 -155 -28t-112.5 -76t-73.5 -116.5t-41.5 -145t-12.5 -165.5z" />
<glyph unicode="P" horiz-adv-x="1144" d="M51 0v74h164v1202h-164v74h596q102 0 181 -28.5t126 -78t71 -112.5t24 -136q0 -157 -109 -261.5t-293 -104.5h-260v-555h164v-74h-500zM387 707h236q100 0 166.5 80t66.5 204q0 128 -64 206.5t-169 78.5h-236v-569z" />
<glyph unicode="Q" d="M80 635q0 85 14 168.5t42 167t75 154.5t109 126t149 86t190 31t190.5 -27t149.5 -74.5t109.5 -109.5t75.5 -136.5t41.5 -150.5t13.5 -155q0 -114 -22.5 -221t-69 -207t-130 -176.5t-194.5 -112.5l84 -133q59 -91 101 -129.5t106 -38.5q107 0 193 82l47 -53 q-43 -41 -106.5 -70t-133.5 -29q-81 0 -148.5 17.5t-112.5 47.5t-73.5 58.5t-48.5 61.5l-102 163q-119 4 -214.5 45.5t-157 106t-102.5 150.5t-58 174.5t-17 183.5zM262 772q0 -106 14 -207.5t45.5 -196.5t77 -167t112.5 -115t148 -43q109 0 188 41t124.5 116t66.5 169 t21 211q0 134 -24.5 259t-71.5 230t-126.5 168t-179.5 63q-108 0 -186.5 -41.5t-123 -116t-65 -166t-20.5 -204.5z" />
<glyph unicode="R" horiz-adv-x="1286" d="M51 0v74h162v1202h-162v74h594q103 0 182 -28.5t126 -78t70.5 -112.5t23.5 -136q0 -142 -84.5 -237.5t-229.5 -118.5l369 -565h158v-74h-320l-397 629h-156v-555h162v-74h-498zM387 707h236q99 0 166 80.5t67 203.5q0 128 -64.5 206.5t-168.5 78.5h-236v-569z" />
<glyph unicode="S" horiz-adv-x="999" d="M84 119v246h121q21 -172 91 -246t189 -74q123 0 194 68t71 180q0 55 -25.5 103t-65.5 75q-28 19 -208 133.5t-207 132.5q-160 104 -160 303q0 142 110.5 235t294.5 93q122 0 224 -35.5t161 -97.5v-248h-124q-16 179 -80 247.5t-185 68.5q-124 0 -183.5 -67t-59.5 -167 q0 -108 94 -166q380 -240 401 -254q178 -112 178 -315q0 -153 -117.5 -255t-312.5 -102q-139 0 -243 40t-158 102z" />
<glyph unicode="T" horiz-adv-x="1157" d="M57 989v361h1043v-361h-74l-111 287h-249v-1202h178v-74h-533v74h181v1202h-252l-109 -287h-74z" />
<glyph unicode="U" horiz-adv-x="1294" d="M41 1276v74h500v-74h-164v-887q0 -159 77.5 -244.5t200.5 -85.5q89 0 164.5 33t125.5 105t50 170v909h-161v74h417v-74h-161v-907q0 -176 -118.5 -284t-316.5 -108t-324 109.5t-126 282.5v907h-164z" />
<glyph unicode="V" horiz-adv-x="1353" d="M6 1276v74h531v-74h-177l365 -1020l362 1020h-169v74h425v-74h-169l-449 -1274h-94l-455 1274h-170z" />
<glyph unicode="W" horiz-adv-x="2000" d="M12 1276v74h531v-74h-183l320 -995l301 1060h86l344 -1060l305 995h-170v74h426v-74h-168l-393 -1276h-94l-334 1047l-301 -1047h-94l-412 1276h-164z" />
<glyph unicode="X" horiz-adv-x="1384" d="M16 0v74h191l391 588l-389 614h-168v74h565v-74h-178l287 -455l295 455h-166v74h461v-74h-197l-344 -528l430 -674h172v-74h-578v74h187l-326 514l-342 -514h170v-74h-461z" />
<glyph unicode="Y" horiz-adv-x="1218" d="M-6 1276v74h545v-74h-172l282 -580l299 580h-176v74h432v-74h-170l-338 -655v-547h205v-74h-577v74h200v493l-350 709h-180z" />
<glyph unicode="Z" horiz-adv-x="1118" d="M51 0v76l803 1200h-571l-111 -287h-74v361h951v-74l-803 -1202h637l110 286h74v-360h-1016z" />
<glyph unicode="[" horiz-adv-x="481" d="M139 -375v1817h346v-74h-211v-1669h211v-74h-346z" />
<glyph unicode="\" horiz-adv-x="702" d="M47 1405h90l522 -1458h-90z" />
<glyph unicode="]" horiz-adv-x="479" d="M-4 -301h211v1669h-211v74h344v-1817h-344v74z" />
<glyph unicode="^" horiz-adv-x="831" d="M25 586l329 837h88l330 -837h-86l-289 731l-286 -731h-86z" />
<glyph unicode="_" horiz-adv-x="937" d="M47 -174h838v-80h-838v80z" />
<glyph unicode="`" horiz-adv-x="468" d="M-2 1249l106 111l285 -301h-90z" />
<glyph unicode="a" horiz-adv-x="956" d="M94 201q0 87 50.5 147t158.5 96l326 107v78q0 131 -34.5 191.5t-129.5 60.5q-89 0 -131 -46q-33 -36 -34 -90q0 -14 3 -30l8 -86h-176q-3 14 -3 29q0 28 8 58q12 48 32 79q97 149 295 149q67 0 121.5 -15.5t100.5 -49.5t71.5 -96.5t25.5 -149.5v-537q0 -29 20 -38.5 t44 -4.5q9 2 25 9.5t28 14.5l12 7l25 -49q-8 -7 -23 -17t-58.5 -26.5t-84.5 -16.5q-32 0 -58.5 10.5t-41 25t-24.5 29.5t-14 26l-3 10q-44 -45 -110.5 -73t-135.5 -28q-131 0 -212 62.5t-81 163.5zM264 221q0 -68 43.5 -118t114.5 -50q107 0 207 109v321l-228 -75 q-70 -25 -103.5 -75.5t-33.5 -111.5z" />
<glyph unicode="b" horiz-adv-x="1073" d="M6 1354v59l301 21v-594q38 46 103.5 75t148.5 29q87 0 158 -25t118 -67t79 -99.5t46.5 -121.5t14.5 -135q0 -75 -14.5 -147t-46.5 -140t-78.5 -119t-116.5 -82t-154 -31q-95 0 -155 29.5t-103 83.5v-90h-153v1354h-148zM307 279q0 -110 75.5 -171t182.5 -61 q65 0 113 27.5t75 77t39.5 111.5t12.5 138q0 98 -14.5 181t-43.5 149.5t-78 104.5t-114 38q-47 0 -88.5 -12.5t-78.5 -39.5t-59 -76t-22 -115v-352z" />
<glyph unicode="c" horiz-adv-x="935" d="M98 446q0 69 14.5 137.5t46.5 134t78.5 115.5t115.5 80.5t151 30.5q299 0 360 -258h-184q-11 87 -59 142t-119 55q-64 0 -111.5 -28t-74.5 -78.5t-39.5 -112t-12.5 -136.5q0 -119 31 -224.5t96.5 -177t153.5 -71.5q100 0 170 72.5t90 177.5l63 -2q-18 -139 -117 -232.5 t-247 -93.5q-108 0 -189.5 41t-127 110t-67.5 149t-22 169z" />
<glyph unicode="d" horiz-adv-x="1062" d="M98 432q0 72 13.5 142t44.5 138t76 118.5t115 82t155 31.5q160 0 246 -104v514h-148v59l303 21v-1434h-155v86q-78 -109 -246 -109q-88 0 -158 27t-115.5 71t-75.5 104t-42.5 122.5t-12.5 130.5zM264 530v-12q0 -82 12 -158q14 -82 42 -154t77.5 -115.5t114.5 -43.5 q103 0 170.5 61t67.5 185v338q0 66 -22 115.5t-58.5 77t-78 40.5t-87.5 13q-64 0 -111.5 -27.5t-74.5 -77t-39.5 -109.5t-12.5 -133z" />
<glyph unicode="e" horiz-adv-x="976" d="M98 442q0 71 15 140.5t48.5 135t81 115.5t117.5 80.5t154 30.5q175 0 268 -99.5t107 -277.5q2 -20 2 -37.5t-2 -33.5h-625q0 -75 21 -152.5t58 -142t94 -105.5t122 -41q59 0 108 26t78.5 66t46.5 80t23 78l64 -2q-3 -36 -16 -76.5t-42 -85.5t-69 -80.5t-103 -59 t-139 -24.5h-5q-99 -1 -179 39q-82 40 -130.5 108.5t-73 149.5t-24.5 168zM264 563h432q1 19 1 37q0 283 -195 283q-82 0 -135.5 -44t-76.5 -113t-26 -163z" />
<glyph unicode="f" horiz-adv-x="657" d="M57 0v61h150v801h-150v62h150v180q0 87 27.5 153.5t73.5 104.5t99 57t109 19q126 0 223 -86l-45 -47q-75 71 -170 71q-164 0 -164 -235v-217h283v-62h-283v-801h199v-61h-502z" />
<glyph unicode="g" horiz-adv-x="1054" d="M80 -184q0 80 40 137t77 72q-4 2 -10.5 6t-20.5 17t-25 28.5t-19.5 40.5t-8.5 53q0 60 43.5 104.5t107.5 55.5q-129 88 -129 276q0 152 99.5 245t259.5 93q174 0 268 -94h223v-70h-174q43 -77 43 -174q0 -151 -100.5 -243.5t-259.5 -92.5q-77 0 -142 19 q-70 -7 -100.5 -39.5t-30.5 -75.5q0 -49 38 -81t101 -32h68v-61h-82q-48 -17 -79 -72.5t-31 -120.5q0 -107 67.5 -174t188.5 -67q123 0 193.5 67t70.5 174q0 64 -35.5 121t-85.5 72h-94v61h436v-61h-154q88 -72 88 -184q0 -137 -112 -227.5t-307 -90.5q-196 0 -304 90 t-108 228zM289 639v-8q0 -77 19 -141q19 -68 68 -114t120 -46h5q53 0 92 20q41 20 63 58t32 83t10 101q-2 124 -58 208.5t-159 84.5q-52 0 -90 -19.5t-60 -54t-32 -77.5t-10 -95z" />
<glyph unicode="h" horiz-adv-x="1064" d="M27 1356v57l301 21v-592q37 47 105 75.5t155 28.5q75 0 131 -17.5t90 -46.5t54.5 -71t28 -85.5t7.5 -96.5v-568h129v-61h-418v61h133v568q0 124 -44.5 184.5t-139.5 60.5q-29 0 -58 -5.5t-61 -22t-56 -41.5t-40 -67.5t-16 -96.5v-580h131v-61h-416v61h131v1295h-147z" />
<glyph unicode="i" horiz-adv-x="600" d="M57 0v61h166v801h-149v60l303 20v-881h166v-61h-486zM176 1229q0 53 35 88t88 35t88 -35t35 -88t-35 -88t-88 -35t-88 35t-35 88z" />
<glyph unicode="j" horiz-adv-x="559" d="M-170 -377l47 51q73 -69 176 -69q80 0 120 53t40 168v1036h-152v60l304 20v-1071q0 -87 -28 -153t-74.5 -103.5t-99.5 -55.5t-110 -18q-130 0 -223 82zM154 1229q0 53 35 88t87 35t87.5 -35t35.5 -88t-35.5 -88t-87.5 -35t-87 35t-35 88z" />
<glyph unicode="k" horiz-adv-x="1038" d="M27 0v61h147v1295h-147v57l301 21v-902h26l346 330h-139v64h395v-64h-153l-309 -299l436 -502h123v-61h-453v61h121l-338 402h-55v-402h127v-61h-428z" />
<glyph unicode="l" horiz-adv-x="518" d="M27 1356v57l303 21v-1373h131v-61h-420v61h133v1295h-147z" />
<glyph unicode="m" horiz-adv-x="1560" d="M57 862v60l303 20v-100q33 46 95 74t139 28q187 0 250 -133q39 67 109.5 100t154.5 33q68 0 119 -17.5t81.5 -46t49.5 -70.5t26 -85t7 -96v-568h133v-61h-394v61h105v568q0 126 -37 185.5t-115 59.5q-33 0 -65 -10t-65 -33t-54 -69t-22 -109v-592h116v-61h-387v61h117 v568q0 126 -38 185.5t-116 59.5q-34 0 -67 -10.5t-66.5 -34.5t-54.5 -72.5t-21 -115.5v-580h109v-61h-397v61h135v801h-150z" />
<glyph unicode="n" horiz-adv-x="1079" d="M57 0v61h131v801h-131v60l285 20v-100q37 46 104.5 74t153.5 28q76 0 132.5 -17.5t90.5 -46t54.5 -70.5t28 -85t7.5 -96v-568h129v-61h-417v61h133v568q0 124 -45.5 184.5t-141.5 60.5q-28 0 -57 -6t-60.5 -22t-55.5 -41.5t-40 -67.5t-16 -96v-580h131v-61h-416z" />
<glyph unicode="o" horiz-adv-x="1005" d="M98 442q0 71 13.5 140.5t45 136t77 116.5t115 80.5t153.5 30.5q86 0 156 -26.5t115.5 -70.5t76 -104.5t44 -125t13.5 -134.5q0 -89 -23.5 -175.5t-70.5 -162.5t-127.5 -123t-183.5 -47q-88 0 -158 27t-115.5 71.5t-75.5 106t-42.5 125.5t-12.5 135zM264 530 q0 -89 14 -173t41.5 -157t75 -117t107.5 -44q66 0 113.5 28t74.5 79t39 113t12 140q0 92 -14 176t-41.5 155t-75 113t-108.5 42q-64 0 -111.5 -28t-74.5 -78.5t-39.5 -112t-12.5 -136.5z" />
<glyph unicode="p" horiz-adv-x="1069" d="M6 -377h150v1321h153v-104q86 104 248 104q107 0 189 -37.5t130 -102t71.5 -142.5t23.5 -166q0 -75 -13.5 -146.5t-45 -139.5t-77 -119.5t-115 -82.5t-153.5 -31q-95 0 -155 29t-103 82v-465h148v-61h-451v61zM309 276q0 -108 75.5 -168.5t182.5 -60.5q65 0 113 27.5 t75 77t39.5 111.5t12.5 138q0 97 -14.5 179.5t-43.5 149t-78 104.5t-114 38q-47 0 -88.5 -12.5t-78.5 -38.5t-59 -75t-22 -115v-355z" />
<glyph unicode="q" horiz-adv-x="1046" d="M98 432q0 72 13 142t44 138t76 118.5t115 82t156 31.5q160 0 246 -104v71l155 33v-1321h148v-61h-451v61h148v463q-81 -109 -246 -109q-88 0 -158 27t-115.5 71t-75.5 104t-42.5 122.5t-12.5 130.5zM264 528v-12q0 -82 12 -158q14 -82 42 -153.5t77.5 -114.5t114.5 -43 q103 0 170.5 61t67.5 185v338q0 66 -22 115t-58.5 76t-78 39.5t-87.5 12.5q-65 0 -112 -27.5t-74 -76.5t-39.5 -109t-12.5 -133z" />
<glyph unicode="r" horiz-adv-x="743" d="M57 862v60l285 20v-170q39 77 108 127.5t142 50.5q43 0 82 -13t56 -27l18 -13v-43l-103 -100q-16 24 -50 43t-73 20q-78 0 -129 -57.5t-51 -147.5v-551h178v-61h-461v61h131v801h-133z" />
<glyph unicode="s" horiz-adv-x="864" d="M98 78v237h86q0 -74 20 -129t55.5 -85.5t78 -45t92.5 -14.5q88 0 140.5 45t52.5 115q0 77 -66 114l-315 183q-60 35 -92.5 83.5t-32.5 129.5q0 101 86 167t229 66q93 0 177 -27.5t126 -70.5v-240h-88q0 277 -217 277q-88 0 -132 -45t-44 -107q0 -67 65 -106l308 -172 q139 -77 139 -224q0 -108 -92 -180t-244 -72q-113 0 -203 29.5t-129 71.5z" />
<glyph unicode="t" horiz-adv-x="671" d="M66 862v47l208 219h52v-202h309v-64h-309v-620q0 -39 6.5 -71.5t21 -61.5t42.5 -45.5t67 -16.5q76 0 158 68l41 -47q-32 -27 -57.5 -44t-69.5 -32t-93 -15q-272 0 -272 275v610h-104z" />
<glyph unicode="u" horiz-adv-x="1079" d="M37 862v62h285v-629q0 -124 45 -185t139 -61q37 0 73.5 10.5t74 34.5t60.5 73t23 116v579h-131v62h285v-863h131v-59l-285 -20v100q-37 -46 -104.5 -74t-155.5 -28q-75 0 -131 17.5t-90 46t-54.5 70.5t-28 85t-7.5 96v567h-129z" />
<glyph unicode="v" horiz-adv-x="944" d="M-14 862v62h417v-62h-137l260 -649l242 649h-125v62h313v-62h-108l-320 -862h-73l-365 862h-104z" />
<glyph unicode="w" horiz-adv-x="1427" d="M-23 862v62h422v-62h-131l246 -637l225 699h47l256 -699l220 637h-134v62h326v-62h-111l-305 -862h-71l-246 645l-207 -645h-74l-348 862h-115z" />
<glyph unicode="x" horiz-adv-x="1046" d="M39 0v63h133l264 396l-264 403h-123v62h424v-62h-115l177 -274l184 274h-101v62h302v-62h-115l-230 -340l306 -459h125v-63h-455v63h143l-215 328l-213 -328h113v-63h-340z" />
<glyph unicode="y" horiz-adv-x="952" d="M-8 -375l47 56q38 -35 74 -52.5t86 -17.5q59 0 96.5 39t66.5 112l93 242l-355 858h-106v62h420v-62h-133l256 -641l239 641h-125v62h314v-62h-109l-418 -1112q-41 -110 -96 -160.5t-143 -50.5q-68 0 -114 22.5t-93 63.5z" />
<glyph unicode="z" horiz-adv-x="899" d="M68 0v66l567 796h-373l-88 -231h-57v293h682v-60l-551 -801h438l88 234h57v-297h-763z" />
<glyph unicode="{" horiz-adv-x="559" d="M80 670v32q77 23 103 59t26 116v292q0 122 76 190t182 75l12 -33q-80 -21 -109.5 -68.5t-29.5 -138.5v-293q0 -97 -27 -145t-110 -70q83 -22 110 -70t27 -145v-293q0 -91 29.5 -138.5t109.5 -68.5l-12 -32q-106 7 -182 74.5t-76 189.5v293q0 80 -26 115.5t-103 58.5z" />
<glyph unicode="|" horiz-adv-x="321" d="M119 -86v1524h84v-1524h-84z" />
<glyph unicode="}" horiz-adv-x="559" d="M80 -29q80 21 109.5 68.5t29.5 138.5v293q0 97 27 145t110 70q-83 22 -110 70t-27 145v293q0 91 -29.5 138.5t-109.5 68.5l12 33q106 -7 182 -75t76 -190v-292q0 -80 26 -116t103 -59v-32q-77 -23 -103 -58.5t-26 -115.5v-293q0 -122 -76 -189.5t-182 -74.5z" />
<glyph unicode="~" horiz-adv-x="927" d="M80 473q19 80 66 132t120 52q39 0 217 -41t222 -41q33 0 61 23t33 51h49q-17 -81 -60 -132.5t-116 -51.5q-43 0 -223.5 41t-223.5 41q-33 0 -61 -23t-33 -51h-51z" />
<glyph unicode="&#xa1;" horiz-adv-x="483" d="M119 827q0 53 35.5 88t87.5 35t87.5 -35t35.5 -88q0 -52 -35 -87t-88 -35t-88 35t-35 87zM150 -420l36 920h107l37 -920h-180z" />
<glyph unicode="&#xa2;" horiz-adv-x="972" d="M98 639q0 90 21 175.5t63 161.5t115 126t168 59v189h84v-189q133 -11 211 -79.5t104 -176.5h-184q-11 87 -59 142t-119 55q-64 0 -111.5 -28t-74.5 -78.5t-39.5 -111.5t-12.5 -136q0 -119 31 -224.5t96.5 -177.5t153.5 -72q100 0 170 72.5t90 177.5l63 -2 q-15 -128 -101.5 -218t-217.5 -105v-199h-84v199q-98 6 -171.5 46.5t-114.5 103.5t-61 135.5t-20 154.5z" />
<glyph unicode="&#xa3;" horiz-adv-x="1085" d="M37 0v76h178v692h-164v82h164v135q0 101 33 177.5t90 121t127 66.5t151 22q120 0 214.5 -36t154.5 -99v-248h-125q-11 123 -41.5 193t-78 96.5t-124.5 26.5q-110 0 -168.5 -79t-58.5 -231v-145h326v-82h-326v-692h447l108 284h74v-360h-981z" />
<glyph unicode="&#xa5;" horiz-adv-x="1259" d="M14 1276v74h545v-74h-172l283 -580l299 580h-176v74h432v-74h-170l-221 -426h233v-82h-274l-76 -147v-35h348v-82h-348v-430h205v-74h-578v74h201v430h-350v82h340l-91 182h-249v82h211l-211 426h-181z" />
<glyph unicode="&#xa6;" horiz-adv-x="831" d="M227 0v567h84v-567h-84zM227 782v568h84v-568h-84z" />
<glyph unicode="&#xa7;" horiz-adv-x="839" d="M80 729q0 72 43.5 129t122.5 88l-10 6q-59 35 -92 85.5t-33 133.5q0 100 86 167t229 67q93 0 169 -27t120 -73v-238h-90q0 79 -14 132t-41.5 82t-62.5 40.5t-83 11.5q-89 0 -132.5 -41t-43.5 -102q0 -64 65 -103l308 -172q139 -77 139 -227q0 -74 -46.5 -134t-127.5 -91 l12 -6q139 -77 139 -228q0 -108 -92 -180t-244 -72q-112 0 -193.5 29t-121.5 74v237h86q0 -268 229 -268q88 0 140.5 41.5t52.5 110.5q0 73 -66 110l-319 189q-129 73 -129 229zM219 748q0 -70 72 -113l205 -119q57 14 89.5 51.5t32.5 91.5q0 73 -65 111l-221 125 q-57 -16 -85 -55.5t-28 -91.5z" />
<glyph unicode="&#xa8;" horiz-adv-x="765" d="M80 1231q0 46 32 77t78 31q45 0 77 -31.5t32 -76.5t-32 -77t-77 -32q-46 0 -78 31.5t-32 77.5zM467 1231q0 45 31.5 76.5t76.5 31.5q46 0 78.5 -31.5t32.5 -76.5q0 -46 -32.5 -77.5t-78.5 -31.5q-45 0 -76.5 32t-31.5 77z" />
<glyph unicode="&#xa9;" horiz-adv-x="1482" d="M47 676q0 142 55 270.5t148 221.5t221.5 147.5t269.5 54.5q189 0 349 -92.5t253 -252.5t93 -349q0 -141 -55 -269.5t-148 -221.5t-221.5 -148t-270.5 -55q-188 0 -348 93t-253 253t-93 348zM127 676q0 -168 82.5 -311t224 -226.5t307.5 -83.5t308.5 83.5t225.5 226.5 t83 311q0 126 -49.5 241t-132 198.5t-197 133t-238.5 49.5q-166 0 -307.5 -83.5t-224 -227t-82.5 -311.5zM379 668q0 63 12.5 125t41 121t69.5 104t104 72.5t139 27.5q139 0 220 -63.5t106 -169.5h-168q-8 77 -52 127.5t-106 50.5q-59 0 -102 -25.5t-67.5 -71t-36 -101.5 t-11.5 -124q0 -106 28 -201.5t87.5 -160t138.5 -64.5q90 0 154 66t82 162l57 -2q-16 -126 -106 -210.5t-224 -84.5q-79 0 -142.5 25t-104.5 65.5t-68.5 96t-39 114t-11.5 121.5z" />
<glyph unicode="&#xaa;" horiz-adv-x="688" d="M45 823q0 116 150 170l247 82v39q0 94 -24 136t-92 42q-67 0 -96 -31.5t-21 -84.5l8 -66h-139q-6 28 3 66t23 61q79 109 222 109q239 0 239 -230v-387q0 -31 35 -27l47 21l23 -43q-68 -43 -131 -43q-30 0 -52.5 17t-30.5 34l-7 17q-32 -30 -82.5 -49t-96.5 -19 q-102 0 -163.5 46.5t-61.5 139.5zM176 823q0 -46 30.5 -85.5t84.5 -39.5q79 0 153 80l-2 -2v240l-172 -58q-94 -37 -94 -135z" />
<glyph unicode="&#xab;" horiz-adv-x="927" d="M78 477l422 395l37 -36l-275 -359l275 -358l-37 -37zM391 477l422 395l37 -36l-277 -359l277 -358l-37 -37z" />
<glyph unicode="&#xac;" horiz-adv-x="931" d="M47 657v80h838l-2 -458h-80v378h-756z" />
<glyph unicode="&#xad;" horiz-adv-x="608" d="M80 498v80h448v-80h-448z" />
<glyph unicode="&#xae;" horiz-adv-x="1482" d="M47 676q0 142 55 270.5t148 221.5t221.5 147.5t269.5 54.5q189 0 349 -92.5t253 -252.5t93 -349q0 -141 -55 -269.5t-148 -221.5t-221.5 -148t-270.5 -55q-188 0 -348 93t-253 253t-93 348zM127 676q0 -168 82.5 -311t224 -226.5t307.5 -83.5t308.5 83.5t225.5 226.5 t83 311q0 126 -49.5 241t-132 198.5t-197 133t-238.5 49.5q-166 0 -307.5 -83.5t-224 -227t-82.5 -311.5zM420 272v64h102v711h-102v61h391q93 0 154 -65t61 -154q0 -82 -57.5 -150.5t-139.5 -74.5q64 -108 199 -328h105v-64h-211l-232 392h-49v-328h111v-64h-332zM641 729 h135q52 0 90.5 47.5t38.5 112.5q0 71 -38 114.5t-91 43.5h-135v-318z" />
<glyph unicode="&#xaf;" horiz-adv-x="540" d="M47 1087v80h449v-80h-449z" />
<glyph unicode="&#xb0;" horiz-adv-x="585" d="M80 1157q0 84 62.5 145.5t146.5 61.5q89 0 153 -61t64 -146q0 -89 -64 -152t-153 -63q-84 0 -146.5 63.5t-62.5 151.5zM168 1157q0 -57 32.5 -96t88.5 -39q53 0 91 40t38 95q0 49 -38 89t-91 40q-55 0 -88 -39t-33 -90z" />
<glyph unicode="&#xb1;" horiz-adv-x="1017" d="M80 0v80h838v-80h-838zM100 498v80h379v380h80v-380h379v-80h-379v-377h-80v377h-379z" />
<glyph unicode="&#xb2;" horiz-adv-x="669" d="M104 1221q82 129 213 129q88 0 156 -51t68 -144q0 -34 -9 -63t-33 -61.5t-40.5 -50.5t-55.5 -58l-153 -162h297v-103h-426v50l192 215q117 135 117 231q0 58 -32.5 95.5t-84.5 37.5q-43 0 -84 -25.5t-67 -68.5z" />
<glyph unicode="&#xb3;" horiz-adv-x="636" d="M98 741l49 45q55 -71 158 -71q57 0 97 34t40 105q0 62 -35.5 97.5t-93.5 35.5h-43v51q58 0 106 34.5t48 98.5q0 54 -31 82.5t-76 28.5q-89 0 -147 -88l-55 35q77 121 202 121q83 0 148 -49t65 -138q0 -40 -24 -79.5t-60 -65.5q105 -43 105 -154q0 -69 -38 -120t-93 -74 t-115 -23q-126 0 -207 94z" />
<glyph unicode="&#xb4;" horiz-adv-x="550" d="M80 1059l285 301l106 -111l-303 -190h-88z" />
<glyph unicode="&#xb5;" horiz-adv-x="1089" d="M166 -406v1330h156v-629q0 -124 45 -185t139 -61q37 0 73.5 10.5t74 34.5t60.5 73t23 116v641h154v-838q2 -43 53 -31q9 2 25 8t27 11l12 6l24 -49q-10 -6 -27 -15.5t-62 -25t-81 -15.5q-62 0 -93.5 36.5t-31.5 68.5v2q-37 -46 -104.5 -74t-155.5 -28q-95 0 -155 63v-481 z" />
<glyph unicode="&#xb6;" horiz-adv-x="1144" d="M123 995q0 73 23.5 136t71 112.5t126 78t180.5 28.5h525v-74h-162v-1276h-88v1276h-176v-1276h-88v629h-11q-184 0 -292.5 104.5t-108.5 261.5z" />
<glyph unicode="&#xb7;" horiz-adv-x="393" d="M74 485q0 53 35 88t88 35q52 0 87 -35t35 -88t-35 -88t-87 -35q-53 0 -88 35t-35 88z" />
<glyph unicode="&#xb8;" horiz-adv-x="464" d="M80 -229l225 198h80l-195 -305z" />
<glyph unicode="&#xb9;" horiz-adv-x="589" d="M133 1208l193 129h32v-624h99v-56h-297v56h96v504l-88 -58z" />
<glyph unicode="&#xba;" horiz-adv-x="620" d="M47 995q0 168 76 261.5t186 93.5q113 0 188.5 -89.5t75.5 -265.5q0 -171 -76 -263.5t-188 -92.5q-111 0 -186.5 90t-75.5 266zM172 995q0 -62 5.5 -109.5t19 -92t42 -69t70.5 -24.5q140 0 140 295q0 60 -5.5 107t-19.5 92t-43 69.5t-72 24.5q-137 0 -137 -293z" />
<glyph unicode="&#xbb;" horiz-adv-x="927" d="M78 119l276 358l-276 359l37 36l422 -395l-422 -395zM391 119l275 358l-275 359l37 36l422 -395l-422 -395z" />
<glyph unicode="&#xbc;" horiz-adv-x="1390" d="M133 1202l193 129h32v-624h99v-56h-297v56h96v503l-88 -57zM381 -53l524 1458h88l-522 -1458h-90zM750 166v55l333 473h70v-438h115v-90h-115v-152h-102v152h-301zM846 256h205v291z" />
<glyph unicode="&#xbd;" horiz-adv-x="1390" d="M133 1202l193 129h32v-624h99v-56h-297v56h96v503l-88 -57zM381 -53l524 1458h88l-522 -1458h-90zM827 563q83 129 213 129q89 0 156.5 -50.5t67.5 -143.5q0 -34 -9 -63.5t-33 -61.5t-41 -51t-55 -58l-153 -162h297v-102h-426v49l192 215q117 135 117 232 q0 58 -32.5 95.5t-84.5 37.5q-43 0 -84 -25.5t-67 -68.5z" />
<glyph unicode="&#xbe;" horiz-adv-x="1390" d="M98 739l49 45q55 -71 158 -71q57 0 97 34t40 105q0 62 -35.5 97.5t-93.5 35.5h-43v51q58 0 106 34.5t48 98.5q0 54 -31 82.5t-76 28.5q-89 0 -147 -88l-55 35q77 121 202 121q83 0 148 -49t65 -138q0 -40 -24 -79.5t-60 -65.5q105 -43 105 -154q0 -69 -38 -120t-93 -74 t-115 -23q-126 0 -207 94zM381 -53l524 1458h88l-522 -1458h-90zM750 166v55l333 473h70v-438h115v-90h-115v-152h-102v152h-301zM846 256h205v291z" />
<glyph unicode="&#xbf;" horiz-adv-x="937" d="M98 -115q0 54 11 97t35 78t43.5 56.5t54.5 54.5q9 9 14 13l147 146q41 41 63.5 79t22.5 89h93q0 -69 -11 -109.5t-30.5 -68t-75.5 -91.5q-18 -21 -61.5 -69t-79.5 -92q-33 -40 -50.5 -98t-17.5 -113q0 -98 61 -165t185 -67q60 0 105 14.5t82.5 49t61 97t31.5 153.5h109 v-246q-59 -62 -162 -99.5t-223 -37.5q-184 0 -296 93.5t-112 235.5zM408 827q0 53 35 88t87 35t87.5 -35t35.5 -88q0 -52 -35 -87t-88 -35q-52 0 -87 34.5t-35 87.5z" />
<glyph unicode="&#xc0;" horiz-adv-x="1306" d="M47 0v74h127l451 1276h92l454 -1276h121v-74h-418v74h121l-151 422h-434l-150 -422h129v-74h-342zM438 575h377l-190 531zM471 1634l107 111l284 -301h-90z" />
<glyph unicode="&#xc1;" horiz-adv-x="1306" d="M47 0v74h127l451 1276h92l454 -1276h121v-74h-418v74h121l-151 422h-434l-150 -422h129v-74h-342zM438 575h377l-190 531zM442 1440l285 301l107 -111l-304 -190h-88z" />
<glyph unicode="&#xc2;" horiz-adv-x="1306" d="M47 0v74h127l451 1276h92l454 -1276h121v-74h-418v74h121l-151 422h-434l-150 -422h129v-74h-342zM358 1444l299 311l299 -311h-79l-220 133l-219 -133h-80zM438 575h377l-190 531z" />
<glyph unicode="&#xc3;" horiz-adv-x="1306" d="M47 0v74h127l451 1276h92l454 -1276h121v-74h-418v74h121l-151 422h-434l-150 -422h129v-74h-342zM371 1442q19 80 66 132t120 52q39 0 127.5 -41t132.5 -41q33 0 61 23t33 51h50q-17 -80 -60.5 -132t-116.5 -52q-43 0 -134 41t-134 41q-33 0 -61 -23t-33 -51h-51z M438 575h377l-190 531z" />
<glyph unicode="&#xc4;" horiz-adv-x="1306" d="M47 0v74h127l451 1276h92l454 -1276h121v-74h-418v74h121l-151 422h-434l-150 -422h129v-74h-342zM360 1552q0 46 32.5 77.5t78.5 31.5q45 0 77 -32t32 -77t-32 -76.5t-77 -31.5q-46 0 -78.5 31.5t-32.5 76.5zM438 575h377l-190 531zM748 1552q0 46 32 77.5t76 31.5 q46 0 78.5 -31.5t32.5 -77.5q0 -45 -32.5 -76.5t-78.5 -31.5q-45 0 -76.5 31.5t-31.5 76.5z" />
<glyph unicode="&#xc5;" horiz-adv-x="1306" d="M47 0v74h127l451 1276h92l454 -1276h121v-74h-418v74h121l-151 422h-434l-150 -422h129v-74h-342zM438 575h377l-190 531zM492 1618q0 70 53 123t123 53q76 0 130 -52.5t54 -123.5q0 -76 -54 -130t-130 -54q-71 0 -123.5 54t-52.5 130zM565 1618q0 -48 27.5 -81.5 t75.5 -33.5q45 0 77.5 34.5t32.5 80.5q0 41 -32.5 74.5t-77.5 33.5q-47 0 -75 -32.5t-28 -75.5z" />
<glyph unicode="&#xc6;" horiz-adv-x="1771" d="M-4 0v74h168l551 1202h-131v74h1114v-361h-74l-108 287h-476v-518h330v147h94v-377h-94v148h-330v-602h492l108 286h74v-360h-1026v74h180v420h-417l-193 -420h164v-74h-426zM487 575h381v699h-61z" />
<glyph unicode="&#xc7;" horiz-adv-x="1140" d="M80 635q0 85 13.5 168.5t41.5 167t75 154.5t109 126t149.5 86t190.5 31q264 0 420 -164v-219h-125q-9 84 -38.5 147.5t-71.5 99.5t-88.5 53.5t-96.5 17.5q-87 0 -155.5 -28t-113.5 -76t-74 -116.5t-41.5 -145t-12.5 -165.5q0 -105 14.5 -205t47 -193t79 -162.5t116 -111 t153.5 -41.5q118 0 219.5 81.5t132.5 226.5h78q-30 -167 -154.5 -278.5t-288.5 -111.5q-126 0 -226.5 39.5t-165 103.5t-108 151t-61.5 177.5t-18 186.5zM381 -272l225 198h80l-194 -305z" />
<glyph unicode="&#xc8;" horiz-adv-x="1130" d="M41 0v74h180v1202h-180v74h1010v-361h-74l-111 287h-473v-518h330v147h94v-377h-94v148h-330v-602h492l108 286h74v-360h-1026zM410 1634l106 111l285 -301h-90z" />
<glyph unicode="&#xc9;" horiz-adv-x="1130" d="M41 0v74h180v1202h-180v74h1010v-361h-74l-111 287h-473v-518h330v147h94v-377h-94v148h-330v-602h492l108 286h74v-360h-1026zM401 1444l285 301l107 -111l-304 -190h-88z" />
<glyph unicode="&#xca;" horiz-adv-x="1130" d="M41 0v74h180v1202h-180v74h1010v-361h-74l-111 287h-473v-518h330v147h94v-377h-94v148h-330v-602h492l108 286h74v-360h-1026zM291 1444l299 311l299 -311h-80l-219 133l-219 -133h-80z" />
<glyph unicode="&#xcb;" horiz-adv-x="1130" d="M41 0v74h180v1202h-180v74h1010v-361h-74l-111 287h-473v-518h330v147h94v-377h-94v148h-330v-602h492l108 286h74v-360h-1026zM299 1552q0 46 32.5 77.5t78.5 31.5q44 0 76 -31.5t32 -77.5q0 -45 -31.5 -76.5t-76.5 -31.5q-46 0 -78.5 31.5t-32.5 76.5zM686 1552 q0 45 32 77t77 32q46 0 78 -31.5t32 -77.5t-32 -77t-78 -31q-45 0 -77 31.5t-32 76.5z" />
<glyph unicode="&#xcc;" horiz-adv-x="710" d="M61 0v74h203v1202h-203v74h586v-74h-211v-1202h211v-74h-586zM160 1628l106 111l285 -301h-90z" />
<glyph unicode="&#xcd;" horiz-adv-x="679" d="M47 0v74h203v1202h-203v74h586v-74h-211v-1202h211v-74h-586zM133 1438l285 301l106 -111l-303 -190h-88z" />
<glyph unicode="&#xce;" horiz-adv-x="692" d="M47 1442l299 311l299 -311h-80l-219 133l-219 -133h-80zM57 0v74h203v1202h-203v74h586v-74h-211v-1202h211v-74h-586z" />
<glyph unicode="&#xcf;" horiz-adv-x="700" d="M47 1550q0 46 32.5 77.5t78.5 31.5q44 0 76 -31.5t32 -77.5q0 -45 -31.5 -76.5t-76.5 -31.5q-46 0 -78.5 31.5t-32.5 76.5zM63 0v74h203v1202h-203v74h586v-74h-211v-1202h211v-74h-586zM434 1550q0 45 32 77t77 32q46 0 78 -31.5t32 -77.5t-32 -77t-78 -31 q-45 0 -77 31.5t-32 76.5z" />
<glyph unicode="&#xd0;" horiz-adv-x="1355" d="M51 0v74h180v585h-180v80h180v537h-180v74h645q124 0 223.5 -35.5t165 -96.5t109.5 -146t63 -179.5t19 -202.5q0 -84 -14 -165t-42.5 -159.5t-76 -144t-110 -115.5t-149 -78t-188.5 -28h-645zM408 74h288q87 0 156 35.5t113 94.5t73.5 140t41.5 167t12 181q0 127 -23 231 t-70 184t-124 124.5t-179 44.5h-288v-537h274v-80h-274v-585z" />
<glyph unicode="&#xd1;" horiz-adv-x="1304" d="M51 0v74h164v1200h-164v76h334l614 -1006v930h-165v76h428v-76h-172v-1274h-95l-692 1137v-1063h174v-74h-426zM358 1442q19 79 66.5 131.5t120.5 52.5q39 0 127.5 -41t132.5 -41q33 0 61 23t33 51h49q-17 -81 -60 -132.5t-116 -51.5q-43 0 -134 41t-134 41 q-33 0 -61 -23t-33 -51h-52z" />
<glyph unicode="&#xd2;" d="M80 635q0 103 19 203t63 197t108.5 170t165 118t223.5 45t223 -38.5t165 -102.5t109.5 -150t63.5 -176t19 -186q0 -102 -19.5 -202.5t-64.5 -198t-110 -172t-165 -120t-221 -45.5q-126 0 -226.5 39.5t-165 103.5t-108 151t-61.5 177.5t-18 186.5zM262 772 q-1 -132 22.5 -258t70 -233t125.5 -172.5t179 -65.5q109 0 188 41.5t124.5 117t66.5 169.5t21 211q0 134 -24.5 259t-71.5 230.5t-126.5 168.5t-179.5 63q-87 0 -155 -28t-112.5 -76t-73.5 -116.5t-41.5 -145t-12.5 -165.5zM455 1634l106 111l285 -301h-90z" />
<glyph unicode="&#xd3;" d="M80 635q0 103 19 203t63 197t108.5 170t165 118t223.5 45t223 -38.5t165 -102.5t109.5 -150t63.5 -176t19 -186q0 -102 -19.5 -202.5t-64.5 -198t-110 -172t-165 -120t-221 -45.5q-126 0 -226.5 39.5t-165 103.5t-108 151t-61.5 177.5t-18 186.5zM262 772 q-1 -132 22.5 -258t70 -233t125.5 -172.5t179 -65.5q109 0 188 41.5t124.5 117t66.5 169.5t21 211q0 134 -24.5 259t-71.5 230.5t-126.5 168.5t-179.5 63q-87 0 -155 -28t-112.5 -76t-73.5 -116.5t-41.5 -145t-12.5 -165.5zM436 1444l285 301l106 -111l-303 -190h-88z" />
<glyph unicode="&#xd4;" d="M80 635q0 103 19 203t63 197t108.5 170t165 118t223.5 45t223 -38.5t165 -102.5t109.5 -150t63.5 -176t19 -186q0 -102 -19.5 -202.5t-64.5 -198t-110 -172t-165 -120t-221 -45.5q-126 0 -226.5 39.5t-165 103.5t-108 151t-61.5 177.5t-18 186.5zM262 772 q-1 -132 22.5 -258t70 -233t125.5 -172.5t179 -65.5q109 0 188 41.5t124.5 117t66.5 169.5t21 211q0 134 -24.5 259t-71.5 230.5t-126.5 168.5t-179.5 63q-87 0 -155 -28t-112.5 -76t-73.5 -116.5t-41.5 -145t-12.5 -165.5zM344 1444l299 311l299 -311h-80l-219 133 l-219 -133h-80z" />
<glyph unicode="&#xd5;" d="M80 635q0 103 19 203t63 197t108.5 170t165 118t223.5 45t223 -38.5t165 -102.5t109.5 -150t63.5 -176t19 -186q0 -102 -19.5 -202.5t-64.5 -198t-110 -172t-165 -120t-221 -45.5q-126 0 -226.5 39.5t-165 103.5t-108 151t-61.5 177.5t-18 186.5zM262 772 q-1 -132 22.5 -258t70 -233t125.5 -172.5t179 -65.5q109 0 188 41.5t124.5 117t66.5 169.5t21 211q0 134 -24.5 259t-71.5 230.5t-126.5 168.5t-179.5 63q-87 0 -155 -28t-112.5 -76t-73.5 -116.5t-41.5 -145t-12.5 -165.5zM362 1440q19 79 66.5 131.5t120.5 52.5 q39 0 127.5 -41t132.5 -41q33 0 61 23t33 51h49q-17 -81 -60 -132.5t-116 -51.5q-43 0 -134 40.5t-134 40.5q-33 0 -61 -22.5t-33 -50.5h-52z" />
<glyph unicode="&#xd6;" d="M80 635q0 103 19 203t63 197t108.5 170t165 118t223.5 45t223 -38.5t165 -102.5t109.5 -150t63.5 -176t19 -186q0 -102 -19.5 -202.5t-64.5 -198t-110 -172t-165 -120t-221 -45.5q-126 0 -226.5 39.5t-165 103.5t-108 151t-61.5 177.5t-18 186.5zM262 772 q-1 -132 22.5 -258t70 -233t125.5 -172.5t179 -65.5q109 0 188 41.5t124.5 117t66.5 169.5t21 211q0 134 -24.5 259t-71.5 230.5t-126.5 168.5t-179.5 63q-87 0 -155 -28t-112.5 -76t-73.5 -116.5t-41.5 -145t-12.5 -165.5zM356 1548q0 46 32.5 77.5t78.5 31.5 q45 0 76.5 -31.5t31.5 -77.5q0 -45 -31.5 -76.5t-76.5 -31.5q-46 0 -78.5 31.5t-32.5 76.5zM743 1548q0 45 32 77t77 32q46 0 78.5 -31.5t32.5 -77.5q0 -45 -32.5 -76.5t-78.5 -31.5q-45 0 -77 31.5t-32 76.5z" />
<glyph unicode="&#xd7;" horiz-adv-x="808" d="M80 193l266 266l-266 268l55 55l268 -266l269 268l55 -55l-268 -270l268 -269l-57 -55l-267 268l-268 -266z" />
<glyph unicode="&#xd8;" d="M80 635q0 103 19 203t63 197t108.5 170t165 118t223.5 45q217 0 361 -121l110 156h103l-152 -213q80 -93 119 -217.5t39 -257.5q0 -102 -19.5 -202.5t-64.5 -198t-110 -172t-165 -120t-221 -45.5q-216 0 -358 113l-102 -145h-101l144 202q-83 92 -122.5 220.5 t-39.5 267.5zM262 772q-3 -268 86 -475l586 827q-108 179 -277 179q-87 0 -155 -28t-112.5 -76t-73.5 -116.5t-41.5 -145t-12.5 -165.5zM389 215q104 -172 270 -172q109 0 188 41.5t124.5 117t66.5 169.5t21 211q0 262 -84 458z" />
<glyph unicode="&#xd9;" horiz-adv-x="1294" d="M41 1276v74h500v-74h-164v-887q0 -159 77.5 -244.5t200.5 -85.5q89 0 164.5 33t125.5 105t50 170v909h-161v74h417v-74h-161v-907q0 -176 -118.5 -284t-316.5 -108t-324 109.5t-126 282.5v907h-164zM489 1632l107 111l285 -301h-90z" />
<glyph unicode="&#xda;" horiz-adv-x="1294" d="M41 1276v74h500v-74h-164v-887q0 -159 77.5 -244.5t200.5 -85.5q89 0 164.5 33t125.5 105t50 170v909h-161v74h417v-74h-161v-907q0 -176 -118.5 -284t-316.5 -108t-324 109.5t-126 282.5v907h-164zM473 1442l285 301l106 -111l-303 -190h-88z" />
<glyph unicode="&#xdb;" horiz-adv-x="1294" d="M41 1276v74h500v-74h-164v-887q0 -159 77.5 -244.5t200.5 -85.5q89 0 164.5 33t125.5 105t50 170v909h-161v74h417v-74h-161v-907q0 -176 -118.5 -284t-316.5 -108t-324 109.5t-126 282.5v907h-164zM365 1444l299 311l299 -311h-80l-219 133l-220 -133h-79z" />
<glyph unicode="&#xdc;" horiz-adv-x="1294" d="M41 1276v74h500v-74h-164v-887q0 -159 77.5 -244.5t200.5 -85.5q89 0 164.5 33t125.5 105t50 170v909h-161v74h417v-74h-161v-907q0 -176 -118.5 -284t-316.5 -108t-324 109.5t-126 282.5v907h-164zM367 1552q0 46 32 77.5t78 31.5q45 0 77 -32t32 -77t-32 -76.5 t-77 -31.5q-46 0 -78 31t-32 77zM754 1552q0 46 32 77.5t76 31.5q46 0 78.5 -31.5t32.5 -77.5q0 -45 -32.5 -76.5t-78.5 -31.5q-45 0 -76.5 31.5t-31.5 76.5z" />
<glyph unicode="&#xdd;" horiz-adv-x="1218" d="M-6 1276v74h545v-74h-172l282 -580l299 580h-176v74h432v-74h-170l-338 -655v-547h205v-74h-577v74h200v493l-350 709h-180zM414 1458l284 301l107 -110l-303 -191h-88z" />
<glyph unicode="&#xde;" horiz-adv-x="1144" d="M51 0v74h164v1202h-164v74h500v-74h-164v-215h260q102 0 181 -28.5t126 -78t71 -112t24 -135.5q0 -157 -109 -262t-293 -105h-260v-266h164v-74h-500zM387 418h236q100 0 166.5 80t66.5 204q0 128 -64 206.5t-169 78.5h-236v-569z" />
<glyph unicode="&#xdf;" horiz-adv-x="1056" d="M27 0v63v-63zM27 0v63h129v945q0 155 87.5 248.5t243.5 93.5q93 0 162.5 -25.5t107.5 -69t56 -92t18 -102.5q0 -39 -13.5 -74t-39 -64t-46 -47.5t-51.5 -41.5t-38 -29q-55 -45 -55 -94q0 -46 67 -90l203 -146q135 -92 135 -233q0 -107 -95.5 -184.5t-233.5 -77.5 q-124 0 -224 81l47 54q87 -72 177 -72q77 0 124.5 49.5t47.5 120.5q0 36 -16.5 70t-43.5 55l-174 131q-38 29 -59.5 50t-41.5 64.5t-20 98.5q0 81 60 141q10 10 36.5 34t39.5 38.5t30.5 39t25 55t7.5 67.5q0 48 -10 87.5t-31 72t-60 51t-92 18.5q-81 0 -128.5 -46.5 t-47.5 -137.5v-1102h-284z" />
<glyph unicode="&#xe0;" horiz-adv-x="956" d="M94 201q0 87 50.5 147t158.5 96l326 107v78q0 131 -34.5 191.5t-129.5 60.5q-90 0 -131.5 -46t-30.5 -120l8 -86h-176q-7 38 5.5 86.5t31.5 79.5q97 149 295 149q67 0 121.5 -15.5t100.5 -49.5t71.5 -96.5t25.5 -149.5v-537q0 -29 20 -38.5t44 -4.5q9 2 25 9.5t28 14.5 l12 7l25 -49q-8 -7 -23 -17t-58.5 -26.5t-84.5 -16.5q-32 0 -58.5 10.5t-41 25t-24.5 29.5t-14 26l-3 10q-44 -45 -110.5 -73t-135.5 -28q-131 0 -212 62.5t-81 163.5zM264 221q0 -68 43.5 -118t114.5 -50q107 0 207 109v321l-228 -75q-70 -25 -103.5 -75.5t-33.5 -111.5z M283 1249l106 111l285 -301h-90z" />
<glyph unicode="&#xe1;" horiz-adv-x="956" d="M94 201q0 87 50.5 147t158.5 96l326 107v78q0 131 -34.5 191.5t-129.5 60.5q-90 0 -131.5 -46t-30.5 -120l8 -86h-176q-7 38 5.5 86.5t31.5 79.5q97 149 295 149q67 0 121.5 -15.5t100.5 -49.5t71.5 -96.5t25.5 -149.5v-537q0 -29 20 -38.5t44 -4.5q9 2 25 9.5t28 14.5 l12 7l25 -49q-8 -7 -23 -17t-58.5 -26.5t-84.5 -16.5q-32 0 -58.5 10.5t-41 25t-24.5 29.5t-14 26l-3 10q-44 -45 -110.5 -73t-135.5 -28q-131 0 -212 62.5t-81 163.5zM264 221q0 -68 43.5 -118t114.5 -50q107 0 207 109v321l-228 -75q-70 -25 -103.5 -75.5t-33.5 -111.5z M276 1059l285 301l107 -111l-303 -190h-89z" />
<glyph unicode="&#xe2;" horiz-adv-x="956" d="M94 201q0 87 50.5 147t158.5 96l326 107v78q0 131 -34.5 191.5t-129.5 60.5q-90 0 -131.5 -46t-30.5 -120l8 -86h-176q-7 38 5.5 86.5t31.5 79.5q97 149 295 149q67 0 121.5 -15.5t100.5 -49.5t71.5 -96.5t25.5 -149.5v-537q0 -29 20 -38.5t44 -4.5q9 2 25 9.5t28 14.5 l12 7l25 -49q-8 -7 -23 -17t-58.5 -26.5t-84.5 -16.5q-32 0 -58.5 10.5t-41 25t-24.5 29.5t-14 26l-3 10q-44 -45 -110.5 -73t-135.5 -28q-131 0 -212 62.5t-81 163.5zM168 1075l299 311l299 -311h-80l-219 133l-219 -133h-80zM264 221q0 -68 43.5 -118t114.5 -50 q107 0 207 109v321l-228 -75q-70 -25 -103.5 -75.5t-33.5 -111.5z" />
<glyph unicode="&#xe3;" horiz-adv-x="956" d="M94 201q0 87 50.5 147t158.5 96l326 107v78q0 131 -34.5 191.5t-129.5 60.5q-90 0 -131.5 -46t-30.5 -120l8 -86h-176q-7 38 5.5 86.5t31.5 79.5q97 149 295 149q67 0 121.5 -15.5t100.5 -49.5t71.5 -96.5t25.5 -149.5v-537q0 -29 20 -38.5t44 -4.5q9 2 25 9.5t28 14.5 l12 7l25 -49q-8 -7 -23 -17t-58.5 -26.5t-84.5 -16.5q-32 0 -58.5 10.5t-41 25t-24.5 29.5t-14 26l-3 10q-44 -45 -110.5 -73t-135.5 -28q-131 0 -212 62.5t-81 163.5zM190 1130q19 80 66.5 132.5t120.5 52.5q39 0 127.5 -41t132.5 -41q33 0 61 23t33 51h49 q-17 -81 -60.5 -133t-115.5 -52q-43 0 -134 41t-134 41q-33 0 -61 -23t-33 -51h-52zM264 221q0 -68 43.5 -118t114.5 -50q107 0 207 109v321l-228 -75q-70 -25 -103.5 -75.5t-33.5 -111.5z" />
<glyph unicode="&#xe4;" horiz-adv-x="956" d="M94 201q0 87 50.5 147t158.5 96l326 107v78q0 131 -34.5 191.5t-129.5 60.5q-90 0 -131.5 -46t-30.5 -120l8 -86h-176q-7 38 5.5 86.5t31.5 79.5q97 149 295 149q67 0 121.5 -15.5t100.5 -49.5t71.5 -96.5t25.5 -149.5v-537q0 -29 20 -38.5t44 -4.5q9 2 25 9.5t28 14.5 l12 7l25 -49q-8 -7 -23 -17t-58.5 -26.5t-84.5 -16.5q-32 0 -58.5 10.5t-41 25t-24.5 29.5t-14 26l-3 10q-44 -45 -110.5 -73t-135.5 -28q-131 0 -212 62.5t-81 163.5zM164 1231q0 46 32 77t78 31q45 0 77 -31.5t32 -76.5t-32 -77t-77 -32q-46 0 -78 31.5t-32 77.5zM264 221 q0 -68 43.5 -118t114.5 -50q107 0 207 109v321l-228 -75q-70 -25 -103.5 -75.5t-33.5 -111.5zM551 1231q0 45 31.5 76.5t76.5 31.5q46 0 78.5 -31.5t32.5 -76.5q0 -46 -32.5 -77.5t-78.5 -31.5q-45 0 -76.5 32t-31.5 77z" />
<glyph unicode="&#xe5;" horiz-adv-x="956" d="M94 201q0 87 50.5 147t158.5 96l326 107v78q0 131 -34.5 191.5t-129.5 60.5q-90 0 -131.5 -46t-30.5 -120l8 -86h-176q-7 38 5.5 86.5t31.5 79.5q97 149 295 149q67 0 121.5 -15.5t100.5 -49.5t71.5 -96.5t25.5 -149.5v-537q0 -29 20 -38.5t44 -4.5q9 2 25 9.5t28 14.5 l12 7l25 -49q-8 -7 -23 -17t-58.5 -26.5t-84.5 -16.5q-32 0 -58.5 10.5t-41 25t-24.5 29.5t-14 26l-3 10q-44 -45 -110.5 -73t-135.5 -28q-131 0 -212 62.5t-81 163.5zM264 221q0 -68 43.5 -118t114.5 -50q107 0 207 109v321l-228 -75q-70 -25 -103.5 -75.5t-33.5 -111.5z M279 1243q0 71 52.5 123.5t123.5 52.5q76 0 130 -52.5t54 -123.5q0 -77 -53.5 -130.5t-130.5 -53.5q-71 0 -123.5 54t-52.5 130zM352 1243q0 -48 27.5 -81.5t75.5 -33.5q45 0 77.5 34.5t32.5 80.5q0 41 -32.5 75t-77.5 34q-47 0 -75 -33t-28 -76z" />
<glyph unicode="&#xe6;" horiz-adv-x="1509" d="M98 219q0 68 49 127t152 94l336 111v78q0 131 -34.5 191.5t-129.5 60.5q-90 0 -131.5 -46t-30.5 -120l8 -86h-176q-7 38 5.5 86.5t31.5 79.5q97 149 295 149q203 0 277 -129q109 129 284 129q197 0 292 -118.5t95 -329.5h-624q0 -75 19.5 -152.5t54.5 -143.5t89.5 -107.5 t118.5 -41.5q61 0 112 26.5t82.5 67.5t50 82t24.5 78l63 -2q-3 -36 -16 -76.5t-42 -85.5t-69 -80.5t-103 -59t-139 -24.5q-189 0 -297 121q-87 -65 -165.5 -94t-171.5 -29q-139 0 -224.5 59.5t-85.5 184.5zM268 219q0 -58 52 -112t122 -54q76 0 134 24.5t120 88.5 q-65 118 -65 276v39l-234 -78q-68 -24 -98.5 -73.5t-30.5 -110.5zM797 563h432q13 320 -195 320q-62 0 -107.5 -24.5t-72.5 -69.5t-41 -100.5t-16 -125.5z" />
<glyph unicode="&#xe7;" horiz-adv-x="933" d="M102 446q0 69 14.5 137.5t46.5 134t78.5 115.5t115.5 80.5t151 30.5q299 0 360 -258h-184q-11 87 -59 142t-119 55q-64 0 -111.5 -28t-74.5 -78.5t-39.5 -112t-12.5 -136.5q0 -119 31 -224.5t96.5 -177t153.5 -71.5q100 0 170 72.5t90 177.5l63 -2q-18 -139 -117 -232.5 t-247 -93.5q-108 0 -189.5 41t-127 110t-67.5 149t-22 169zM238 -272l225 198h80l-195 -305z" />
<glyph unicode="&#xe8;" horiz-adv-x="966" d="M98 442q0 71 15 140.5t48.5 135t81 115.5t117.5 80.5t154 30.5q175 0 268 -99.5t107 -277.5q3 -40 0 -71h-625q0 -75 21 -152.5t58 -142t94 -105.5t122 -41q59 0 108 26t78.5 66t46.5 80t23 78l64 -2q-3 -36 -16 -76.5t-42 -85.5t-69 -80.5t-103 -59t-139 -24.5 q-103 -1 -184.5 39.5t-130 108.5t-73 149t-24.5 168zM264 563h432q13 320 -194 320q-82 0 -135.5 -44t-76.5 -113t-26 -163zM295 1249l106 111l285 -301h-90z" />
<glyph unicode="&#xe9;" horiz-adv-x="966" d="M98 442q0 71 15 140.5t48.5 135t81 115.5t117.5 80.5t154 30.5q175 0 268 -99.5t107 -277.5q3 -40 0 -71h-625q0 -75 21 -152.5t58 -142t94 -105.5t122 -41q59 0 108 26t78.5 66t46.5 80t23 78l64 -2q-3 -36 -16 -76.5t-42 -85.5t-69 -80.5t-103 -59t-139 -24.5 q-103 -1 -184.5 39.5t-130 108.5t-73 149t-24.5 168zM264 563h432q13 320 -194 320q-82 0 -135.5 -44t-76.5 -113t-26 -163zM334 1059l284 301l107 -111l-303 -190h-88z" />
<glyph unicode="&#xea;" horiz-adv-x="966" d="M98 442q0 71 15 140.5t48.5 135t81 115.5t117.5 80.5t154 30.5q175 0 268 -99.5t107 -277.5q3 -40 0 -71h-625q0 -75 21 -152.5t58 -142t94 -105.5t122 -41q59 0 108 26t78.5 66t46.5 80t23 78l64 -2q-3 -36 -16 -76.5t-42 -85.5t-69 -80.5t-103 -59t-139 -24.5 q-103 -1 -184.5 39.5t-130 108.5t-73 149t-24.5 168zM190 1075l299 311l299 -311h-79l-220 133l-219 -133h-80zM264 563h432q13 320 -194 320q-82 0 -135.5 -44t-76.5 -113t-26 -163z" />
<glyph unicode="&#xeb;" horiz-adv-x="966" d="M98 442q0 71 15 140.5t48.5 135t81 115.5t117.5 80.5t154 30.5q175 0 268 -99.5t107 -277.5q3 -40 0 -71h-625q0 -75 21 -152.5t58 -142t94 -105.5t122 -41q59 0 108 26t78.5 66t46.5 80t23 78l64 -2q-3 -36 -16 -76.5t-42 -85.5t-69 -80.5t-103 -59t-139 -24.5 q-103 -1 -184.5 39.5t-130 108.5t-73 149t-24.5 168zM201 1231q0 46 32 77t78 31q45 0 77 -31.5t32 -76.5t-32 -77t-77 -32q-46 0 -78 31.5t-32 77.5zM264 563h432q13 320 -194 320q-82 0 -135.5 -44t-76.5 -113t-26 -163zM588 1231q0 45 31.5 76.5t76.5 31.5 q46 0 78.5 -31.5t32.5 -76.5q0 -46 -32.5 -77.5t-78.5 -31.5q-44 0 -76 32t-32 77z" />
<glyph unicode="&#xec;" horiz-adv-x="577" d="M-20 1249l106 111l285 -301h-90zM47 0v63h166v801h-150v60l304 18v-879h163v-63h-483z" />
<glyph unicode="&#xed;" horiz-adv-x="587" d="M57 0v63h166v801h-149v60l303 18v-879h164v-63h-484zM90 1059l285 301l106 -111l-303 -190h-88z" />
<glyph unicode="&#xee;" horiz-adv-x="630" d="M16 1075l299 311l299 -311h-79l-220 133l-219 -133h-80zM82 0v63h166v801h-150v60l303 18v-879h164v-63h-483z" />
<glyph unicode="&#xef;" horiz-adv-x="638" d="M16 1231q0 45 32.5 76.5t78.5 31.5q45 0 77 -31.5t32 -76.5t-32 -77t-77 -32q-46 0 -78.5 31.5t-32.5 77.5zM82 0v63h166v801h-150v60l303 18v-879h164v-63h-483zM403 1231q0 45 32 76.5t77 31.5q46 0 78.5 -31.5t32.5 -76.5q0 -46 -32.5 -77.5t-78.5 -31.5q-45 0 -77 32 t-32 77z" />
<glyph unicode="&#xf0;" horiz-adv-x="1011" d="M98 422q0 75 13.5 147t45 141t77 121t115 83.5t153.5 31.5q114 0 205 -98q-41 175 -164 301l-197 -107l-37 56l183 98q-145 115 -330 115v63q221 0 411 -135l281 154l33 -56l-258 -141q278 -244 278 -688q0 -93 -25 -184t-72.5 -170t-127.5 -128t-180 -49 q-109 0 -190 38.5t-126 104t-66.5 141.5t-21.5 161zM264 530q0 -89 14 -173t41.5 -157t75 -117t107.5 -44q66 0 113.5 28t74.5 79t39 113t12 140q0 92 -14 176t-41.5 155t-75 113t-108.5 42q-64 0 -111.5 -28t-74.5 -78.5t-39.5 -112t-12.5 -136.5z" />
<glyph unicode="&#xf1;" horiz-adv-x="1079" d="M57 0v61h131v801h-131v60l285 20v-100q37 46 104.5 74t153.5 28q76 0 132.5 -17.5t90.5 -46t54.5 -70.5t28 -85t7.5 -96v-568h129v-61h-417v61h133v568q0 124 -45.5 184.5t-141.5 60.5q-28 0 -57 -6t-60.5 -22t-55.5 -41.5t-40 -67.5t-16 -96v-580h131v-61h-416z M246 1130q19 80 66 132.5t120 52.5q39 0 127.5 -41t132.5 -41q33 0 61 23t33 51h50q-17 -81 -60.5 -133t-116.5 -52q-43 0 -134 41t-134 41q-33 0 -61 -23t-33 -51h-51z" />
<glyph unicode="&#xf2;" horiz-adv-x="1005" d="M98 442q0 71 13.5 140.5t45 136t77 116.5t115 80.5t153.5 30.5q86 0 156 -26.5t115.5 -70.5t76 -104.5t44 -125t13.5 -134.5q0 -89 -23.5 -175.5t-70.5 -162.5t-127.5 -123t-183.5 -47q-88 0 -158 27t-115.5 71.5t-75.5 106t-42.5 125.5t-12.5 135zM264 530 q0 -89 14 -173t41.5 -157t75 -117t107.5 -44q66 0 113.5 28t74.5 79t39 113t12 140q0 92 -14 176t-41.5 155t-75 113t-108.5 42q-64 0 -111.5 -28t-74.5 -78.5t-39.5 -112t-12.5 -136.5zM299 1249l107 111l284 -301h-90z" />
<glyph unicode="&#xf3;" horiz-adv-x="1005" d="M98 442q0 71 13.5 140.5t45 136t77 116.5t115 80.5t153.5 30.5q86 0 156 -26.5t115.5 -70.5t76 -104.5t44 -125t13.5 -134.5q0 -89 -23.5 -175.5t-70.5 -162.5t-127.5 -123t-183.5 -47q-88 0 -158 27t-115.5 71.5t-75.5 106t-42.5 125.5t-12.5 135zM264 530 q0 -89 14 -173t41.5 -157t75 -117t107.5 -44q66 0 113.5 28t74.5 79t39 113t12 140q0 92 -14 176t-41.5 155t-75 113t-108.5 42q-64 0 -111.5 -28t-74.5 -78.5t-39.5 -112t-12.5 -136.5zM317 1059l285 301l107 -111l-303 -190h-89z" />
<glyph unicode="&#xf4;" horiz-adv-x="1001" d="M96 442q0 71 13.5 140.5t45 136t77 116.5t115 80.5t153.5 30.5q86 0 156 -26.5t115.5 -70.5t76 -104.5t44 -125t13.5 -134.5q0 -89 -23.5 -175.5t-70.5 -162.5t-127.5 -123t-183.5 -47q-88 0 -158 27t-115.5 71.5t-75.5 106t-42.5 125.5t-12.5 135zM195 1075l299 311 l299 -311h-80l-219 133l-220 -133h-79zM262 530q0 -89 14 -173t41.5 -157t75 -117t107.5 -44q66 0 113.5 28t74.5 79t39 113t12 140q0 92 -14 176t-41.5 155t-75 113t-108.5 42q-64 0 -111.5 -28t-74.5 -78.5t-39.5 -112t-12.5 -136.5z" />
<glyph unicode="&#xf5;" horiz-adv-x="1001" d="M96 442q0 71 13.5 140.5t45 136t77 116.5t115 80.5t153.5 30.5q86 0 156 -26.5t115.5 -70.5t76 -104.5t44 -125t13.5 -134.5q0 -89 -23.5 -175.5t-70.5 -162.5t-127.5 -123t-183.5 -47q-88 0 -158 27t-115.5 71.5t-75.5 106t-42.5 125.5t-12.5 135zM205 1130 q19 80 66 132.5t120 52.5q39 0 127.5 -41t132.5 -41q33 0 61 23t33 51h50q-17 -81 -60.5 -133t-116.5 -52q-43 0 -134 41t-134 41q-33 0 -61 -23t-33 -51h-51zM262 530q0 -89 14 -173t41.5 -157t75 -117t107.5 -44q66 0 113.5 28t74.5 79t39 113t12 140q0 92 -14 176 t-41.5 155t-75 113t-108.5 42q-64 0 -111.5 -28t-74.5 -78.5t-39.5 -112t-12.5 -136.5z" />
<glyph unicode="&#xf6;" horiz-adv-x="1005" d="M98 442q0 71 13.5 140.5t45 136t77 116.5t115 80.5t153.5 30.5q86 0 156 -26.5t115.5 -70.5t76 -104.5t44 -125t13.5 -134.5q0 -89 -23.5 -175.5t-70.5 -162.5t-127.5 -123t-183.5 -47q-88 0 -158 27t-115.5 71.5t-75.5 106t-42.5 125.5t-12.5 135zM195 1231q0 46 32 77 t78 31q45 0 77 -31.5t32 -76.5t-32 -77t-77 -32q-46 0 -78 31.5t-32 77.5zM264 530q0 -89 14 -173t41.5 -157t75 -117t107.5 -44q66 0 113.5 28t74.5 79t39 113t12 140q0 92 -14 176t-41.5 155t-75 113t-108.5 42q-64 0 -111.5 -28t-74.5 -78.5t-39.5 -112t-12.5 -136.5z M582 1231q0 45 31.5 76.5t76.5 31.5q46 0 78.5 -31.5t32.5 -76.5q0 -46 -32.5 -77.5t-78.5 -31.5q-44 0 -76 32t-32 77z" />
<glyph unicode="&#xf7;" horiz-adv-x="997" d="M80 420v76h838v-76h-838zM362 92q0 53 34.5 88t86.5 35q53 0 88 -35.5t35 -87.5t-35 -86.5t-88 -34.5t-87 34.5t-34 86.5zM362 809q0 53 34 87t87 34t88 -34.5t35 -86.5q0 -53 -35 -88t-88 -35q-52 0 -86.5 35t-34.5 88z" />
<glyph unicode="&#xf8;" horiz-adv-x="1005" d="M98 442q0 71 13.5 140.5t45 136t77 116.5t115 80.5t153.5 30.5q118 0 205 -49l71 127h90l-98 -174q70 -63 103.5 -159.5t33.5 -205.5q0 -89 -23.5 -175.5t-70.5 -162.5t-127.5 -123t-183.5 -47q-115 0 -203 48l-78 -131h-90l102 176q-135 124 -135 372zM264 530 q0 -182 51 -319l334 586q-61 88 -147 88q-64 0 -111.5 -28t-74.5 -78.5t-39.5 -112t-12.5 -136.5zM356 127q61 -88 146 -88q66 0 113.5 28t74.5 79t39 113t12 140q0 183 -49 314z" />
<glyph unicode="&#xf9;" horiz-adv-x="1079" d="M37 862v62h285v-629q0 -124 45 -185t139 -61q37 0 73.5 10.5t74 34.5t60.5 73t23 116v579h-131v62h285v-863h131v-59l-285 -20v100q-37 -46 -104.5 -74t-155.5 -28q-75 0 -131 17.5t-90 46t-54.5 70.5t-28 85t-7.5 96v567h-129zM305 1249l107 111l284 -301h-90z" />
<glyph unicode="&#xfa;" horiz-adv-x="1079" d="M37 862v62h285v-629q0 -124 45 -185t139 -61q37 0 73.5 10.5t74 34.5t60.5 73t23 116v579h-131v62h285v-863h131v-59l-285 -20v100q-37 -46 -104.5 -74t-155.5 -28q-75 0 -131 17.5t-90 46t-54.5 70.5t-28 85t-7.5 96v567h-129zM293 1059l285 301l106 -111l-303 -190h-88 z" />
<glyph unicode="&#xfb;" horiz-adv-x="1079" d="M37 862v62h285v-629q0 -124 45 -185t139 -61q37 0 73.5 10.5t74 34.5t60.5 73t23 116v579h-131v62h285v-863h131v-59l-285 -20v100q-37 -46 -104.5 -74t-155.5 -28q-75 0 -131 17.5t-90 46t-54.5 70.5t-28 85t-7.5 96v567h-129zM205 1075l299 311l299 -311h-80l-219 133 l-219 -133h-80z" />
<glyph unicode="&#xfc;" horiz-adv-x="1079" d="M37 862v62h285v-629q0 -124 45 -185t139 -61q37 0 73.5 10.5t74 34.5t60.5 73t23 116v579h-131v62h285v-863h131v-59l-285 -20v100q-37 -46 -104.5 -74t-155.5 -28q-75 0 -131 17.5t-90 46t-54.5 70.5t-28 85t-7.5 96v567h-129zM203 1231q0 46 32 77t78 31q45 0 77 -31.5 t32 -76.5t-32 -77t-77 -32q-46 0 -78 31.5t-32 77.5zM590 1231q0 45 31.5 76.5t76.5 31.5q46 0 78.5 -31.5t32.5 -76.5q0 -46 -32.5 -77.5t-78.5 -31.5q-44 0 -76 32t-32 77z" />
<glyph unicode="&#xfd;" horiz-adv-x="987" d="M-4 -375l47 56q38 -35 74 -52.5t86 -17.5q59 0 97 39t67 112l92 242l-355 858h-106v62h420v-62h-133l256 -641l239 641h-125v62h314v-62h-109l-418 -1112q-41 -110 -96 -160.5t-143 -50.5q-68 0 -114 22.5t-93 63.5zM297 1059l285 301l106 -111l-303 -190h-88z" />
<glyph unicode="&#xfe;" horiz-adv-x="1069" d="M6 -377h150v1731h-148v57l301 21v-592q86 104 248 104q107 0 189 -36t130 -98.5t71.5 -139t23.5 -164.5q0 -75 -13.5 -147.5t-45 -142t-77 -122.5t-115 -85t-153.5 -32q-95 0 -155 29t-103 82v-465h148v-61h-451v61zM309 276q0 -108 75.5 -168.5t182.5 -60.5 q65 0 113 27.5t75 77t39.5 111.5t12.5 138q0 97 -14.5 179.5t-43.5 149t-78 104.5t-114 38q-46 0 -87 -12t-77.5 -37t-59 -71.5t-24.5 -108.5v-367z" />
<glyph unicode="&#xff;" horiz-adv-x="991" d="M-20 -375l47 56q39 -35 74 -52.5t85 -17.5q59 0 97 39t67 112l92 242l-354 858h-106v62h419v-62h-133l256 -641l240 641h-125v62h313v-62h-108l-418 -1112q-41 -109 -96.5 -160t-143.5 -51q-68 0 -113.5 22t-92.5 64zM178 1231q0 45 32.5 76.5t78.5 31.5q45 0 76.5 -31.5 t31.5 -76.5t-31.5 -77t-76.5 -32q-46 0 -78.5 31.5t-32.5 77.5zM565 1231q0 45 32 76.5t77 31.5q46 0 78 -31t32 -77t-32 -77.5t-78 -31.5q-45 0 -77 32t-32 77z" />
<glyph unicode="&#x152;" horiz-adv-x="1878" d="M80 637q0 109 19 211t63 198t109 167t165 114t223 43q91 0 179 -20h966v-361h-75l-109 287h-473v-518h330v147h94v-377h-94v148h-330v-602h489l111 286h74v-360h-1000q-78 -20 -162 -20q-126 0 -226.5 39t-165 103.5t-108 151t-61.5 177t-18 186.5zM262 774 q-1 -132 22.5 -258t70 -233t125.5 -172.5t179 -65.5q73 0 129 13.5t91.5 38t56.5 50t37 58.5v848q-17 53 -38 93t-56.5 78.5t-92 59.5t-129.5 21q-87 0 -155 -28t-112.5 -76t-73.5 -116.5t-41.5 -145t-12.5 -165.5z" />
<glyph unicode="&#x153;" horiz-adv-x="1619" d="M98 442q0 71 13.5 140.5t45 136t77 116.5t115 80.5t153.5 30.5q225 0 329 -170q113 168 314 168q197 0 292 -118.5t95 -329.5h-625v-11v-4q2 -101 35 -197.5t99 -164.5t149 -68q61 0 112 26.5t82 67.5t49.5 82t24.5 78l64 -2q-3 -36 -16 -76.5t-42 -85.5t-69 -80.5 t-103 -59t-139 -24.5q-230 0 -338 175q-113 -175 -313 -175q-88 0 -158 27t-115.5 71.5t-75.5 106t-42.5 125.5t-12.5 135zM264 530q0 -89 14 -173t41.5 -157t75 -117t107.5 -44q66 0 113.5 28t74.5 79t39 113t12 140q0 92 -14 176t-41.5 155t-75 113t-108.5 42 q-64 0 -111.5 -28t-74.5 -78.5t-39.5 -112t-12.5 -136.5zM907 563h432q13 320 -194 320q-82 0 -135.5 -44t-76.5 -113t-26 -163z" />
<glyph unicode="&#x178;" horiz-adv-x="1218" d="M-6 1276v74h545v-74h-172l282 -580l299 580h-176v74h432v-74h-170l-338 -655v-547h205v-74h-577v74h200v493l-350 709h-180zM332 1548q0 46 32 77.5t78 31.5q45 0 77 -32t32 -77t-32 -76.5t-77 -31.5q-46 0 -78 31t-32 77zM719 1548q0 46 31.5 77.5t76.5 31.5 q46 0 78.5 -31.5t32.5 -77.5q0 -45 -32.5 -76.5t-78.5 -31.5q-45 0 -76.5 31.5t-31.5 76.5z" />
<glyph unicode="&#x2c6;" horiz-adv-x="757" d="M80 1075l299 311l299 -311h-80l-219 133l-219 -133h-80z" />
<glyph unicode="&#x2dc;" horiz-adv-x="749" d="M80 1130q19 80 66 132.5t120 52.5q39 0 127.5 -41t132.5 -41q33 0 61.5 23t33.5 51h49q-17 -81 -60.5 -133t-115.5 -52q-43 0 -134.5 41t-134.5 41q-33 0 -61 -23t-33 -51h-51z" />
<glyph unicode="&#x2000;" horiz-adv-x="897" />
<glyph unicode="&#x2001;" horiz-adv-x="1794" />
<glyph unicode="&#x2002;" horiz-adv-x="897" />
<glyph unicode="&#x2003;" horiz-adv-x="1794" />
<glyph unicode="&#x2004;" horiz-adv-x="598" />
<glyph unicode="&#x2005;" horiz-adv-x="448" />
<glyph unicode="&#x2006;" horiz-adv-x="299" />
<glyph unicode="&#x2007;" horiz-adv-x="299" />
<glyph unicode="&#x2008;" horiz-adv-x="224" />
<glyph unicode="&#x2009;" horiz-adv-x="358" />
<glyph unicode="&#x200a;" horiz-adv-x="99" />
<glyph unicode="&#x2010;" horiz-adv-x="608" d="M80 498v80h448v-80h-448z" />
<glyph unicode="&#x2011;" horiz-adv-x="608" d="M80 498v80h448v-80h-448z" />
<glyph unicode="&#x2012;" horiz-adv-x="608" d="M80 498v80h448v-80h-448z" />
<glyph unicode="&#x2013;" horiz-adv-x="829" d="M-4 498v80h838v-80h-838z" />
<glyph unicode="&#x2014;" horiz-adv-x="1718" d="M45 498v80h1628v-80h-1628z" />
<glyph unicode="&#x2018;" horiz-adv-x="442" d="M98 1124q0 134 88 222q28 28 59.5 50.5t48.5 31.5l17 8l41 -41q-57 -37 -88 -68q-60 -60 -57 -133q8 2 24 2q45 0 79 -35.5t34 -81.5q0 -49 -33.5 -81.5t-83.5 -32.5q-56 0 -92.5 38t-36.5 121z" />
<glyph unicode="&#x2019;" horiz-adv-x="442" d="M90 1012q57 36 88 67q61 61 58 133q-9 -2 -25 -2q-45 0 -79 35.5t-34 81.5q0 49 33.5 82t83.5 33q55 0 92 -38.5t37 -121.5q0 -133 -88 -221q-28 -28 -59 -50.5t-49 -30.5l-17 -9z" />
<glyph unicode="&#x201a;" horiz-adv-x="442" d="M90 -221q57 36 88 67q61 61 58 134q-9 -3 -25 -3q-45 0 -79 35.5t-34 81.5q0 49 33.5 82t83.5 33q55 0 92 -38.5t37 -121.5q0 -133 -88 -221q-28 -28 -59 -50.5t-49 -31.5l-17 -8z" />
<glyph unicode="&#x201c;" horiz-adv-x="765" d="M98 1124q0 134 88 222q28 28 59.5 50.5t48.5 31.5l17 8l41 -41q-57 -37 -88 -68q-60 -60 -57 -133q8 2 24 2q45 0 79 -35.5t34 -81.5q0 -49 -33.5 -81.5t-83.5 -32.5q-56 0 -92.5 38t-36.5 121zM422 1124q0 134 88 222q28 28 59.5 50.5t48.5 31.5l17 8l41 -41 q-57 -37 -88 -68q-61 -61 -58 -133q9 2 25 2q45 0 79 -35.5t34 -81.5q0 -49 -33.5 -81.5t-83.5 -32.5q-56 0 -92.5 38t-36.5 121z" />
<glyph unicode="&#x201d;" horiz-adv-x="765" d="M90 1012q57 36 88 67q61 61 58 133q-9 -2 -25 -2q-45 0 -79 35.5t-34 81.5q0 49 33.5 82t83.5 33q55 0 92 -38.5t37 -121.5q0 -133 -88 -221q-28 -28 -59 -50.5t-49 -30.5l-17 -9zM414 1012q57 36 88 67q60 60 57 133q-8 -2 -24 -2q-45 0 -79 35.5t-34 81.5q0 49 33.5 82 t83.5 33q55 0 92 -38.5t37 -121.5q0 -133 -88 -221q-28 -28 -59 -50.5t-49 -30.5l-17 -9z" />
<glyph unicode="&#x201e;" horiz-adv-x="765" d="M90 -221q57 36 88 67q61 61 58 134q-9 -3 -25 -3q-45 0 -79 35.5t-34 81.5q0 49 33.5 82t83.5 33q55 0 92 -38.5t37 -121.5q0 -133 -88 -221q-28 -28 -59 -50.5t-49 -31.5l-17 -8zM414 -221q57 36 88 67q60 60 57 134q-8 -3 -24 -3q-45 0 -79 35.5t-34 81.5q0 49 33.5 82 t83.5 33q55 0 92 -38.5t37 -121.5q0 -133 -88 -221q-28 -28 -59.5 -50.5t-48.5 -31.5l-17 -8z" />
<glyph unicode="&#x2022;" horiz-adv-x="487" d="M90 616q0 66 44 111t110 45t110.5 -45t44.5 -111t-44.5 -110.5t-110.5 -44.5t-110 44.5t-44 110.5z" />
<glyph unicode="&#x2026;" horiz-adv-x="1273" d="M92 94q0 52 35 87.5t88 35.5q52 0 86.5 -35t34.5 -88t-34.5 -88t-86.5 -35q-53 0 -88 35.5t-35 87.5zM514 94q0 52 35 87.5t88 35.5t88 -35.5t35 -87.5t-35 -87.5t-88 -35.5t-88 35.5t-35 87.5zM938 94q0 53 34.5 88t86.5 35q53 0 88 -35.5t35 -87.5t-35 -87.5t-88 -35.5 q-52 0 -86.5 35t-34.5 88z" />
<glyph unicode="&#x202f;" horiz-adv-x="358" />
<glyph unicode="&#x2039;" horiz-adv-x="614" d="M78 477l422 395l37 -36l-275 -359l275 -358l-37 -37z" />
<glyph unicode="&#x203a;" horiz-adv-x="614" d="M78 119l276 358l-276 359l39 36l420 -395l-420 -395z" />
<glyph unicode="&#x205f;" horiz-adv-x="448" />
<glyph unicode="&#x20ac;" horiz-adv-x="1224" d="M-4 502v82h170v30q0 89 8 152h-178v82h190q23 109 67 200.5t111 164.5t164.5 114t216.5 41q143 0 247.5 -46.5t170.5 -117.5v-219h-123q-9 84 -38.5 147.5t-71.5 99.5t-89 53.5t-98 17.5q-98 0 -172.5 -35t-120 -98.5t-70 -143.5t-30.5 -178h486v-82h-488q0 -94 12 -182 h476v-82h-463q19 -96 50.5 -175t76.5 -142t108 -98.5t137 -35.5q209 0 338 150l60 -51q-151 -173 -398 -173q-111 0 -202.5 29t-154.5 78t-109.5 117t-71.5 142.5t-35 158.5h-176z" />
<glyph unicode="&#x2122;" horiz-adv-x="1165" d="M51 1188v153h412v-153h-47l-39 104h-78v-434h70v-49h-222v49h68v434h-78q-8 -17 -21.5 -53t-19.5 -51h-45zM506 809v49h59v434h-59v49h149l156 -403l152 403h151v-49h-59v-434h59v-49h-209v49h62v336q-44 -114 -142 -383l-57 -2l-147 389v-340h59v-49h-174z" />
<glyph unicode="&#xe000;" horiz-adv-x="921" d="M0 0v922h922v-922h-922z" />
<glyph unicode="&#xfb01;" horiz-adv-x="1269" d="M57 0v61h150v801h-150v62h150v180q0 87 27.5 153.5t73.5 104.5t99 57t109 19q126 0 223 -86l-45 -47q-75 71 -170 71q-164 0 -164 -235v-217h283v-62h-283v-801h199v-61h-502zM717 0v61h166v801h-150v60l303 20v-881h166v-61h-485zM836 1229q0 53 35 88t87 35t87.5 -35 t35.5 -88t-35.5 -88t-87.5 -35t-87 35t-35 88z" />
<glyph unicode="&#xfb02;" horiz-adv-x="1204" d="M57 0v61h150v801h-150v62h150v180q0 87 27.5 153.5t73.5 104.5t99 57t109 19q126 0 223 -86l-45 -47q-75 71 -170 71q-164 0 -164 -235v-217h283v-62h-283v-801h199v-61h-502zM692 1356v57l303 21v-1373h131v-61h-419v61h133v1295h-148z" />
</font>
</defs>
</svg>
