<?xml version="1.0" standalone="no"?>
<!DOCTYPE svg PUBLIC "-//W3C//DTD SVG 1.1//EN" "http://www.w3.org/Graphics/SVG/1.1/DTD/svg11.dtd" >
<svg xmlns="http://www.w3.org/2000/svg">
<metadata></metadata>
<defs>
<font id="catalogitalic" horiz-adv-x="1318" >
<font-face units-per-em="2048" ascent="1536" descent="-512" />
<missing-glyph horiz-adv-x="501" />
<glyph horiz-adv-x="2048" />
<glyph horiz-adv-x="2048" />
<glyph unicode="&#xd;" horiz-adv-x="2048" />
<glyph unicode=" "  horiz-adv-x="501" />
<glyph unicode="&#x09;" horiz-adv-x="501" />
<glyph unicode="&#xa0;" horiz-adv-x="501" />
<glyph unicode="!" horiz-adv-x="483" d="M92 94q9 53 50.5 88t93.5 35q50 0 78.5 -35.5t19.5 -87.5t-51 -87.5t-93 -35.5q-50 0 -78.5 35.5t-19.5 87.5zM221 430l125 920h176l-196 -920h-105z" />
<glyph unicode="&#x22;" horiz-adv-x="577" d="M240 1014l73 428h148l-172 -428h-49zM487 1014l70 428h150l-175 -428h-45z" />
<glyph unicode="#" horiz-adv-x="1271" d="M96 -53l248 499h-242l15 82h266l162 332h-322l15 82h346l227 463h86l-227 -463h317l227 463h86l-227 -463h248l-14 -82h-273l-164 -332h330l-14 -82h-355l-247 -499h-84l248 499h-320l-246 -499h-86zM467 528h319l162 332h-317z" />
<glyph unicode="$" horiz-adv-x="991" d="M68 119l38 246h119q-10 -171 46.5 -245.5t172.5 -74.5q120 0 201.5 68t102.5 180q9 55 -7.5 103t-50.5 75q-24 19 -181 133t-181 133q-139 104 -105 303q24 134 137 225t279 101l29 160h71l-28 -158q108 -6 192.5 -41t128.5 -92l-43 -248h-123q16 179 -34 247.5 t-168 68.5q-121 0 -193.5 -67.5t-87.5 -166.5q-16 -108 63 -166l351 -254q155 -113 118 -315q-24 -144 -145.5 -244t-296.5 -110l-29 -156h-71l26 153q-125 6 -211 45.5t-120 96.5z" />
<glyph unicode="%" horiz-adv-x="1390" d="M188 995q28 168 119.5 261.5t200.5 93.5q110 0 168 -89.5t29 -265.5q-31 -171 -122 -263.5t-200 -92.5q-110 0 -168.5 90.5t-26.5 265.5zM296.5 886q-3.5 -48 2 -92.5t29.5 -69t65 -24.5q42 0 75 26t54.5 72.5t35 92.5t24.5 104q55 293 -86 293q-135 0 -185 -293 q-11 -61 -14.5 -109zM332 -53l768 1458h86l-766 -1458h-88zM829 356q31 169 122 262t198 93q112 0 170.5 -89t26.5 -266q-28 -170 -119 -263t-201 -93q-108 0 -167 91t-30 265zM939.5 247.5q-2.5 -45.5 3 -91t29.5 -69.5t66 -24q41 0 74 26t54.5 71.5t35 93t21.5 102.5 q56 295 -84 295q-42 0 -74.5 -25.5t-54 -72t-34.5 -92t-24 -105.5q-10 -63 -12.5 -108.5z" />
<glyph unicode="&#x26;" horiz-adv-x="1175" d="M96 295q0 159 99 284t233 154q-115 73 -115 221q0 180 121.5 297t296.5 117q101 0 189.5 -34t130.5 -93l-39 -233h-117q4 54 4 75q0 123 -45 172.5t-135 49.5q-63 0 -112.5 -30t-79 -81t-44 -111.5t-14.5 -126.5q0 -95 39 -153t121 -58l-11 -59h-22q-100 0 -174.5 -59 t-110 -149.5t-35.5 -196.5q0 -117 62 -175.5t166 -58.5q78 0 141.5 30t102 78.5t59 106.5t20.5 117q0 120 -65 145h-125l10 62h455l-10 -62h-129q36 -42 36 -139q0 -79 -36 -152t-100 -130t-161 -91.5t-210 -34.5q-64 0 -121.5 11t-108 35.5t-87.5 61t-58 90.5t-21 120z" />
<glyph unicode="'" horiz-adv-x="331" d="M240 1014l73 428h148l-172 -428h-49z" />
<glyph unicode="(" horiz-adv-x="555" d="M217 639q96 539 483 770l27 -29q-120 -88 -222.5 -291t-144.5 -448q-42 -250 -10.5 -451t121.5 -288l-37 -29q-309 233 -217 766z" />
<glyph unicode=")" horiz-adv-x="555" d="M-18 -98q121 88 223 291t143 448q43 250 12 450.5t-122 288.5l34 29q313 -236 220 -770q-95 -532 -486 -766z" />
<glyph unicode="*" horiz-adv-x="948" d="M186 809l367 147l-315 150l90 119l254 -230l22 375h135l-112 -375l336 228l47 -117l-367 -150l315 -147l-86 -119l-258 230l-20 -381h-135l110 381l-336 -232z" />
<glyph unicode="+" horiz-adv-x="997" d="M129 496l12 79h371l68 381h77l-65 -381h371l-13 -79h-370l-68 -377h-78l66 377h-371z" />
<glyph unicode="," horiz-adv-x="442" d="M-6 -221q63 36 100 67q74 63 84 134q-8 -3 -24 -3q-43 0 -71.5 36t-19.5 81q9 50 47 82.5t93 32.5q52 0 82 -43.5t14 -126.5q-14 -70 -46 -118.5t-85 -92.5q-34 -28 -69 -50.5t-53 -31.5l-19 -8z" />
<glyph unicode="-" horiz-adv-x="608" d="M125 498l12 80h441l-13 -80h-440z" />
<glyph unicode="." horiz-adv-x="430" d="M57 94q9 52 51 87.5t95 35.5q50 0 77.5 -35.5t18.5 -87.5q-9 -53 -50 -88t-93 -35q-50 0 -79 35.5t-20 87.5z" />
<glyph unicode="/" horiz-adv-x="845" d="M20 -53l844 1458h84l-844 -1458h-84z" />
<glyph unicode="0" horiz-adv-x="1216" d="M162 438q0 86 18.5 182.5t53.5 195t90.5 188t124 159t160.5 111t194 41.5q164 0 267.5 -110.5t103.5 -321.5q0 -88 -18 -186.5t-52 -200t-89.5 -193.5t-124.5 -164t-162 -114.5t-198 -42.5q-91 0 -162.5 36t-115.5 99t-67 144.5t-23 176.5zM354 459q0 -86 11.5 -156 t37.5 -130t74 -93t115 -33q77 0 139.5 37.5t103.5 103t71 144.5t45.5 172t22.5 175t7 163q0 87 -12 157t-38 128t-73.5 90t-112.5 32q-67 0 -123 -27.5t-95.5 -74t-70.5 -111.5t-50 -134.5t-31 -149.5t-16.5 -150.5t-4.5 -142.5z" />
<glyph unicode="1" horiz-adv-x="901" d="M160 0l12 72h186l179 1044l-209 -121l-29 64l391 239h37l-211 -1226h186l-14 -72h-528z" />
<glyph unicode="2" horiz-adv-x="1003" d="M55 0l13 68l434 421q142 137 228.5 274.5t86.5 256.5q0 95 -54 153t-147 58q-90 0 -179 -48t-152 -130l-68 43q88 111 197 168t225 57q69 0 131 -18.5t113 -53.5t81.5 -93.5t30.5 -131.5q0 -63 -19.5 -122t-48 -104t-80 -99t-94.5 -92t-114.5 -100t-118.5 -106l-254 -241 h598l-28 -160h-781z" />
<glyph unicode="3" horiz-adv-x="1015" d="M12 145l78 60q78 -129 285 -129q46 0 92.5 12.5t93.5 41t83 70.5t58.5 106.5t22.5 142.5q0 94 -56 145t-157 51h-66l15 64q44 0 92 13t96 41.5t86 67.5t62 97t24 125q0 84 -49.5 127t-130.5 43q-190 0 -330 -162l-63 45q90 104 196 157.5t218 53.5q65 0 123 -16.5 t105 -48t75 -84t28 -119.5q0 -108 -74.5 -211t-187.5 -148q180 -65 180 -229q0 -93 -36.5 -173.5t-95.5 -135.5t-133 -94.5t-148.5 -57.5t-143.5 -18q-238 0 -342 163z" />
<glyph unicode="4" horiz-adv-x="1150" d="M96 299l13 84l794 915h98l-155 -862h225l-22 -137h-226l-49 -299h-151l47 299h-574zM244 436h450l117 651z" />
<glyph unicode="5" horiz-adv-x="1056" d="M109 145l71 60q80 -131 277 -131q55 0 111.5 23t108.5 67.5t85 123.5t33 179q0 98 -59 153.5t-161 55.5h-303l183 622h600l-29 -159h-539l-90 -322h207q78 0 141.5 -17t114.5 -52.5t79 -97t28 -144.5q0 -101 -32.5 -188.5t-86 -148.5t-122.5 -104.5t-142 -64t-144 -20.5 q-226 0 -331 165z" />
<glyph unicode="6" horiz-adv-x="1124" d="M182 424q-2 73 13 147q25 143 77.5 266t120.5 210t148 148.5t162 91.5t161 30q188 0 295 -152l-72 -55q-68 117 -237 117q-108 0 -200 -74.5t-151 -191t-91 -263.5q31 51 121.5 101.5t187.5 50.5q88 0 159.5 -26.5t123 -78.5t71 -139t0.5 -200q-21 -120 -99.5 -220 t-187 -154.5t-219.5 -54.5q-77 0 -140.5 23.5t-107 64.5t-75.5 97.5t-45 122.5t-15 139zM362 337q5 -87 26 -152.5t70 -103.5t122 -38q107 0 200 102.5t119 257.5q31 180 -25 275.5t-172 95.5q-88 0 -185.5 -66.5t-143.5 -185.5q-16 -98 -11 -185z" />
<glyph unicode="7" horiz-adv-x="960" d="M193 971l57 327h815l-12 -71l-691 -1227h-104l645 1141h-536l-107 -170h-67z" />
<glyph unicode="8" horiz-adv-x="1153" d="M150 279q0 156 94.5 267.5t230.5 147.5q-67 21 -116.5 90t-49.5 154q0 15 4 47q16 94 62.5 164t112 109t136.5 57t148 18q68 0 127 -14.5t109 -45t79 -85.5t29 -129q0 -126 -82 -230t-188 -135q92 -27 149.5 -100t57.5 -176q0 -93 -33 -170.5t-86 -128.5t-122 -86 t-139 -50.5t-138 -15.5q-79 0 -146.5 18t-122 54.5t-85.5 98t-31 141.5zM324 268q0 -118 60 -176.5t163 -58.5q60 0 117 23.5t106 69.5t79 124.5t30 177.5q0 103 -57.5 165t-166.5 62q-151 0 -241 -111.5t-90 -275.5zM471 928q0 -93 53 -149t142 -56q119 0 203.5 95.5 t84.5 236.5q0 102 -52.5 156.5t-141.5 54.5q-53 0 -103.5 -22t-92.5 -63t-67.5 -107t-25.5 -146z" />
<glyph unicode="9" horiz-adv-x="1126" d="M166 129l70 55q65 -108 241 -108q78 0 146.5 41t121 113.5t91.5 164.5t63 201q-33 -51 -123.5 -101.5t-185.5 -50.5q-89 0 -161 26.5t-123.5 79t-71.5 139.5t-1 200q21 120 100 219.5t187 154t219 54.5q77 0 140.5 -23.5t107.5 -64.5t75.5 -97.5t44.5 -123t15.5 -139.5 t-12.5 -148q-30 -177 -100 -321.5t-160 -235t-190 -139t-199 -48.5q-191 0 -295 152zM406 891q-31 -181 24.5 -276t171.5 -95q56 0 117.5 26.5t122 86.5t92.5 141q15 98 9.5 185t-26.5 152t-70 102.5t-122 37.5q-106 0 -199 -102.5t-120 -257.5z" />
<glyph unicode=":" horiz-adv-x="430" d="M63 94q9 52 51 87.5t93 35.5t78 -35t18 -88q-7 -52 -48.5 -87.5t-92.5 -35.5t-79.5 35.5t-19.5 87.5zM188 803q6 52 48 87.5t94 35.5q49 0 77.5 -35t20.5 -88q-11 -53 -50.5 -88t-90.5 -35t-80 35.5t-19 87.5z" />
<glyph unicode=";" horiz-adv-x="442" d="M-2 -221q63 36 100 67q74 63 84 134q-8 -3 -24 -3q-43 0 -71 36t-19 81q9 51 47 83t92 32q52 0 82 -43.5t14 -126.5q-14 -70 -46 -118.5t-85 -92.5q-34 -28 -69 -50.5t-53 -31.5l-19 -8zM184 803q7 52 49.5 86.5t94.5 34.5q49 0 76.5 -34t19.5 -87q-11 -53 -50 -88 t-91 -35q-50 0 -78 35.5t-21 87.5z" />
<glyph unicode="&#x3c;" horiz-adv-x="997" d="M127 492l16 88l879 329l-14 -86l-772 -286l671 -289l-16 -86z" />
<glyph unicode="=" horiz-adv-x="997" d="M104 367l15 82h821l-14 -82h-822zM150 629l16 82h821l-16 -82h-821z" />
<glyph unicode="&#x3e;" horiz-adv-x="997" d="M68 162l16 86l766 289l-666 286l15 86l766 -329l-17 -88z" />
<glyph unicode="?" horiz-adv-x="958" d="M199 989l45 246q67 62 174.5 99.5t226.5 37.5q160 0 252 -75t92 -195q0 -29 -4 -56.5t-9 -49.5t-16 -45t-18.5 -38.5t-24 -35.5t-25 -30.5t-28.5 -29.5t-28 -25.5t-30 -25t-28 -23.5l-170 -145q-47 -41 -76 -79t-38 -89h-91q9 52 22.5 88.5t45 77t56.5 65.5t91.5 88 t114.5 111q51 51 78 125.5t27 134.5q0 80 -49.5 131.5t-153.5 51.5q-122 0 -202.5 -69t-127.5 -245h-106zM272 72q0 14 2 22q9 52 51.5 87.5t94.5 35.5q43 0 70.5 -28t27.5 -72q0 -59 -43.5 -102.5t-101.5 -43.5q-44 0 -72.5 28.5t-28.5 72.5z" />
<glyph unicode="@" horiz-adv-x="1951" d="M117 297q0 141 41.5 279.5t114.5 256t175 219t219 172.5t251.5 111.5t269.5 40.5q162 0 299 -52t231 -142.5t146.5 -215.5t52.5 -268q0 -134 -48 -268t-124.5 -234.5t-178 -163.5t-202.5 -63q-210 0 -213 150q-145 -142 -317 -142q-148 0 -215.5 71t-67.5 188 q0 80 26.5 175t79.5 189.5t123.5 171.5t168 125.5t202.5 48.5q81 0 134 -29t73 -75l26 84h154l-219 -674q-19 -62 -19 -105q0 -48 22.5 -74t66.5 -26q107 0 210.5 96.5t166.5 244.5t63 294q0 131 -46.5 245t-130.5 198t-207.5 132t-270.5 48q-181 0 -358.5 -82t-311 -216.5 t-216.5 -319t-83 -378.5q0 -195 86 -354t241.5 -250.5t350.5 -91.5q145 0 294.5 56t249.5 155l46 -53q-118 -106 -281.5 -168t-323.5 -62q-163 0 -303.5 58t-238.5 158.5t-153.5 240.5t-55.5 299zM727 242q0 -193 137 -193q99 0 186.5 61.5t127.5 184.5l108 336q19 62 19 98 q0 77 -49.5 112.5t-125.5 35.5q-91 0 -170 -63.5t-128 -160t-77 -205.5t-28 -206z" />
<glyph unicode="A" horiz-adv-x="1296" d="M-39 0l12 74h166l664 1276h90l223 -1276h117l-12 -74h-416l12 74h125l-76 422h-422l-221 -422h166l-12 -74h-416zM483 575h367l-92 529z" />
<glyph unicode="B" horiz-adv-x="1214" d="M16 0l13 74h176l209 1202h-176l14 74h631q128 0 205 -78t77 -197q0 -100 -62.5 -194.5t-162.5 -141.5q88 -27 140.5 -99.5t52.5 -176.5q0 -194 -140 -328.5t-342 -134.5h-635zM373 74h260q50 0 105 25.5t102.5 70.5t78.5 117.5t31 156.5q0 100 -57.5 166t-155.5 66h-258z M492 758h231q108 0 189 88t81 225q0 96 -52 150.5t-128 54.5h-231z" />
<glyph unicode="C" horiz-adv-x="1140" d="M135 461q0 112 28 233.5t89 242t145 216.5t206.5 155.5t264.5 59.5q143 0 239.5 -46.5t149.5 -117.5l-43 -219h-124q2 16 2 47q0 72 -20 126t-54.5 84.5t-75 45.5t-86.5 15q-93 0 -171 -32t-135 -89t-100 -132t-68.5 -164.5t-38.5 -182t-13 -189.5q0 -96 16.5 -176 t51 -144t93 -99.5t136.5 -35.5q76 0 153.5 33.5t148 105.5t109.5 169h78q-62 -168 -207 -279t-309 -111q-127 0 -220 39t-145 108t-76 152.5t-24 184.5z" />
<glyph unicode="D" horiz-adv-x="1355" d="M18 0l13 74h176l209 1202h-176l14 74h631q125 0 217.5 -36.5t146.5 -103.5t79.5 -151.5t25.5 -188.5q0 -91 -18.5 -188t-54.5 -195.5t-95.5 -185.5t-134.5 -154.5t-178.5 -107t-221.5 -39.5h-633zM379 74h283q85 0 160 36.5t130 99.5t98.5 144t70.5 173t41 183.5 t14 178.5q0 180 -75.5 283.5t-230.5 103.5h-282z" />
<glyph unicode="E" horiz-adv-x="1144" d="M16 0l13 74h176l209 1202h-176l14 74h989l-63 -361h-74l-57 287h-465l-90 -518h323l27 147h92l-64 -377h-92l25 148h-324l-104 -602h481l156 286h71l-61 -360h-1006z" />
<glyph unicode="F" horiz-adv-x="1128" d="M16 0l13 74h176l209 1202h-176l14 74h989l-63 -361h-74l-57 287h-465l-90 -518h323l27 147h92l-64 -377h-92l25 148h-324l-104 -602h176l-12 -74h-523z" />
<glyph unicode="G" horiz-adv-x="1316" d="M137 479q0 116 28.5 238.5t88.5 239t142.5 208t200.5 147.5t253 56q140 0 243 -47.5t154 -116.5l-37 -219h-123q0 7 1.5 20.5t1.5 20.5q0 73 -22 128.5t-59.5 86.5t-80 46.5t-88.5 15.5q-108 0 -195.5 -45.5t-144.5 -120.5t-95 -177.5t-54.5 -211t-16.5 -226.5 q0 -100 16 -183.5t49 -151.5t90.5 -106t133.5 -38q124 0 222 87.5t118 215.5l28 150h-227l14 73h514l-14 -73h-115l-86 -496h-172l21 119q-41 -54 -125 -98t-191 -44q-104 0 -185.5 27t-135 73t-88.5 111.5t-49.5 137t-14.5 153.5z" />
<glyph unicode="H" horiz-adv-x="1370" d="M18 0l13 74h145l209 1202h-145l14 74h451l-15 -74h-137l-90 -522h614l90 522h-135l15 74h450l-14 -74h-146l-209 -1202h146l-12 -74h-451l12 74h135l105 600h-614l-105 -600h137l-12 -74h-451z" />
<glyph unicode="I" horiz-adv-x="688" d="M12 0l13 74h198l209 1202h-199l15 74h573l-14 -74h-207l-209 -1202h207l-12 -74h-574z" />
<glyph unicode="J" horiz-adv-x="681" d="M-229 -383l61 53q67 -67 170 -67q65 0 107.5 58t62.5 161l254 1454h-201l13 74h573l-12 -74h-209h4l-246 -1399q-29 -169 -132 -255.5t-228 -86.5q-67 0 -124 23t-93 59z" />
<glyph unicode="K" d="M10 0l15 74h147l211 1202h-150l15 74h485l-14 -74h-162l-92 -528h31l622 528h-151l14 74h440l-14 -74h-172l-586 -506l479 -696h152l-14 -74h-525l15 74h153l-397 590h-61l-105 -590h162l-14 -74h-484z" />
<glyph unicode="L" horiz-adv-x="1124" d="M10 0l13 74h178l207 1202h-177l15 74h532l-14 -74h-186l-209 -1202h495l156 286h74l-64 -360h-1020z" />
<glyph unicode="M" horiz-adv-x="1658" d="M23 0l12 74h160l208 1200h-159l12 76h340l238 -1117l612 1117h336l-15 -76h-155l-209 -1200h156l-11 -74h-485l12 74h158l184 1056l-618 -1128h-90l-2 -2l-240 1139l-186 -1065h155l-12 -74h-401z" />
<glyph unicode="N" horiz-adv-x="1312" d="M18 0l13 74h159l209 1200h-159l14 76h326l426 -1006l163 930h-163l14 76h420l-15 -76h-168l-221 -1274h-92l-481 1137l-187 -1063h173l-13 -74h-418z" />
<glyph unicode="O" d="M137 475q0 113 28 234.5t88 239.5t142 211t200.5 150.5t254.5 57.5q101 0 181.5 -27t133.5 -73.5t88.5 -111t50.5 -136.5t15 -154q0 -93 -20.5 -193t-59 -199.5t-100.5 -189t-138 -158t-178 -109t-215 -40.5q-127 0 -221 39.5t-147 110.5t-78 157.5t-25 190.5zM336 520 q0 -100 16 -183.5t48.5 -150.5t89 -105t131.5 -38q106 0 191 41.5t142 117t93.5 169.5t56.5 211q22 129 22 243q0 100 -16.5 184t-50.5 151t-91 105t-132 38q-90 0 -165.5 -31.5t-129 -88t-94 -130.5t-64.5 -163t-35.5 -181t-11.5 -189z" />
<glyph unicode="P" horiz-adv-x="1144" d="M16 0l13 74h159l209 1202h-159l14 74h584q169 0 252 -78t83 -203q0 -88 -34 -168t-93.5 -140.5t-146.5 -96t-188 -35.5h-254l-99 -555h162l-12 -74h-490zM467 707h231q113 0 199 103.5t86 252.5q0 98 -49 155.5t-137 57.5h-232z" />
<glyph unicode="Q" d="M137 473q0 112 28 233t88 239.5t142 212.5t200.5 152t254.5 58q126 0 219.5 -40.5t147 -111.5t79 -157.5t25.5 -188.5q0 -124 -36 -257t-102 -256t-173 -220.5t-236 -138.5l60 -133q40 -90 74.5 -129t97.5 -39q106 0 204 82l35 -53q-50 -42 -117 -70.5t-135 -28.5 q-80 0 -142.5 17.5t-101.5 47.5t-61.5 58.5t-36.5 61.5l-71 163q-96 4 -172.5 32t-126.5 74t-83 109t-47 133t-14 150zM336 520q0 -100 16 -183.5t48.5 -150.5t89 -105t131.5 -38q105 0 190.5 43t143 116.5t97 173.5t57 211.5t17.5 233.5q0 100 -16 184t-49 151.5t-90 105.5 t-133 38q-94 0 -172.5 -34.5t-132 -95.5t-93 -137t-61.5 -165.5t-32.5 -175t-10.5 -172.5z" />
<glyph unicode="R" horiz-adv-x="1245" d="M16 0l15 74h155l207 1202h-157l14 74h581q171 0 253.5 -77t82.5 -204q0 -158 -100.5 -280t-263.5 -152l254 -563h157l-12 -74h-309l-281 629h-157l-99 -555h160l-14 -74h-486zM465 707h231q113 0 199 104.5t86 253.5q0 97 -49.5 154t-136.5 57h-232z" />
<glyph unicode="S" horiz-adv-x="999" d="M68 119l41 246h118q-2 -14 -2 -43q0 -148 57 -212.5t167 -64.5q131 0 220 83t89 210q0 98 -60 149q-26 22 -186 138t-172 125q-56 44 -88.5 96t-32.5 131q0 165 131 278t332 113q119 0 212.5 -35.5t141.5 -97.5l-43 -248h-123q4 58 4 78q0 133 -51.5 185.5t-156.5 52.5 q-130 0 -207.5 -79.5t-77.5 -185.5q0 -44 19 -84.5t53 -64.5q301 -217 346 -250q127 -92 127 -236q0 -177 -137.5 -301.5t-352.5 -124.5q-137 0 -232 40t-136 102z" />
<glyph unicode="T" horiz-adv-x="1157" d="M195 989l65 361h1022l-65 -361h-72l-58 287h-245l-209 -1202h174l-12 -74h-521l13 74h176l209 1202h-248l-156 -287h-73z" />
<glyph unicode="U" horiz-adv-x="1294" d="M227 1276l15 74h495l-14 -74h-162l-160 -907q-6 -34 -5 -65q0 -90 46 -156q64 -88 181 -89q136 0 248 81.5t137 226.5l159 909h-170l15 74h426l-15 -74h-163l-160 -907q-29 -176 -163.5 -284t-328.5 -108q-194 -1 -299 109q-82 86 -82 211q0 34 6 72l158 907h-164z" />
<glyph unicode="V" horiz-adv-x="1353" d="M201 1276l12 74h508l-10 -74h-170l180 -1030l539 1030h-218l13 74h481l-12 -74h-181l-661 -1274h-92l-223 1274h-166z" />
<glyph unicode="W" horiz-adv-x="2000" d="M205 1276l14 74h516l-14 -74h-170l141 -995l479 1060h84l154 -1060l471 995h-199l15 74h481l-14 -74h-197l-606 -1276h-92l-146 1047l-477 -1047h-92l-182 1276h-166z" />
<glyph unicode="X" horiz-adv-x="1384" d="M-35 0l10 74h207l492 598l-281 604h-178l14 74h527l-15 -74h-151l215 -463l375 463h-185l15 74h481l-12 -74h-203l-436 -539l311 -663h149l-12 -74h-547l13 74h200l-245 524l-428 -524h211l-13 -74h-514z" />
<glyph unicode="Y" horiz-adv-x="1218" d="M207 1276l14 74h504l-14 -74h-168l180 -584l397 584h-200l14 74h448l-14 -74h-164l-446 -655l-94 -547h200l-12 -74h-565l12 74h197l86 493l-222 709h-153z" />
<glyph unicode="Z" horiz-adv-x="1118" d="M16 0l15 76l981 1200h-547l-160 -287h-72l64 361h932l-15 -74l-981 -1202h611l157 286h72l-61 -360h-996z" />
<glyph unicode="[" horiz-adv-x="481" d="M43 -375l311 1817h340l-12 -74h-207l-289 -1669h207l-12 -74h-338z" />
<glyph unicode="\" horiz-adv-x="702" d="M252 1405h88l258 -1458h-88z" />
<glyph unicode="]" horiz-adv-x="479" d="M-109 -375l13 74h202l289 1669h-207l13 74h340l-316 -1817h-334z" />
<glyph unicode="^" horiz-adv-x="831" d="M-4 586l483 837h86l162 -837h-84l-135 731l-422 -731h-90z" />
<glyph unicode="_" horiz-adv-x="937" d="M-45 -254l14 80h822l-15 -80h-821z" />
<glyph unicode="`" horiz-adv-x="468" d="M180 1249l125 111l225 -301h-88z" />
<glyph unicode="a" horiz-adv-x="1073" d="M109 330q0 77 19.5 160.5t60.5 164.5t97.5 145.5t139 104t176.5 39.5q155 0 219 -104l19 84h151l-141 -822q-3 -22 6.5 -36.5t28.5 -14.5q17 0 50.5 13.5t37.5 19.5l16 -49q-9 -7 -24 -17t-59 -26.5t-85 -16.5q-35 0 -60.5 11t-38 25.5t-20 32.5t-9 27t-1.5 15 q-97 -109 -256 -109q-89 0 -154.5 28.5t-102 79t-53.5 111.5t-17 134zM283 348q0 -86 16 -151t56 -107.5t102 -42.5q100 0 174 60.5t96 185.5l57 338q7 40 7 61q0 95 -58 140t-141 45q-81 0 -143 -47t-97 -125.5t-52 -168.5t-17 -188z" />
<glyph unicode="b" horiz-adv-x="1054" d="M111 0l231 1354h-143l10 59l299 21l-105 -594q46 46 114.5 75t150.5 29q90 0 157.5 -26.5t107 -74.5t58.5 -108.5t19 -134.5q0 -78 -21 -162.5t-63.5 -166.5t-101 -147.5t-141 -106t-175.5 -40.5q-94 0 -147.5 29.5t-86.5 83.5l-14 -90h-149zM303 231q0 -88 62 -136 t155 -48q81 0 143.5 46.5t98.5 125.5t54 172t18 195q0 132 -44.5 210t-136.5 78q-46 0 -89 -12.5t-83.5 -39.5t-70.5 -76t-43 -115l-60 -352q-4 -16 -4 -48z" />
<glyph unicode="c" horiz-adv-x="929" d="M106 328q0 72 18.5 153t59 164t97.5 149t143 108t186 42q160 0 238.5 -70t83.5 -188h-184v23q0 77 -37 125.5t-103 48.5q-80 0 -143.5 -45t-101.5 -119t-58 -163t-20 -183q0 -140 48.5 -229t149.5 -89t188.5 73t127.5 177l63 -2q-45 -140 -156 -233t-257 -93 q-88 0 -156 29t-107.5 79.5t-59.5 111.5t-20 131z" />
<glyph unicode="d" horiz-adv-x="1058" d="M113 328q0 78 19 161t59.5 164.5t97 146t139 104.5t178.5 40q81 0 138 -29t85 -75l91 514h-146l10 59l301 21l-247 -1434h-152l14 86q-101 -109 -262 -109q-88 0 -153 28t-101.5 78t-53.5 111t-17 134zM285 344q0 -84 16.5 -148.5t56.5 -106.5t101 -42q101 0 177.5 61 t98.5 185l58 338q6 35 6 61q0 95 -59.5 140t-143.5 45q-83 0 -145.5 -47.5t-97.5 -127t-51.5 -169.5t-16.5 -189z" />
<glyph unicode="e" horiz-adv-x="964" d="M109 334q0 75 20 156.5t62.5 162.5t101 146t144.5 105t184 40q156 0 236.5 -81.5t80.5 -225.5q0 -88 -18 -141h-625q-10 -46 -10 -113q0 -88 20 -159.5t69 -120t120 -48.5q59 0 114.5 26t94.5 66t65.5 80.5t40.5 77.5l63 -2q-11 -38 -29.5 -77t-53.5 -85t-79 -81 t-109.5 -58.5t-141.5 -24.5q-86 0 -154.5 29.5t-110.5 79.5t-63.5 113.5t-21.5 134.5zM307 563h432q23 102 23 146q0 86 -33.5 130t-110.5 44q-121 0 -199.5 -88.5t-111.5 -231.5z" />
<glyph unicode="f" horiz-adv-x="657" d="M-256 -377l57 53q66 -73 160 -73q152 0 191 223l176 1036h-146l11 62h147l33 184q15 87 53 153t89.5 103.5t106 55.5t109.5 18q131 0 209 -82l-59 -53q-62 73 -160 73q-77 0 -124.5 -55t-68.5 -176l-36 -221h276l-12 -62h-277l-172 -991q-15 -87 -53 -153t-89.5 -103.5 t-106 -55.5t-109.5 -18q-130 0 -205 82z" />
<glyph unicode="g" horiz-adv-x="1054" d="M-27 -244q0 55 18.5 105t46 83t53.5 53.5t46 27.5q-7 4 -18 12.5t-26 36t-15 61.5q0 72 54 127.5t130 67.5q-82 67 -82 192q0 184 125 303t307 119q173 0 250 -94h223l-12 -70h-174q16 -58 16 -100q0 -119 -60.5 -213.5t-159 -145.5t-214.5 -51q-75 0 -137 19 q-81 -7 -118.5 -47t-37.5 -88q0 -41 31.5 -67t87.5 -26h68l-10 -61h-82q-66 -21 -111 -96t-45 -152q0 -86 55 -136t160 -50q134 0 224.5 81t90.5 201q0 54 -23.5 97t-62.5 55h-94l10 61h437l-11 -61h-153q55 -55 55 -139q0 -150 -138 -256.5t-347 -106.5q-175 0 -266 71 t-91 187zM336 532q0 -91 39 -146.5t121 -55.5q84 0 144.5 50.5t88 127t27.5 166.5q0 95 -41.5 153t-126.5 58q-63 0 -113 -31t-79.5 -82.5t-44.5 -112.5t-15 -127z" />
<glyph unicode="h" horiz-adv-x="1064" d="M8 0l8 61h127l226 1295h-144l13 57l297 21l-105 -592q45 47 116 75.5t156 28.5q73 0 125.5 -17.5t81 -46.5t41.5 -71q13 -40 12 -82q0 -44 -10 -100l-98 -568h127l-8 -61h-410l8 61h131l99 568q9 50 9 90q0 59 -20 95q-34 60 -126 60q-29 0 -58.5 -5.5t-64 -22 t-62.5 -41.5t-51.5 -67.5t-32.5 -96.5l-100 -580h129l-8 -61h-408z" />
<glyph unicode="i" horiz-adv-x="567" d="M8 0l10 61h162l139 801h-147l12 60l299 20l-151 -881h162l-11 -61h-475zM336 1229q9 52 50.5 87.5t94.5 35.5q50 0 78 -36q21 -27 21 -63q0 -12 -2 -24q-9 -53 -50.5 -88t-93.5 -35q-50 0 -78 36q-22 27 -22 63q0 12 2 24z" />
<glyph unicode="j" horiz-adv-x="579" d="M-274 -377l59 53q58 -73 158 -73q75 0 122 54t68 169l178 1036h-147l12 60l299 20l-184 -1071q-15 -87 -54 -153t-91 -103.5t-106.5 -55.5t-109.5 -18q-129 0 -204 82zM317 1229q9 52 51 87.5t95 35.5q50 0 77 -36q21 -26 21 -62q0 -12 -2 -25q-9 -53 -50 -88t-93 -35 q-50 0 -79 36q-22 27 -22 63q0 12 2 24z" />
<glyph unicode="k" horiz-adv-x="1062" d="M8 0l10 61h146l229 1295h-147l8 57l305 21l-158 -902h29l401 330h-139l10 64h396l-11 -64h-153l-361 -301l340 -500h129l-10 -61h-444l10 61h121l-275 402h-55l-72 -402h127l-10 -61h-426z" />
<glyph unicode="l" horiz-adv-x="532" d="M8 0l8 61h129l226 1295h-146l13 57l299 21l-238 -1373h127l-6 -61h-412z" />
<glyph unicode="m" horiz-adv-x="1525" d="M8 0l8 61h134l137 801h-146l13 60l299 20l-19 -100q41 46 106 74t140 28q182 0 221 -133q52 67 126 100t157 33q233 0 233 -214q0 -45 -10 -101l-98 -568h131l-8 -61h-385l8 61h102l98 568q10 59 10 104q0 51 -13 82q-25 59 -101 59q-32 0 -66 -10t-71 -33t-66 -69 t-41 -109l-104 -592h115l-9 -61h-379l9 61h114l99 568q10 58 10 102q0 51 -14 83q-26 60 -101 60q-26 0 -53 -6t-58.5 -22t-57.5 -41.5t-48 -67.5t-31 -96l-100 -580h107l-9 -61h-389z" />
<glyph unicode="n" horiz-adv-x="1067" d="M8 0l8 61h127l140 801h-129l12 60l280 20l-16 -100q45 46 115 74t155 28q74 0 126.5 -17.5t81 -46t42.5 -70.5q13 -40 12 -82q0 -43 -10 -99l-98 -568h127l-8 -61h-410l8 61h131l99 568q9 50 9 90q0 59 -20 95q-34 60 -128 60q-28 0 -57 -6t-63.5 -22t-62.5 -41.5 t-51.5 -67.5t-32.5 -96l-100 -580h129l-8 -61h-408z" />
<glyph unicode="o" horiz-adv-x="983" d="M111 322q0 74 20.5 157t64 166.5t102.5 150t145 108.5t184 42q89 0 155 -28.5t103.5 -79t55 -110.5t17.5 -132q0 -71 -21.5 -153.5t-66 -165t-104.5 -149.5t-145.5 -109t-180.5 -42q-89 0 -154.5 27.5t-102.5 76.5t-54.5 109t-17.5 132zM289 328q0 -129 39 -209t123 -80 q85 0 151.5 50t104 133t56.5 179.5t19 200.5q0 82 -15.5 143.5t-54 100.5t-96.5 39q-85 0 -150.5 -50t-102.5 -133t-55.5 -178t-18.5 -196z" />
<glyph unicode="p" horiz-adv-x="1042" d="M-106 -438l12 61h141l229 1321h150l-18 -104q104 104 262 104q72 0 129.5 -18.5t96 -50t64 -76t37 -94.5t11.5 -107q0 -80 -20 -165t-62 -166.5t-99.5 -146t-139.5 -104t-175 -39.5q-94 0 -148 29t-85 82l-80 -465h143l-12 -61h-436zM307 231q0 -88 61 -136t154 -48 q82 0 145 46.5t98.5 125.5t53 171t17.5 194q0 132 -44.5 210t-136.5 78q-46 0 -88.5 -12.5t-83 -38.5t-70 -75t-42.5 -115l-60 -355q-4 -32 -4 -45z" />
<glyph unicode="q" horiz-adv-x="1046" d="M111 330q0 79 19.5 162.5t61 164.5t98.5 144.5t139 103t177 39.5q157 0 221 -104l15 71l157 33l-227 -1321h143l-12 -61h-440l12 61h143l80 463q-101 -109 -260 -109q-72 0 -128.5 19t-93 51t-61 77.5t-34.5 96t-10 109.5zM283 344q0 -131 42.5 -214t133.5 -83 q102 0 177 60.5t97 185.5l60 338q6 30 6 59q0 95 -60 139.5t-145 44.5q-82 0 -144.5 -47t-97.5 -126t-52 -169t-17 -188z" />
<glyph unicode="r" horiz-adv-x="731" d="M8 0l10 61h127l138 801h-129l10 60l282 20l-28 -164q51 73 125 119.5t147 46.5q42 0 78.5 -11t51.5 -21l16 -11l-9 -47l-116 -100q-14 25 -43.5 45.5t-67.5 21.5q-77 0 -136.5 -56t-74.5 -142l-96 -562h176l-10 -61h-451z" />
<glyph unicode="s" horiz-adv-x="856" d="M68 78l38 237h87q-7 -51 -7 -75q0 -104 55 -151.5t144 -47.5q91 0 155 52t64 128q0 64 -47 94l-276 183q-93 60 -93 159q0 121 96.5 204t258.5 83q92 0 170 -27.5t110 -70.5l-41 -240h-86q9 50 9 90q0 187 -175 187q-94 0 -147 -54.5t-53 -121.5q0 -54 49 -82l270 -172 q103 -65 103 -172q0 -128 -104.5 -216t-272.5 -88q-112 0 -194.5 29.5t-112.5 71.5z" />
<glyph unicode="t" horiz-adv-x="665" d="M164 246l106 616h-82l9 49l223 205h45l-33 -192h303l-10 -62h-303l-109 -626q-6 -36 -6 -64q0 -125 109 -125q73 0 166 66l34 -54q-109 -82 -233 -82q-227 0 -227 190q0 36 8 79z" />
<glyph unicode="u" horiz-adv-x="1093" d="M156 862l12 62h278l-110 -629q-8 -47 -7 -85q0 -62 20 -100q33 -61 126 -61q28 0 57.5 6t64 22t62.5 41t50.5 68t31.5 97l101 579h-127l12 62h279l-152 -863h129l-10 -59l-281 -20l17 100q-45 -46 -116 -74t-157 -28q-73 0 -125.5 17t-80.5 46.5t-42 69.5q-13 35 -13 75 v11q2 46 9 96l99 567h-127z" />
<glyph unicode="v" horiz-adv-x="942" d="M78 862l12 62h432l-12 -62h-148l146 -649l346 649h-190l12 62h397l-12 -62h-129l-461 -862h-72l-209 862h-112z" />
<glyph unicode="w" horiz-adv-x="1429" d="M78 862l12 62h436l-12 -62h-147l131 -637l342 699h45l131 -699l323 637h-190l12 62h400l-13 -62h-129l-448 -862h-70l-129 645l-313 -645h-74l-192 862h-115z" />
<glyph unicode="x" horiz-adv-x="1046" d="M-12 0l12 63h143l326 396l-190 403h-105l12 62h385l-10 -62h-98l123 -274l229 274h-125l12 62h338l-12 -62h-129l-283 -340l222 -459h135l-10 -63h-453l12 63h133l-155 328l-264 -328h149l-12 -63h-385z" />
<glyph unicode="y" horiz-adv-x="950" d="M-104 -377l51 58q42 -44 66 -58q34 -18 77 -18q56 0 95 39.5t83 117.5l131 242l-198 858h-113l12 62h432l-12 -62h-147l145 -641l344 641h-174l12 62h381l-12 -62h-129l-600 -1112q-62 -112 -119.5 -160.5t-142.5 -48.5q-67 0 -106 20.5t-76 61.5z" />
<glyph unicode="z" horiz-adv-x="899" d="M27 0l12 66l672 796h-344l-127 -231h-56l52 293h669l-10 -60l-672 -801h422l127 234h55l-51 -297h-749z" />
<glyph unicode="{" horiz-adv-x="559" d="M197 670l4 32q79 23 111 59t46 116l48 292q23 122 110 190t191 75l4 -33q-79 -21 -116.5 -69t-53.5 -138l-49 -293q-16 -95 -52 -144t-121 -71q53 -15 77.5 -43t26 -70t-8.5 -102l-49 -293q-14 -91 6.5 -138.5t95.5 -68.5l-18 -32q-104 7 -167 74.5t-40 189.5l51 293 q12 81 -6.5 116t-89.5 58z" />
<glyph unicode="|" horiz-adv-x="321" d="M59 -86l265 1524h82l-265 -1524h-82z" />
<glyph unicode="}" horiz-adv-x="559" d="M53 -29q81 21 118.5 69t51.5 138l49 293q16 95 53 144t124 71q-79 22 -97 70t-2 145l49 293q16 91 -5 138.5t-97 68.5l20 33q103 -7 165.5 -75t39.5 -190l-49 -292q-12 -82 6 -117t88 -58l-4 -32q-79 -23 -110 -58.5t-45 -115.5l-50 -293q-16 -83 -65 -143t-109 -88.5 t-125 -32.5z" />
<glyph unicode="~" horiz-adv-x="927" d="M133 483q31 79 86 132t127 53q38 0 195 -41t200 -41q32 0 64 22.5t43 50.5h47q-75 -184 -207 -184q-42 0 -200.5 41t-200.5 41q-32 0 -64 -23t-41 -51h-49z" />
<glyph unicode="&#xa1;" horiz-adv-x="483" d="M29 -420l194 920h105l-123 -920h-176zM213 827q9 52 51.5 87.5t93.5 35.5q50 0 78 -35.5t19 -87.5t-50 -87t-94 -35q-50 0 -78.5 35t-19.5 87z" />
<glyph unicode="&#xa2;" horiz-adv-x="972" d="M156 517.5q1 60.5 10 123.5q11 71 35 140t63 135.5t88.5 118t117.5 86.5t144 42l33 187h82l-33 -187q127 -11 190 -83t75 -183h-181q-2 90 -38 148.5t-103 58.5q-63 0 -114 -28t-86 -78.5t-57.5 -111.5t-35.5 -136q-18 -86 -13 -171.5t25.5 -153.5t67 -110.5t111.5 -42.5 q60 0 121 33.5t108 87.5l51 -41q-122 -137 -287 -151l-36 -201h-82l37 201q-77 5 -134.5 32.5t-90 70.5t-51 98t-17.5 115.5z" />
<glyph unicode="&#xa3;" horiz-adv-x="1085" d="M2 0l14 76h174l119 692h-162l15 82h160l24 135q18 101 63.5 177.5t110 121t137 66.5t152.5 22q117 0 203 -36t133 -99l-43 -248h-123q17 180 -27 248t-157 68q-108 0 -179 -79t-96 -231l-26 -145h319l-14 -82h-320l-119 -692h439l153 284h72l-61 -360h-961z" />
<glyph unicode="&#xa5;" horiz-adv-x="1259" d="M227 1276l15 74h510l-15 -74h-168l179 -580l393 580h-201l14 74h449l-14 -74h-164l-291 -426h229l-14 -82h-270l-101 -147l-6 -35h342l-14 -82h-340l-76 -430h201l-13 -74h-565l12 74h197l74 430h-342l14 82h332l-55 182h-246l14 82h207l-133 426h-154z" />
<glyph unicode="&#xa6;" horiz-adv-x="831" d="M184 0l99 567h82l-99 -567h-82zM319 782l99 568h82l-99 -568h-82z" />
<glyph unicode="&#xa7;" horiz-adv-x="839" d="M61 80l43 237h84q-51 -268 177 -268q86 0 145.5 41.5t71.5 110.5q9 75 -47 110l-281 189q-114 77 -86 229q12 72 64 129t135 88l-9 6q-52 36 -76 86.5t-8 132.5q18 100 114 167t237 67q90 0 159.5 -27.5t104.5 -72.5l-41 -238h-88q12 81 9.5 132.5t-26 81t-55 41 t-78.5 11.5q-88 0 -138 -41t-60 -102q-8 -65 47 -103l270 -172q122 -75 98 -227q-14 -74 -70 -134t-141 -91l13 -6q123 -76 96 -228q-18 -108 -121 -180t-252 -72q-109 0 -184 29t-107 74zM307 748q-9 -73 51 -113l179 -119q60 13 98 51t49 92q11 72 -45 111l-197 125 q-110 -31 -135 -147z" />
<glyph unicode="&#xa8;" horiz-adv-x="765" d="M260 1231q9 46 46 77t83 31q43 0 69 -31.5t17 -76.5q-7 -45 -44.5 -77t-80.5 -32q-44 0 -70.5 31.5t-19.5 77.5zM639 1231q9 45 46.5 76.5t80.5 31.5q45 0 71 -31.5t17 -76.5q-7 -46 -44 -77.5t-83 -31.5q-43 0 -69 32t-19 77z" />
<glyph unicode="&#xa9;" horiz-adv-x="1482" d="M135 676q23 142 99 270.5t184 221t244 147.5t274 55q139 0 255 -54.5t191 -147.5t106 -221.5t7 -270.5q-25 -141 -101 -269.5t-183 -221.5t-242.5 -148t-274.5 -55q-138 0 -255 55t-192 148t-106.5 221.5t-5.5 269.5zM213 676q-29 -168 26.5 -311t180 -226.5t287.5 -83.5 t317 83.5t260 226.5t135 311q28 168 -28.5 311.5t-181 227t-287.5 83.5t-316.5 -83.5t-259 -227t-133.5 -311.5zM440 575q0 64 18.5 136t57.5 144.5t93 131t131 95t165 36.5q141 0 210.5 -63.5t72.5 -169.5h-166v20q0 70 -32 114t-91 44q-72 0 -130 -41t-93 -108t-53.5 -147 t-18.5 -165q0 -126 47 -206.5t140 -80.5q89 0 164.5 66.5t111.5 161.5l59 -2q-41 -126 -147.5 -210.5t-239.5 -84.5q-80 0 -139.5 26.5t-93.5 73.5t-50 104t-16 125z" />
<glyph unicode="&#xaa;" horiz-adv-x="688" d="M143 823q23 117 176 170l259 82l4 39q18 88 1 133t-83 45q-65 0 -98 -31.5t-35 -84.5l-5 -66h-137q0 28 16 65.5t33 61.5q94 109 234 109q107 0 163.5 -53t33.5 -177l-68 -387q-3 -17 6.5 -23t24.5 -4l49 21l14 -43q-74 -43 -137 -43q-29 0 -48 17t-24 34l-4 17 q-34 -30 -87.5 -49t-98.5 -19q-100 0 -153 46.5t-36 139.5zM272 823q-7 -46 16 -85.5t77 -39.5q77 0 163 80l-4 -2l43 240l-180 -58q-102 -39 -115 -135z" />
<glyph unicode="&#xab;" horiz-adv-x="927" d="M147 477l482 395l30 -36l-331 -359l209 -358l-43 -37zM455 477l481 395l31 -36l-334 -359l211 -358l-43 -37z" />
<glyph unicode="&#xac;" horiz-adv-x="931" d="M29 657l14 80h821l-80 -458h-79l65 378h-741z" />
<glyph unicode="&#xad;" horiz-adv-x="608" d="M125 498l12 80h441l-13 -80h-440z" />
<glyph unicode="&#xae;" horiz-adv-x="1482" d="M135 676q23 142 99 270.5t184 221t244 147.5t274 55q139 0 255 -54.5t191 -147.5t106 -221.5t7 -270.5q-25 -141 -101 -269.5t-183 -221.5t-242.5 -148t-274.5 -55q-138 0 -255 55t-192 148t-106.5 221.5t-5.5 269.5zM213 676q-29 -168 26.5 -311t180 -226.5t287.5 -83.5 t317 83.5t260 226.5t135 311q28 168 -28.5 311.5t-181 227t-287.5 83.5t-316.5 -83.5t-259 -227t-133.5 -311.5zM428 272l12 64h101l121 711h-101l12 61h385q90 0 138.5 -65t33.5 -154q-14 -82 -82.5 -150.5t-150.5 -74.5q24 -56 70 -164t69 -164h103l-13 -64h-206l-158 392 h-49l-56 -328h107l-10 -64h-326zM725 729h133q50 0 97 47.5t57 112.5q12 71 -18.5 114.5t-82.5 43.5h-133z" />
<glyph unicode="&#xaf;" horiz-adv-x="540" d="M201 1087l12 80h440l-12 -80h-440z" />
<glyph unicode="&#xb0;" horiz-adv-x="585" d="M197 1155q-1 84 61 146.5t145 62.5q87 0 147 -61.5t62 -147.5q1 -89 -60 -151t-149 -62q-87 0 -146 60t-60 153zM283 1155q0 -56 32.5 -95.5t87.5 -39.5q52 0 88.5 40t36.5 95q-2 50 -38 90.5t-87 40.5q-54 0 -88 -40.5t-32 -90.5z" />
<glyph unicode="&#xb1;" horiz-adv-x="1017" d="M43 0l12 80h819l-12 -80h-819zM147 498l13 80h372l64 380h78l-64 -380h371l-14 -80h-371l-64 -377h-77l63 377h-371z" />
<glyph unicode="&#xb2;" horiz-adv-x="628" d="M96 649l8 49l230 217q56 55 101.5 119.5t53.5 112.5q11 58 -13.5 94.5t-76.5 36.5q-44 0 -90 -26.5t-82 -69.5l-51 32q103 127 234 127q57 0 103.5 -20t72.5 -66t14 -110q-3 -17 -9.5 -34t-12.5 -29.5t-19.5 -30t-20.5 -26t-27 -28t-26.5 -26t-31.5 -29t-31 -27.5 l-180 -163h299l-21 -103h-424z" />
<glyph unicode="&#xb3;" horiz-adv-x="636" d="M111 735l51 39q48 -69 145 -69q60 0 114 46.5t54 129.5q0 47 -29 72.5t-79 25.5h-43l10 51q40 0 79 16.5t69 55.5t30 92q0 41 -25 61.5t-65 20.5q-91 0 -164 -86l-49 31q99 120 221 120q76 0 129 -40t53 -113q0 -52 -30 -100t-80 -76q82 -36 82 -123q0 -60 -28 -109.5 t-71.5 -79t-92 -45.5t-93.5 -16q-126 0 -188 96z" />
<glyph unicode="&#xb4;" horiz-adv-x="550" d="M229 1059l332 301l84 -111l-330 -190h-86z" />
<glyph unicode="&#xb5;" horiz-adv-x="1089" d="M10 -406l228 1330h153l-108 -629q-9 -50 -9 -88q0 -158 148 -158q28 0 57.5 6t63.5 22t62 41t51 68t32 97l111 641h149l-143 -838v-6q0 -27 26 -27q11 0 47.5 11.5t39.5 15.5l14 -49q-96 -56 -176 -56q-56 0 -80.5 31.5t-24.5 65.5v8l2 2q-43 -46 -114.5 -74t-157.5 -28 q-93 0 -143 63l-82 -481z" />
<glyph unicode="&#xb6;" horiz-adv-x="1144" d="M246 995q25 153 142 254t312 101h514l-14 -74h-158l-221 -1276h-86l221 1276h-174l-221 -1276h-86l111 629h-11q-180 0 -268 104.5t-61 261.5z" />
<glyph unicode="&#xb7;" horiz-adv-x="393" d="M113 485q9 53 50 88t93 35q50 0 78.5 -35.5t19.5 -87.5t-50.5 -87.5t-94.5 -35.5q-50 0 -77.5 35.5t-18.5 87.5z" />
<glyph unicode="&#xb8;" horiz-adv-x="464" d="M-10 -229l254 198h78l-242 -305z" />
<glyph unicode="&#xb9;" horiz-adv-x="620" d="M215 649l10 58h97l90 503l-101 -57l-26 47l217 129h33l-111 -622h98l-12 -58h-295z" />
<glyph unicode="&#xba;" horiz-adv-x="620" d="M176 995q28 168 119.5 261.5t198.5 93.5q111 0 169.5 -89.5t26.5 -265.5q-28 -171 -118 -263.5t-199 -92.5q-110 0 -168.5 90.5t-28.5 265.5zM284 886q-3 -48 3.5 -92.5t30.5 -69t65 -24.5q136 0 186 295q51 293 -86 293q-132 0 -186 -293q-10 -61 -13 -109z" />
<glyph unicode="&#xbb;" horiz-adv-x="927" d="M59 119l332 358l-209 359l41 36l346 -395l-481 -395zM367 119l329 358l-207 359l41 36l347 -395l-482 -395z" />
<glyph unicode="&#xbc;" horiz-adv-x="1390" d="M215 649l10 58h97l90 503l-101 -57l-26 47l217 129h33l-111 -622h98l-12 -58h-295zM322 -53l780 1458h88l-778 -1458h-90zM733 166l8 57l420 471h68l-80 -438h117l-17 -90h-114l-29 -152h-96l22 152h-299zM844 256h205l53 289z" />
<glyph unicode="&#xbd;" horiz-adv-x="1390" d="M215 649l10 58h97l90 503l-101 -57l-26 47l217 129h33l-111 -622h98l-12 -58h-295zM311 -53l781 1458h88l-779 -1458h-90zM793 0l8 49l229 217q57 55 102.5 119.5t53.5 112.5q11 58 -13.5 94.5t-76.5 36.5q-43 0 -89.5 -26.5t-82.5 -70.5l-52 33q103 127 234 127 q57 0 103.5 -20t72.5 -66t14 -110q-3 -17 -9.5 -34t-12.5 -29.5t-19.5 -30t-20.5 -26t-27 -28t-26.5 -26t-31.5 -29t-31 -27.5l-180 -164h299l-20 -102h-424z" />
<glyph unicode="&#xbe;" horiz-adv-x="1390" d="M172 737l51 39q48 -69 146 -69q60 0 114 46.5t54 129.5q0 47 -29.5 72.5t-79.5 25.5h-43l10 51q40 0 79 16.5t69 55.5t30 92q0 41 -25 61.5t-65 20.5q-91 0 -164 -86l-49 31q99 120 222 120q76 0 129 -40t53 -113q0 -52 -30.5 -100t-80.5 -76q82 -36 82 -123 q0 -60 -28 -109.5t-71.5 -79t-92 -45.5t-93.5 -16q-126 0 -188 96zM322 -53l780 1458h88l-778 -1458h-90zM733 166l8 57l420 471h68l-80 -438h117l-17 -90h-114l-29 -152h-96l22 152h-299zM844 256h205l53 289z" />
<glyph unicode="&#xbf;" horiz-adv-x="937" d="M-14 -115q4 24 10 46t11.5 39t17.5 36.5t18 31t22 29.5t21.5 25t26 25.5t24.5 22t27 23t26 21.5l170 146q31 27 49.5 46.5t38 53t25.5 68.5h90q-9 -53 -17.5 -83.5t-30 -62.5t-41.5 -53t-71 -70q-108 -102 -167 -161q-41 -41 -68 -99t-35 -112q-17 -98 31.5 -165 t169.5 -67q122 0 202.5 69t127.5 245h106l-45 -246q-67 -62 -174.5 -99.5t-226.5 -37.5q-180 0 -271.5 93.5t-66.5 235.5zM453 827q9 53 50 88t93 35q50 0 78.5 -35.5t19.5 -87.5t-50.5 -87t-92.5 -35q-50 0 -78.5 35t-19.5 87z" />
<glyph unicode="&#xc0;" horiz-adv-x="1306" d="M-29 0l13 74h166l663 1276h90l223 -1276h117l-12 -74h-416l12 74h125l-75 422h-422l-222 -422h166l-12 -74h-416zM494 575h366l-92 529zM653 1634l125 111l226 -301h-89z" />
<glyph unicode="&#xc1;" horiz-adv-x="1306" d="M-29 0l13 74h166l663 1276h90l223 -1276h117l-12 -74h-416l12 74h125l-75 422h-422l-222 -422h166l-12 -74h-416zM494 575h366l-92 529zM694 1440l332 301l84 -111l-330 -190h-86z" />
<glyph unicode="&#xc2;" horiz-adv-x="1306" d="M-29 0l13 74h166l663 1276h90l223 -1276h117l-12 -74h-416l12 74h125l-75 422h-422l-222 -422h166l-12 -74h-416zM494 575h366l-92 529zM575 1444l345 311l241 -311h-78l-194 133l-236 -133h-78z" />
<glyph unicode="&#xc3;" horiz-adv-x="1306" d="M-29 0l13 74h166l663 1276h90l223 -1276h117l-12 -74h-416l12 74h125l-75 422h-422l-222 -422h166l-12 -74h-416zM494 575h366l-92 529zM575 1442q32 80 87 132t126 52q38 0 118.5 -41t123.5 -41q33 0 65.5 23t41.5 51h49q-79 -184 -207 -184q-42 0 -124.5 41t-125.5 41 q-32 0 -63 -23t-39 -51h-52z" />
<glyph unicode="&#xc4;" horiz-adv-x="1306" d="M-29 0l13 74h166l663 1276h90l223 -1276h117l-12 -74h-416l12 74h125l-75 422h-422l-222 -422h166l-12 -74h-416zM494 575h366l-92 529zM582 1552q9 46 46 77.5t83 31.5q43 0 69 -32t17 -77q-7 -45 -44.5 -76.5t-80.5 -31.5q-45 0 -71 31.5t-19 76.5zM961 1552 q9 45 46 77t80 32q45 0 71.5 -32t17.5 -77q-7 -46 -44 -77t-83 -31q-43 0 -69 31.5t-19 76.5z" />
<glyph unicode="&#xc5;" horiz-adv-x="1306" d="M-29 0l13 74h166l663 1276h90l223 -1276h117l-12 -74h-416l12 74h125l-75 422h-422l-222 -422h166l-12 -74h-416zM494 575h366l-92 529zM729 1618q12 74 71 124t132 50q70 0 114 -54.5t33 -119.5q-14 -79 -71.5 -131.5t-137.5 -52.5q-69 0 -112 56t-29 128zM801 1618 q-13 -45 9.5 -80t70.5 -35q45 0 83 34.5t46 80.5q9 45 -17 76.5t-73 31.5q-42 0 -75 -35t-44 -73z" />
<glyph unicode="&#xc6;" horiz-adv-x="1771" d="M-33 0l13 74h165l748 1202h-127l12 74h1094l-66 -361h-71l-58 287h-465l-90 -518h324l24 147h95l-66 -377h-92l27 148h-324l-106 -602h481l157 286h72l-61 -360h-1006l12 74h177l71 420h-409l-260 -420h159l-12 -74h-418zM549 575h373l122 699h-61z" />
<glyph unicode="&#xc7;" horiz-adv-x="1140" d="M135 461q0 112 28 233.5t89 242t145 216.5t206.5 155.5t264.5 59.5q143 0 239.5 -46.5t149.5 -117.5l-43 -219h-124q2 16 2 47q0 72 -20 126t-54.5 84.5t-75 45.5t-86.5 15q-93 0 -171 -32t-135 -89t-100 -132t-68.5 -164.5t-38.5 -182t-13 -189.5q0 -96 16.5 -176 t51 -144t93 -99.5t136.5 -35.5q76 0 153.5 33.5t148 105.5t109.5 169h78q-62 -168 -207 -279t-309 -111q-127 0 -220 39t-145 108t-76 152.5t-24 184.5zM291 -272l254 198h78l-242 -305z" />
<glyph unicode="&#xc8;" horiz-adv-x="1130" d="M6 0l12 74h177l208 1202h-176l15 74h989l-64 -361h-73l-58 287h-465l-90 -518h324l26 147h93l-64 -377h-92l25 148h-324l-104 -602h481l155 286h72l-61 -360h-1006zM592 1634l125 111l225 -301h-88z" />
<glyph unicode="&#xc9;" horiz-adv-x="1130" d="M6 0l12 74h177l208 1202h-176l15 74h989l-64 -361h-73l-58 287h-465l-90 -518h324l26 147h93l-64 -377h-92l25 148h-324l-104 -602h481l155 286h72l-61 -360h-1006zM612 1444l332 301l84 -111l-330 -190h-86z" />
<glyph unicode="&#xca;" horiz-adv-x="1130" d="M6 0l12 74h177l208 1202h-176l15 74h989l-64 -361h-73l-58 287h-465l-90 -518h324l26 147h93l-64 -377h-92l25 148h-324l-104 -602h481l155 286h72l-61 -360h-1006zM487 1444l344 311l242 -311h-78l-194 133l-236 -133h-78z" />
<glyph unicode="&#xcb;" horiz-adv-x="1130" d="M6 0l12 74h177l208 1202h-176l15 74h989l-64 -361h-73l-58 287h-465l-90 -518h324l26 147h93l-64 -377h-92l25 148h-324l-104 -602h481l155 286h72l-61 -360h-1006zM520 1552q9 46 46 77.5t83 31.5q43 0 69 -32t17 -77q-7 -45 -44.5 -76.5t-80.5 -31.5q-45 0 -71 31.5 t-19 76.5zM899 1552q9 45 46.5 77t80.5 32q45 0 71 -32t17 -77q-7 -46 -44 -77t-83 -31q-43 0 -69 31.5t-19 76.5z" />
<glyph unicode="&#xcc;" horiz-adv-x="710" d="M23 0l12 74h198l209 1202h-198l14 74h573l-14 -74h-207l-209 -1202h207l-12 -74h-573zM383 1628l125 111l225 -301h-88z" />
<glyph unicode="&#xcd;" horiz-adv-x="679" d="M8 0l12 74h199l209 1202h-199l15 74h573l-14 -74h-207l-209 -1202h207l-12 -74h-574zM283 1438l331 301l84 -111l-329 -190h-86z" />
<glyph unicode="&#xce;" horiz-adv-x="692" d="M18 0l13 74h198l209 1202h-198l14 74h573l-14 -74h-207l-209 -1202h207l-12 -74h-574zM264 1442l344 311l242 -311h-78l-194 133l-236 -133h-78z" />
<glyph unicode="&#xcf;" horiz-adv-x="700" d="M25 0l12 74h199l208 1202h-198l14 74h574l-15 -74h-207l-209 -1202h207l-12 -74h-573zM289 1550q9 46 46 77.5t83 31.5q43 0 69 -32t17 -77q-7 -45 -44.5 -76.5t-80.5 -31.5q-45 0 -71 31.5t-19 76.5zM668 1550q9 45 46.5 77t80.5 32q45 0 71 -32t17 -77q-7 -46 -44 -77 t-83 -31q-43 0 -69 31.5t-19 76.5z" />
<glyph unicode="&#xd0;" horiz-adv-x="1355" d="M18 0l13 74h176l104 608h-168l13 80h170l90 514h-176l14 74h631q102 0 182.5 -24.5t134 -69.5t89 -105t49.5 -135t13.5 -156t-16.5 -170q-18 -102 -53.5 -198t-95 -186.5t-135 -157.5t-179.5 -107.5t-223 -40.5h-633zM379 74h283q86 0 159.5 35.5t127 94.5t96 140t69 167 t43.5 181q24 124 17.5 230.5t-37 185t-99 123.5t-168.5 45h-282l-90 -514h272l-12 -80h-275z" />
<glyph unicode="&#xd1;" horiz-adv-x="1304" d="M18 0l13 74h159l209 1200h-159l14 76h326l426 -1006l163 930h-163l14 76h420l-15 -76h-168l-221 -1274h-92l-481 1137l-187 -1063h173l-13 -74h-418zM543 1442q32 80 87 132t126 52q38 0 118 -41t123 -41q33 0 65.5 23t41.5 51h49q-79 -184 -207 -184q-42 0 -124.5 41 t-125.5 41q-32 0 -63 -23t-39 -51h-51z" />
<glyph unicode="&#xd2;" d="M137 475q0 113 28 234.5t88 239.5t142 211t200.5 150.5t254.5 57.5q101 0 181.5 -27t133.5 -73.5t88.5 -111t50.5 -136.5t15 -154q0 -93 -20.5 -193t-59 -199.5t-100.5 -189t-138 -158t-178 -109t-215 -40.5q-127 0 -221 39.5t-147 110.5t-78 157.5t-25 190.5zM336 520 q0 -100 16 -183.5t48.5 -150.5t89 -105t131.5 -38q106 0 191 41.5t142 117t93.5 169.5t56.5 211q22 129 22 243q0 100 -16.5 184t-50.5 151t-91 105t-132 38q-90 0 -165.5 -31.5t-129 -88t-94 -130.5t-64.5 -163t-35.5 -181t-11.5 -189zM676 1634l125 111l225 -301h-88z" />
<glyph unicode="&#xd3;" d="M137 475q0 113 28 234.5t88 239.5t142 211t200.5 150.5t254.5 57.5q101 0 181.5 -27t133.5 -73.5t88.5 -111t50.5 -136.5t15 -154q0 -93 -20.5 -193t-59 -199.5t-100.5 -189t-138 -158t-178 -109t-215 -40.5q-127 0 -221 39.5t-147 110.5t-78 157.5t-25 190.5zM336 520 q0 -100 16 -183.5t48.5 -150.5t89 -105t131.5 -38q106 0 191 41.5t142 117t93.5 169.5t56.5 211q22 129 22 243q0 100 -16.5 184t-50.5 151t-91 105t-132 38q-90 0 -165.5 -31.5t-129 -88t-94 -130.5t-64.5 -163t-35.5 -181t-11.5 -189zM666 1444l331 301l84 -111l-329 -190 h-86z" />
<glyph unicode="&#xd4;" d="M137 475q0 113 28 234.5t88 239.5t142 211t200.5 150.5t254.5 57.5q101 0 181.5 -27t133.5 -73.5t88.5 -111t50.5 -136.5t15 -154q0 -93 -20.5 -193t-59 -199.5t-100.5 -189t-138 -158t-178 -109t-215 -40.5q-127 0 -221 39.5t-147 110.5t-78 157.5t-25 190.5zM336 520 q0 -100 16 -183.5t48.5 -150.5t89 -105t131.5 -38q106 0 191 41.5t142 117t93.5 169.5t56.5 211q22 129 22 243q0 100 -16.5 184t-50.5 151t-91 105t-132 38q-90 0 -165.5 -31.5t-129 -88t-94 -130.5t-64.5 -163t-35.5 -181t-11.5 -189zM580 1444l344 311l241 -311h-78 l-194 133l-236 -133h-77z" />
<glyph unicode="&#xd5;" d="M137 475q0 113 28 234.5t88 239.5t142 211t200.5 150.5t254.5 57.5q101 0 181.5 -27t133.5 -73.5t88.5 -111t50.5 -136.5t15 -154q0 -93 -20.5 -193t-59 -199.5t-100.5 -189t-138 -158t-178 -109t-215 -40.5q-127 0 -221 39.5t-147 110.5t-78 157.5t-25 190.5zM336 520 q0 -100 16 -183.5t48.5 -150.5t89 -105t131.5 -38q106 0 191 41.5t142 117t93.5 169.5t56.5 211q22 129 22 243q0 100 -16.5 184t-50.5 151t-91 105t-132 38q-90 0 -165.5 -31.5t-129 -88t-94 -130.5t-64.5 -163t-35.5 -181t-11.5 -189zM606 1440q32 80 87 132t126 52 q38 0 118.5 -41t123.5 -41q33 0 65 23t41 51h50q-79 -184 -207 -184q-42 0 -124.5 40.5t-125.5 40.5q-32 0 -63.5 -22.5t-39.5 -50.5h-51z" />
<glyph unicode="&#xd6;" d="M137 475q0 113 28 234.5t88 239.5t142 211t200.5 150.5t254.5 57.5q101 0 181.5 -27t133.5 -73.5t88.5 -111t50.5 -136.5t15 -154q0 -93 -20.5 -193t-59 -199.5t-100.5 -189t-138 -158t-178 -109t-215 -40.5q-127 0 -221 39.5t-147 110.5t-78 157.5t-25 190.5zM336 520 q0 -100 16 -183.5t48.5 -150.5t89 -105t131.5 -38q106 0 191 41.5t142 117t93.5 169.5t56.5 211q22 129 22 243q0 100 -16.5 184t-50.5 151t-91 105t-132 38q-90 0 -165.5 -31.5t-129 -88t-94 -130.5t-64.5 -163t-35.5 -181t-11.5 -189zM596 1548q9 46 46 77.5t83 31.5 q43 0 69 -32t17 -77q-7 -45 -44.5 -76.5t-80.5 -31.5q-45 0 -71 31.5t-19 76.5zM975 1548q9 45 46.5 77t80.5 32q45 0 71 -32t17 -77q-7 -46 -44 -77t-83 -31q-43 0 -69 31.5t-19 76.5z" />
<glyph unicode="&#xd7;" horiz-adv-x="808" d="M74 193l307 266l-215 268l63 55l215 -266l312 268l43 -55l-310 -270l218 -269l-68 -55l-213 268l-309 -266z" />
<glyph unicode="&#xd8;" d="M55 -55l172 198q-90 126 -90 332q0 113 28 234.5t88 239.5t142 211t200.5 150.5t254.5 57.5q213 0 334 -121l135 156h100l-186 -215q86 -128 86 -322q0 -93 -20.5 -193t-59 -199.5t-100.5 -189t-138 -158t-178 -109t-215 -40.5q-213 0 -332 109l-122 -141h-99zM336 520 q0 -123 24 -225l715 827q-75 181 -239 181q-90 0 -165.5 -31.5t-129 -88t-94 -130.5t-64.5 -163t-35.5 -181t-11.5 -189zM387 213q75 -170 234 -170q106 0 191 41.5t142 117t93.5 169.5t56.5 211q22 129 22 243t-22 213z" />
<glyph unicode="&#xd9;" horiz-adv-x="1294" d="M227 1276l15 74h495l-14 -74h-162l-160 -907q-22 -133 41.5 -221.5t180.5 -88.5q136 0 248 81.5t137 226.5l159 909h-170l15 74h426l-15 -74h-163l-160 -907q-29 -176 -163.5 -284t-328.5 -108t-299 109.5t-76 282.5l158 907h-164zM754 1632l125 111l225 -301h-88z" />
<glyph unicode="&#xda;" horiz-adv-x="1294" d="M227 1276l15 74h495l-14 -74h-162l-160 -907q-22 -133 41.5 -221.5t180.5 -88.5q136 0 248 81.5t137 226.5l159 909h-170l15 74h426l-15 -74h-163l-160 -907q-29 -176 -163.5 -284t-328.5 -108t-299 109.5t-76 282.5l158 907h-164zM664 1442l331 301l84 -111l-329 -190 h-86z" />
<glyph unicode="&#xdb;" horiz-adv-x="1294" d="M227 1276l15 74h495l-14 -74h-162l-160 -907q-22 -133 41.5 -221.5t180.5 -88.5q136 0 248 81.5t137 226.5l159 909h-170l15 74h426l-15 -74h-163l-160 -907q-29 -176 -163.5 -284t-328.5 -108t-299 109.5t-76 282.5l158 907h-164zM561 1444l344 311l242 -311h-78 l-195 133l-235 -133h-78z" />
<glyph unicode="&#xdc;" horiz-adv-x="1294" d="M227 1276l15 74h495l-14 -74h-162l-160 -907q-22 -133 41.5 -221.5t180.5 -88.5q136 0 248 81.5t137 226.5l159 909h-170l15 74h426l-15 -74h-163l-160 -907q-29 -176 -163.5 -284t-328.5 -108t-299 109.5t-76 282.5l158 907h-164zM608 1552q9 46 46 77.5t83 31.5 q43 0 69 -32t17 -77q-7 -45 -44.5 -76.5t-80.5 -31.5q-45 0 -71 31.5t-19 76.5zM987 1552q9 45 46.5 77t80.5 32q45 0 71 -32t17 -77q-7 -46 -44 -77t-83 -31q-43 0 -69 31.5t-19 76.5z" />
<glyph unicode="&#xdd;" horiz-adv-x="1218" d="M207 1276l14 74h504l-14 -74h-168l180 -584l397 584h-200l14 74h448l-14 -74h-164l-446 -655l-94 -547h200l-12 -74h-565l12 74h197l86 493l-222 709h-153zM625 1458l331 301l84 -110l-329 -191h-86z" />
<glyph unicode="&#xde;" horiz-adv-x="1144" d="M18 0l13 74h159l211 1202h-165l14 74h487l-12 -74h-156l-37 -215h256q100 0 171.5 -28.5t109.5 -78t50.5 -112t0.5 -135.5q-27 -157 -152 -262t-306 -105h-254l-48 -266h160l-12 -74h-490zM422 418h229q99 0 178.5 80t102.5 204q20 128 -29 206.5t-153 78.5h-230z" />
<glyph unicode="&#xdf;" horiz-adv-x="1056" d="M-6 0l12 63h125l162 945q27 155 128.5 248.5t254.5 93.5q74 0 130.5 -17t88.5 -46t52 -66t21.5 -78t-3.5 -82q-8 -48 -40 -93.5t-59.5 -68.5t-75.5 -56.5t-53 -37.5q-63 -44 -73 -94q-4 -25 9 -45t44 -45l172 -146q116 -98 92 -233q-19 -107 -125.5 -184.5t-241.5 -77.5 q-123 0 -204 81l53 54q77 -72 162 -72q76 0 131 49.5t67 120.5q6 36 -5 70.5t-34 54.5l-145 131q-32 29 -50 50.5t-30 64.5t-4 98q15 82 84 141q12 10 42 34t45 38.5t36 39t33.5 55t19.5 67.5q19 101 -14.5 165t-134.5 64q-79 0 -133.5 -46.5t-71.5 -137.5l-191 -1102h-276z " />
<glyph unicode="&#xe0;" horiz-adv-x="1079" d="M109 330q0 77 19.5 160.5t60.5 164.5t97.5 145.5t139 104t176.5 39.5q155 0 219 -104l19 84h151l-141 -822q-3 -22 6.5 -36.5t28.5 -14.5q17 0 50.5 13.5t37.5 19.5l16 -49q-9 -7 -24 -17t-59 -26.5t-85 -16.5q-35 0 -60.5 11t-38 25.5t-20 32.5t-9 27t-1.5 15 q-97 -109 -256 -109q-89 0 -154.5 28.5t-102 79t-53.5 111.5t-17 134zM283 348q0 -86 16 -151t56 -107.5t102 -42.5q100 0 174 60.5t96 185.5l57 338q7 40 7 61q0 95 -58 140t-141 45q-81 0 -143 -47t-97 -125.5t-52 -168.5t-17 -188zM455 1249l125 111l225 -301h-88z" />
<glyph unicode="&#xe1;" horiz-adv-x="1079" d="M109 330q0 77 19.5 160.5t60.5 164.5t97.5 145.5t139 104t176.5 39.5q155 0 219 -104l19 84h151l-141 -822q-3 -22 6.5 -36.5t28.5 -14.5q17 0 50.5 13.5t37.5 19.5l16 -49q-9 -7 -24 -17t-59 -26.5t-85 -16.5q-35 0 -60.5 11t-38 25.5t-20 32.5t-9 27t-1.5 15 q-97 -109 -256 -109q-89 0 -154.5 28.5t-102 79t-53.5 111.5t-17 134zM283 348q0 -86 16 -151t56 -107.5t102 -42.5q100 0 174 60.5t96 185.5l57 338q7 40 7 61q0 95 -58 140t-141 45q-81 0 -143 -47t-97 -125.5t-52 -168.5t-17 -188zM498 1059l331 301l84 -111l-329 -190 h-86z" />
<glyph unicode="&#xe2;" horiz-adv-x="1079" d="M109 330q0 77 19.5 160.5t60.5 164.5t97.5 145.5t139 104t176.5 39.5q155 0 219 -104l19 84h151l-141 -822q-3 -22 6.5 -36.5t28.5 -14.5q17 0 50.5 13.5t37.5 19.5l16 -49q-9 -7 -24 -17t-59 -26.5t-85 -16.5q-35 0 -60.5 11t-38 25.5t-20 32.5t-9 27t-1.5 15 q-97 -109 -256 -109q-89 0 -154.5 28.5t-102 79t-53.5 111.5t-17 134zM283 348q0 -86 16 -151t56 -107.5t102 -42.5q100 0 174 60.5t96 185.5l57 338q7 40 7 61q0 95 -58 140t-141 45q-81 0 -143 -47t-97 -125.5t-52 -168.5t-17 -188zM354 1075l344 311l242 -311h-78 l-194 133l-236 -133h-78z" />
<glyph unicode="&#xe3;" horiz-adv-x="1079" d="M109 330q0 77 19.5 160.5t60.5 164.5t97.5 145.5t139 104t176.5 39.5q155 0 219 -104l19 84h151l-141 -822q-3 -22 6.5 -36.5t28.5 -14.5q17 0 50.5 13.5t37.5 19.5l16 -49q-9 -7 -24 -17t-59 -26.5t-85 -16.5q-35 0 -60.5 11t-38 25.5t-20 32.5t-9 27t-1.5 15 q-97 -109 -256 -109q-89 0 -154.5 28.5t-102 79t-53.5 111.5t-17 134zM283 348q0 -86 16 -151t56 -107.5t102 -42.5q100 0 174 60.5t96 185.5l57 338q7 40 7 61q0 95 -58 140t-141 45q-81 0 -143 -47t-97 -125.5t-52 -168.5t-17 -188zM344 1130q33 80 87.5 132.5t125.5 52.5 q38 0 118.5 -41t123.5 -41q33 0 65 23t41 51h49q-79 -185 -206 -185q-42 0 -124.5 41t-125.5 41q-32 0 -63.5 -23t-39.5 -51h-51z" />
<glyph unicode="&#xe4;" horiz-adv-x="1079" d="M109 330q0 77 19.5 160.5t60.5 164.5t97.5 145.5t139 104t176.5 39.5q155 0 219 -104l19 84h151l-141 -822q-3 -22 6.5 -36.5t28.5 -14.5q17 0 50.5 13.5t37.5 19.5l16 -49q-9 -7 -24 -17t-59 -26.5t-85 -16.5q-35 0 -60.5 11t-38 25.5t-20 32.5t-9 27t-1.5 15 q-97 -109 -256 -109q-89 0 -154.5 28.5t-102 79t-53.5 111.5t-17 134zM283 348q0 -86 16 -151t56 -107.5t102 -42.5q100 0 174 60.5t96 185.5l57 338q7 40 7 61q0 95 -58 140t-141 45q-81 0 -143 -47t-97 -125.5t-52 -168.5t-17 -188zM375 1231q9 46 46 77t83 31 q43 0 69 -31.5t17 -76.5q-7 -45 -44.5 -77t-80.5 -32q-44 0 -70.5 31.5t-19.5 77.5zM754 1231q9 45 46.5 76.5t80.5 31.5q45 0 71 -31.5t17 -76.5q-7 -46 -44 -77.5t-83 -31.5q-43 0 -69 32t-19 77z" />
<glyph unicode="&#xe5;" horiz-adv-x="1079" d="M109 330q0 77 19.5 160.5t60.5 164.5t97.5 145.5t139 104t176.5 39.5q155 0 219 -104l19 84h151l-141 -822q-3 -22 6.5 -36.5t28.5 -14.5q17 0 50.5 13.5t37.5 19.5l16 -49q-9 -7 -24 -17t-59 -26.5t-85 -16.5q-35 0 -60.5 11t-38 25.5t-20 32.5t-9 27t-1.5 15 q-97 -109 -256 -109q-89 0 -154.5 28.5t-102 79t-53.5 111.5t-17 134zM283 348q0 -86 16 -151t56 -107.5t102 -42.5q100 0 174 60.5t96 185.5l57 338q7 40 7 61q0 95 -58 140t-141 45q-81 0 -143 -47t-97 -125.5t-52 -168.5t-17 -188zM512 1243q12 74 71 124t132 50 q70 0 114 -54.5t33 -119.5q-14 -79 -71.5 -131.5t-137.5 -52.5q-69 0 -112 56t-29 128zM584 1243q-13 -45 9.5 -80t70.5 -35q45 0 83 34.5t46 80.5q9 45 -17.5 77t-73.5 32q-42 0 -74.5 -35t-43.5 -74z" />
<glyph unicode="&#xe6;" horiz-adv-x="1495" d="M80 178q0 95 59 169t185 110l358 104l10 68q13 98 13 116q0 70 -30.5 104t-103.5 34q-88 0 -138 -54.5t-54 -111.5l-4 -53h-172q7 32 20 64t42.5 73t69.5 71t106 51t147 21q95 0 164.5 -32.5t91.5 -104.5q130 137 313 137q161 0 240.5 -80t79.5 -225q0 -67 -15 -143h-624 q-13 -63 -13 -121q0 -85 22 -157t71.5 -119.5t117.5 -47.5q57 0 112 26.5t95 67t68 82t41 78.5l63 -2q-11 -38 -30 -77t-55 -85t-80.5 -81.5t-110.5 -59t-142 -23.5q-197 0 -290 140q-152 -140 -353 -140q-121 0 -197.5 51t-76.5 150zM248 203q0 -60 39.5 -107t107.5 -47 q74 0 150 36.5t127 102.5q-23 62 -23 144q0 51 13 121l6 41l-254 -76q-80 -24 -124 -84t-42 -131zM850 563h432q21 93 21 146q0 174 -146 174q-121 0 -197.5 -88t-109.5 -232z" />
<glyph unicode="&#xe7;" horiz-adv-x="929" d="M106 328q0 72 18.5 153t59 164t97.5 149t143 108t186 42q160 0 238.5 -70t83.5 -188h-184v23q0 77 -37 125.5t-103 48.5q-80 0 -143.5 -45t-101.5 -119t-58 -163t-20 -183q0 -140 48.5 -229t149.5 -89t188.5 73t127.5 177l63 -2q-45 -140 -156 -233t-257 -93 q-88 0 -156 29t-107.5 79.5t-59.5 111.5t-20 131zM205 -272l254 198h78l-242 -305z" />
<glyph unicode="&#xe8;" horiz-adv-x="964" d="M98 334q0 75 20 156.5t62.5 162.5t101 146t144.5 105t184 40q156 0 237 -81.5t81 -225.5q0 -85 -19 -141h-624q-11 -51 -11 -113q0 -88 20 -159.5t69 -120t120 -48.5q59 0 114.5 26t95 66t66 80.5t40.5 77.5l63 -2q-11 -38 -29.5 -77t-53.5 -85t-79 -81t-109.5 -58.5 t-141.5 -24.5q-86 0 -154.5 29.5t-110.5 79.5t-64 113.5t-22 134.5zM297 563h432q23 102 23 146q0 86 -33.5 130t-110.5 44q-121 0 -199.5 -88.5t-111.5 -231.5zM403 1249l125 111l226 -301h-88z" />
<glyph unicode="&#xe9;" horiz-adv-x="964" d="M98 334q0 75 20 156.5t62.5 162.5t101 146t144.5 105t184 40q156 0 237 -81.5t81 -225.5q0 -85 -19 -141h-624q-11 -51 -11 -113q0 -88 20 -159.5t69 -120t120 -48.5q59 0 114.5 26t95 66t66 80.5t40.5 77.5l63 -2q-11 -38 -29.5 -77t-53.5 -85t-79 -81t-109.5 -58.5 t-141.5 -24.5q-86 0 -154.5 29.5t-110.5 79.5t-64 113.5t-22 134.5zM297 563h432q23 102 23 146q0 86 -33.5 130t-110.5 44q-121 0 -199.5 -88.5t-111.5 -231.5zM451 1059l331 301l84 -111l-329 -190h-86z" />
<glyph unicode="&#xea;" horiz-adv-x="964" d="M98 334q0 75 20 156.5t62.5 162.5t101 146t144.5 105t184 40q156 0 237 -81.5t81 -225.5q0 -85 -19 -141h-624q-11 -51 -11 -113q0 -88 20 -159.5t69 -120t120 -48.5q59 0 114.5 26t95 66t66 80.5t40.5 77.5l63 -2q-11 -38 -29.5 -77t-53.5 -85t-79 -81t-109.5 -58.5 t-141.5 -24.5q-86 0 -154.5 29.5t-110.5 79.5t-64 113.5t-22 134.5zM297 563h432q23 102 23 146q0 86 -33.5 130t-110.5 44q-121 0 -199.5 -88.5t-111.5 -231.5zM334 1075l344 311l242 -311h-78l-195 133l-235 -133h-78z" />
<glyph unicode="&#xeb;" horiz-adv-x="964" d="M98 334q0 75 20 156.5t62.5 162.5t101 146t144.5 105t184 40q156 0 237 -81.5t81 -225.5q0 -85 -19 -141h-624q-11 -51 -11 -113q0 -88 20 -159.5t69 -120t120 -48.5q59 0 114.5 26t95 66t66 80.5t40.5 77.5l63 -2q-11 -38 -29.5 -77t-53.5 -85t-79 -81t-109.5 -58.5 t-141.5 -24.5q-86 0 -154.5 29.5t-110.5 79.5t-64 113.5t-22 134.5zM297 563h432q23 102 23 146q0 86 -33.5 130t-110.5 44q-121 0 -199.5 -88.5t-111.5 -231.5zM369 1231q9 46 46 77t83 31q43 0 69 -31.5t17 -76.5q-7 -45 -44.5 -77t-80.5 -32q-44 0 -70.5 31.5t-19.5 77.5 zM748 1231q9 45 46 76.5t80 31.5q45 0 71.5 -31.5t17.5 -76.5q-7 -46 -44 -77.5t-83 -31.5q-43 0 -69 32t-19 77z" />
<glyph unicode="&#xec;" horiz-adv-x="561" d="M8 0l10 63h164l137 801h-145l10 60l299 18l-151 -879h162l-11 -63h-475zM139 1249l125 111l225 -301h-88z" />
<glyph unicode="&#xed;" horiz-adv-x="555" d="M8 0l10 63h164l137 801h-145l10 60l299 18l-151 -879h162l-11 -63h-475zM205 1059l332 301l84 -111l-330 -190h-86z" />
<glyph unicode="&#xee;" horiz-adv-x="569" d="M8 0l10 63h164l137 801h-145l10 60l299 18l-151 -879h162l-11 -63h-475zM121 1075l344 311l242 -311h-78l-195 133l-235 -133h-78z" />
<glyph unicode="&#xef;" horiz-adv-x="555" d="M8 0l10 63h164l137 801h-145l10 60l299 18l-151 -879h162l-11 -63h-475zM125 1231q9 46 46 77t83 31q43 0 69 -31.5t17 -76.5q-7 -45 -44.5 -77t-80.5 -32q-44 0 -70.5 31.5t-19.5 77.5zM504 1231q9 45 46.5 76.5t80.5 31.5q45 0 71 -31.5t17 -76.5q-7 -46 -44 -77.5 t-83 -31.5q-43 0 -69 32t-19 77z" />
<glyph unicode="&#xf0;" horiz-adv-x="1011" d="M123.5 293.5q0.5 63.5 9.5 128.5q16 95 54 184t97 167t146.5 125.5t190.5 47.5q107 0 184 -98q-10 173 -111 301l-211 -107l-26 56l194 98q-122 115 -303 115l12 63q219 0 379 -135l301 154l25 -56l-279 -141q233 -246 154 -688q-12 -73 -39 -146.5t-70.5 -143 t-98.5 -123t-127.5 -86t-151.5 -32.5q-86 0 -151 25.5t-101 69t-57 101t-20.5 121zM299 357q-1 -84 13.5 -157t53 -117t97.5 -44q65 0 116.5 28t86.5 78.5t58 113.5t36 140q16 92 17 176t-14 155t-54 113t-99 42q-51 0 -95 -19t-75.5 -51t-57 -78t-41.5 -97t-26 -110 q-15 -89 -16 -173z" />
<glyph unicode="&#xf1;" horiz-adv-x="1067" d="M8 0l8 61h127l140 801h-129l12 60l280 20l-16 -100q45 46 115 74t155 28q74 0 126.5 -17.5t81 -46t42 -70.5t13 -85t-10.5 -96l-98 -568h127l-8 -61h-410l8 61h131l99 568q23 124 -10.5 184.5t-128.5 60.5q-28 0 -57 -6t-63.5 -22t-62.5 -41.5t-51.5 -67.5t-32.5 -96 l-100 -580h129l-8 -61h-408zM397 1130q33 80 87.5 132.5t125.5 52.5q38 0 118.5 -41t123.5 -41q33 0 65 23t41 51h50q-79 -185 -207 -185q-42 0 -124.5 41t-125.5 41q-32 0 -63 -23t-39 -51h-52z" />
<glyph unicode="&#xf2;" horiz-adv-x="983" d="M111 322q0 74 20.5 157t64 166.5t102.5 150t145 108.5t184 42q89 0 155 -28.5t103.5 -79t55 -110.5t17.5 -132q0 -71 -21.5 -153.5t-66 -165t-104.5 -149.5t-145.5 -109t-180.5 -42q-89 0 -154.5 27.5t-102.5 76.5t-54.5 109t-17.5 132zM289 328q0 -129 39 -209t123 -80 q85 0 151.5 50t104 133t56.5 179.5t19 200.5q0 82 -15.5 143.5t-54 100.5t-96.5 39q-85 0 -150.5 -50t-102.5 -133t-55.5 -178t-18.5 -196zM451 1249l124 111l226 -301h-88z" />
<glyph unicode="&#xf3;" horiz-adv-x="983" d="M111 322q0 74 20.5 157t64 166.5t102.5 150t145 108.5t184 42q89 0 155 -28.5t103.5 -79t55 -110.5t17.5 -132q0 -71 -21.5 -153.5t-66 -165t-104.5 -149.5t-145.5 -109t-180.5 -42q-89 0 -154.5 27.5t-102.5 76.5t-54.5 109t-17.5 132zM289 328q0 -129 39 -209t123 -80 q85 0 151.5 50t104 133t56.5 179.5t19 200.5q0 82 -15.5 143.5t-54 100.5t-96.5 39q-85 0 -150.5 -50t-102.5 -133t-55.5 -178t-18.5 -196zM416 1059l332 301l83 -111l-329 -190h-86z" />
<glyph unicode="&#xf4;" horiz-adv-x="983" d="M111 322q0 74 20.5 157t64 166.5t102.5 150t145 108.5t184 42q89 0 155 -28.5t103.5 -79t55 -110.5t17.5 -132q0 -71 -21.5 -153.5t-66 -165t-104.5 -149.5t-145.5 -109t-180.5 -42q-89 0 -154.5 27.5t-102.5 76.5t-54.5 109t-17.5 132zM289 328q0 -129 39 -209t123 -80 q85 0 151.5 50t104 133t56.5 179.5t19 200.5q0 82 -15.5 143.5t-54 100.5t-96.5 39q-85 0 -150.5 -50t-102.5 -133t-55.5 -178t-18.5 -196zM342 1075l344 311l242 -311h-78l-195 133l-235 -133h-78z" />
<glyph unicode="&#xf5;" horiz-adv-x="989" d="M111 322q0 74 20.5 157t64 166.5t102.5 150t145 108.5t184 42q89 0 155 -28.5t103.5 -79t55 -110.5t17.5 -132q0 -71 -21.5 -153.5t-66 -165t-104.5 -149.5t-145.5 -109t-180.5 -42q-89 0 -154.5 27.5t-102.5 76.5t-54.5 109t-17.5 132zM289 328q0 -129 39 -209t123 -80 q85 0 151.5 50t104 133t56.5 179.5t19 200.5q0 82 -15.5 143.5t-54 100.5t-96.5 39q-85 0 -150.5 -50t-102.5 -133t-55.5 -178t-18.5 -196zM354 1130q33 80 87.5 132.5t125.5 52.5q38 0 118.5 -41t123.5 -41q33 0 65 23t41 51h50q-79 -185 -207 -185q-42 0 -124.5 41 t-125.5 41q-32 0 -63 -23t-39 -51h-52z" />
<glyph unicode="&#xf6;" horiz-adv-x="987" d="M111 322q0 74 20.5 157t64 166.5t102.5 150t145 108.5t184 42q89 0 155 -28.5t103.5 -79t55 -110.5t17.5 -132q0 -71 -21.5 -153.5t-66 -165t-104.5 -149.5t-145.5 -109t-180.5 -42q-89 0 -154.5 27.5t-102.5 76.5t-54.5 109t-17.5 132zM289 328q0 -129 39 -209t123 -80 q85 0 151.5 50t104 133t56.5 179.5t19 200.5q0 82 -15.5 143.5t-54 100.5t-96.5 39q-85 0 -150.5 -50t-102.5 -133t-55.5 -178t-18.5 -196zM365 1231q9 46 46 77t83 31q43 0 69 -31.5t17 -76.5q-7 -45 -44.5 -77t-80.5 -32q-44 0 -70.5 31.5t-19.5 77.5zM743 1231 q9 45 46.5 76.5t80.5 31.5q45 0 71 -31.5t17 -76.5q-7 -46 -44 -77.5t-83 -31.5q-43 0 -69 32t-19 77z" />
<glyph unicode="&#xf7;" horiz-adv-x="997" d="M113 420l14 76h821l-14 -76h-821zM334 92q7 52 47.5 87.5t93.5 35.5q49 0 76.5 -35t21.5 -88q-9 -52 -50.5 -86.5t-92.5 -34.5q-50 0 -77.5 34.5t-18.5 86.5zM459 809q9 52 47 86.5t88 34.5q53 0 82 -34.5t20 -86.5q-11 -53 -50.5 -88t-90.5 -35t-78 35t-18 88z" />
<glyph unicode="&#xf8;" horiz-adv-x="1005" d="M96 -66l99 132q-84 90 -84 256q0 74 20.5 157t64 166.5t102.5 150t145 108.5t184 42q115 0 192 -49l64 86h88l-99 -131q86 -93 86 -256q0 -71 -21.5 -153.5t-66 -165t-104.5 -149.5t-145.5 -109t-180.5 -42q-112 0 -190 46l-66 -89h-88zM289 328q0 -77 10 -123l446 594 q-44 86 -129 86t-150.5 -50t-102.5 -133t-55.5 -178t-18.5 -196zM326 123q41 -84 125 -84q85 0 151.5 50t104 133t56.5 179.5t19 200.5q0 57 -10 115z" />
<glyph unicode="&#xf9;" horiz-adv-x="1093" d="M156 862l12 62h278l-110 -629q-20 -124 13 -185t126 -61q28 0 57.5 6t64 22t62.5 41t50.5 68t31.5 97l101 579h-127l12 62h279l-152 -863h129l-10 -59l-281 -20l17 100q-45 -46 -116 -74t-157 -28q-73 0 -125.5 17t-80.5 46.5t-42.5 69.5t-12.5 86t9 96l99 567h-127z M496 1249l125 111l225 -301h-88z" />
<glyph unicode="&#xfa;" horiz-adv-x="1093" d="M156 862l12 62h278l-110 -629q-20 -124 13 -185t126 -61q28 0 57.5 6t64 22t62.5 41t50.5 68t31.5 97l101 579h-127l12 62h279l-152 -863h129l-10 -59l-281 -20l17 100q-45 -46 -116 -74t-157 -28q-73 0 -125.5 17t-80.5 46.5t-42.5 69.5t-12.5 86t9 96l99 567h-127z M451 1059l331 301l84 -111l-329 -190h-86z" />
<glyph unicode="&#xfb;" horiz-adv-x="1093" d="M156 862l12 62h278l-110 -629q-20 -124 13 -185t126 -61q28 0 57.5 6t64 22t62.5 41t50.5 68t31.5 97l101 579h-127l12 62h279l-152 -863h129l-10 -59l-281 -20l17 100q-45 -46 -116 -74t-157 -28q-73 0 -125.5 17t-80.5 46.5t-42.5 69.5t-12.5 86t9 96l99 567h-127z M369 1075l344 311l241 -311h-77l-195 133l-236 -133h-77z" />
<glyph unicode="&#xfc;" horiz-adv-x="1093" d="M156 862l12 62h278l-110 -629q-20 -124 13 -185t126 -61q28 0 57.5 6t64 22t62.5 41t50.5 68t31.5 97l101 579h-127l12 62h279l-152 -863h129l-10 -59l-281 -20l17 100q-45 -46 -116 -74t-157 -28q-73 0 -125.5 17t-80.5 46.5t-42.5 69.5t-12.5 86t9 96l99 567h-127z M391 1231q9 46 46 77t83 31q43 0 69 -31.5t17 -76.5q-7 -45 -44.5 -77t-80.5 -32q-44 0 -70.5 31.5t-19.5 77.5zM770 1231q9 45 46.5 76.5t80.5 31.5q45 0 71 -31.5t17 -76.5q-7 -46 -44 -77.5t-83 -31.5q-43 0 -69 32t-19 77z" />
<glyph unicode="&#xfd;" horiz-adv-x="987" d="M-94 -377l51 58q42 -44 66 -58q34 -18 77 -18q56 0 96 39.5t83 117.5l131 242l-199 858h-113l13 62h432l-13 -62h-147l145 -641l344 641h-174l13 62h381l-13 -62h-129l-600 -1112q-62 -112 -119.5 -160.5t-142.5 -48.5q-67 0 -106 20.5t-76 61.5zM446 1059l332 301 l84 -111l-330 -190h-86z" />
<glyph unicode="&#xfe;" horiz-adv-x="1069" d="M-106 -438l12 61h141l301 1733h-143l10 57l299 21l-104 -592q102 102 260 102q85 0 149.5 -24t102.5 -65t61 -96.5t24 -119.5t-8 -133q-13 -77 -39 -150t-68.5 -142.5t-96 -121.5t-127 -83.5t-156.5 -31.5q-95 0 -148.5 28.5t-84.5 80.5l-80 -463h143l-12 -61h-436z M311 276q-19 -108 44 -168.5t167 -60.5q125 0 197.5 97t99.5 257q17 97 17 179.5t-17 149t-59 104.5t-105 38q-46 0 -88.5 -12.5t-83 -38.5t-70 -75t-42.5 -115z" />
<glyph unicode="&#xff;" horiz-adv-x="991" d="M-111 -377l52 58q42 -44 66 -58q34 -18 77 -18q56 0 95 39.5t83 117.5l131 242l-198 858h-113l12 62h432l-12 -62h-147l145 -641l344 641h-174l12 62h381l-12 -62h-129l-600 -1112q-62 -112 -119.5 -160.5t-142.5 -48.5q-67 0 -106.5 21t-76.5 61zM358 1231q9 46 46 77 t83 31q43 0 69 -31.5t17 -76.5q-7 -45 -44 -77t-80 -32q-45 0 -71.5 32t-19.5 77zM737 1231q9 45 46.5 76.5t80.5 31.5q45 0 71 -31.5t17 -76.5q-7 -46 -44 -77.5t-83 -31.5q-43 0 -69 32t-19 77z" />
<glyph unicode="&#x152;" horiz-adv-x="1878" d="M146 462q0 74 14 154q33 195 108 343t166 237q174 174 426 174q88 0 170 -20h948l-65 -361h-74l-55 287h-465l-90 -518h323l27 147h92l-65 -377h-93l27 148h-323l-107 -602h481l158 286h72l-62 -360h-979q-85 -20 -162 -20q-103 0 -185 25.5t-135 71.5t-88.5 105.5 t-49.5 132.5t-14 147zM344 567.5q-4 -101.5 10.5 -196.5t46.5 -167t90.5 -115.5t137.5 -43.5q135 0 212 44t124 116l143 848q-5 42 -14 75t-28 67.5t-46.5 57.5t-72.5 37.5t-103 14.5q-106 0 -190 -42t-140.5 -117t-92.5 -167t-54 -205q-19 -105 -23 -206.5z" />
<glyph unicode="&#x153;" horiz-adv-x="1617" d="M111 322q0 74 20.5 157t64 166.5t102.5 150t145 108.5t184 42q222 0 297 -174q144 172 346 172q161 0 240 -80t79 -225q0 -72 -14 -143h-625q-12 -59 -12 -121q0 -85 22 -157t71.5 -119.5t117.5 -47.5q57 0 112 26.5t94.5 67t67.5 82t41 78.5l64 -2q-11 -38 -30 -77 t-55 -85t-80.5 -81.5t-110.5 -59t-142 -23.5q-116 0 -195.5 49t-119.5 136q-150 -185 -355 -185q-89 0 -154.5 27.5t-102.5 76.5t-54.5 109t-17.5 132zM289 328q0 -129 39 -209t123 -80q85 0 151.5 50t104 133t56.5 179.5t19 200.5q0 82 -15.5 143.5t-54 100.5t-96.5 39 q-85 0 -150.5 -50t-102.5 -133t-55.5 -178t-18.5 -196zM963 563h432q20 88 20 146q0 85 -34 129.5t-111 44.5q-121 0 -197.5 -88t-109.5 -232z" />
<glyph unicode="&#x178;" horiz-adv-x="1218" d="M207 1276l14 74h504l-14 -74h-168l180 -584l397 584h-200l14 74h448l-14 -74h-164l-446 -655l-94 -547h200l-12 -74h-565l12 74h197l86 493l-222 709h-153zM512 1548q9 46 46 77.5t83 31.5q43 0 69 -32t17 -77q-7 -45 -44.5 -76.5t-80.5 -31.5q-45 0 -71 31.5t-19 76.5z M891 1548q9 45 46.5 77t80.5 32q45 0 71 -32t17 -77q-7 -46 -44 -77t-83 -31q-43 0 -69 31.5t-19 76.5z" />
<glyph unicode="&#x2c6;" horiz-adv-x="757" d="M236 1075l344 311l241 -311h-78l-194 133l-236 -133h-77z" />
<glyph unicode="&#x2dc;" horiz-adv-x="749" d="M244 1130q33 80 87.5 132.5t125.5 52.5q38 0 118 -41t123 -41q33 0 65.5 23t41.5 51h49q-79 -185 -207 -185q-42 0 -124.5 41t-125.5 41q-32 0 -63 -23t-39 -51h-51z" />
<glyph unicode="&#x2000;" horiz-adv-x="896" />
<glyph unicode="&#x2001;" horiz-adv-x="1792" />
<glyph unicode="&#x2002;" horiz-adv-x="896" />
<glyph unicode="&#x2003;" horiz-adv-x="1792" />
<glyph unicode="&#x2004;" horiz-adv-x="597" />
<glyph unicode="&#x2005;" horiz-adv-x="448" />
<glyph unicode="&#x2006;" horiz-adv-x="298" />
<glyph unicode="&#x2007;" horiz-adv-x="298" />
<glyph unicode="&#x2008;" horiz-adv-x="224" />
<glyph unicode="&#x2009;" horiz-adv-x="358" />
<glyph unicode="&#x200a;" horiz-adv-x="99" />
<glyph unicode="&#x2010;" horiz-adv-x="608" d="M125 498l12 80h441l-13 -80h-440z" />
<glyph unicode="&#x2011;" horiz-adv-x="608" d="M125 498l12 80h441l-13 -80h-440z" />
<glyph unicode="&#x2012;" horiz-adv-x="608" d="M125 498l12 80h441l-13 -80h-440z" />
<glyph unicode="&#x2013;" horiz-adv-x="829" d="M45 498l12 80h822l-13 -80h-821z" />
<glyph unicode="&#x2014;" horiz-adv-x="1718" d="M102 498l13 80h1595l-12 -80h-1596z" />
<glyph unicode="&#x2018;" horiz-adv-x="442" d="M256 1135q14 70 46 118.5t85 92.5q34 28 69 50.5t54 31.5l18 8l33 -41q-63 -37 -100 -68q-74 -63 -84 -133q8 2 24 2q43 0 71.5 -36t19.5 -81q-9 -50 -47 -82t-93 -32q-52 0 -82 43.5t-14 126.5z" />
<glyph unicode="&#x2019;" horiz-adv-x="442" d="M221 1012q64 36 101 67q74 63 84 133q-9 -2 -25 -2q-43 0 -71 36t-19 81q9 51 47 83t92 32q52 0 82 -43.5t14 -126.5q-14 -70 -46 -118.5t-85 -92.5q-34 -28 -69 -50.5t-54 -30.5l-18 -9z" />
<glyph unicode="&#x201a;" horiz-adv-x="442" d="M-6 -221q63 36 100 67q74 63 84 134q-8 -3 -24 -3q-43 0 -71.5 36t-19.5 81q9 50 47 82.5t93 32.5q52 0 82 -43.5t14 -126.5q-14 -70 -46 -118.5t-85 -92.5q-34 -28 -69 -50.5t-53 -31.5l-19 -8z" />
<glyph unicode="&#x201c;" horiz-adv-x="765" d="M256 1135q14 70 46 118.5t85 92.5q34 28 69 50.5t54 31.5l18 8l33 -41q-63 -37 -100 -68q-74 -63 -84 -133q8 2 24 2q43 0 71.5 -36t19.5 -81q-9 -50 -47 -82t-93 -32q-52 0 -82 43.5t-14 126.5zM573 1135q14 70 46.5 118t85.5 93q34 28 69 50.5t54 31.5l18 8l33 -41 q-64 -37 -101 -68q-74 -63 -84 -133q9 2 25 2q43 0 71 -36t19 -81q-9 -50 -46.5 -82t-92.5 -32q-53 0 -83 43.5t-14 126.5z" />
<glyph unicode="&#x201d;" horiz-adv-x="765" d="M221 1012q64 36 101 67q74 63 84 133q-9 -2 -25 -2q-43 0 -71 36t-19 81q9 51 47 83t92 32q52 0 82 -43.5t14 -126.5q-14 -70 -46 -118.5t-85 -92.5q-34 -28 -69 -50.5t-54 -30.5l-18 -9zM543 1012q63 36 100 67q74 63 84 133q-9 -2 -25 -2q-43 0 -71 36t-19 81 q9 50 47 82.5t93 32.5q52 0 82 -43.5t14 -126.5q-14 -70 -46 -118.5t-85 -92.5q-34 -28 -69.5 -50.5t-53.5 -30.5l-19 -9z" />
<glyph unicode="&#x201e;" horiz-adv-x="765" d="M-6 -221q63 36 100 67q74 63 84 134q-8 -3 -24 -3q-43 0 -71.5 36t-19.5 81q9 50 47 82.5t93 32.5q52 0 82 -43.5t14 -126.5q-14 -70 -46 -118.5t-85 -92.5q-34 -28 -69 -50.5t-53 -31.5l-19 -8zM315 -221q64 36 101 67q74 63 84 134q-9 -3 -25 -3q-43 0 -71 36t-19 81 q9 51 47 83t92 32q53 0 83 -43.5t14 -126.5q-14 -70 -46.5 -118t-85.5 -93q-34 -28 -69 -50.5t-54 -31.5l-18 -8z" />
<glyph unicode="&#x2022;" horiz-adv-x="487" d="M225 616q9 65 63.5 110.5t119.5 45.5q62 0 95.5 -44.5t24.5 -111.5q-9 -65 -62 -109t-118 -44q-63 0 -97.5 43.5t-25.5 109.5z" />
<glyph unicode="&#x2026;" horiz-adv-x="1284" d="M57 94q9 52 51 87.5t93 35.5q50 0 77 -35.5t17 -87.5q-9 -53 -48.5 -88t-90.5 -35t-79 35t-20 88zM475 94q11 53 52.5 88t93.5 35q50 0 78 -35.5t18 -87.5q-7 -52 -49 -87.5t-95 -35.5q-49 0 -77.5 35t-20.5 88zM915 94q11 53 51 88t91 35t78.5 -35.5t17.5 -87.5 q-7 -52 -48.5 -87.5t-92.5 -35.5q-49 0 -77 35t-20 88z" />
<glyph unicode="&#x202f;" horiz-adv-x="358" />
<glyph unicode="&#x2039;" horiz-adv-x="614" d="M145 477l482 395l28 -36l-329 -359l209 -358l-46 -37z" />
<glyph unicode="&#x203a;" horiz-adv-x="614" d="M57 119l330 358l-209 359l45 36l342 -395l-479 -395z" />
<glyph unicode="&#x205f;" horiz-adv-x="448" />
<glyph unicode="&#x20ac;" horiz-adv-x="1224" d="M49 502l14 82h168l5 30q19 103 34 152h-174l15 82h186q42 107 99 196t134.5 164t181 117.5t222.5 42.5q140 0 235 -46.5t148 -117.5l-39 -219h-121q6 84 -12 147.5t-53 99.5t-78 53.5t-92 17.5q-97 0 -176 -35t-134.5 -98.5t-93 -143t-61.5 -178.5h477l-14 -82h-480 q-10 -59 -18 -182h465l-15 -82h-452q2 -96 19.5 -175t50.5 -142t88.5 -98.5t128.5 -35.5q205 0 358 150l49 -51q-177 -173 -420 -173q-109 0 -193.5 29t-138.5 78t-87.5 117t-45 142.5t-6.5 158.5h-174z" />
<glyph unicode="&#x2122;" horiz-adv-x="1165" d="M219 1188l27 153h403l-26 -153h-45l-21 104h-76l-78 -434h70l-8 -49h-217l8 49h66l77 434h-77l-58 -104h-45zM600 809l6 49h60l75 434h-57l8 49h146l82 -403l219 403h149l-8 -49h-59l-76 -434h59l-8 -49h-205l8 49h60l57 336l-205 -383l-55 -2l-76 389l-61 -340h59 l-8 -49h-170z" />
<glyph unicode="&#xe000;" horiz-adv-x="921" d="M0 0v922h922v-922h-922z" />
<glyph unicode="&#xfb01;" horiz-adv-x="1269" d="M-274 -377l57 53q66 -73 160 -73q151 0 190 223l176 1036h-145l10 62h148l32 184q15 87 53.5 153t90 103.5t106 55.5t109.5 18q131 0 209 -82l-60 -53q-62 73 -160 73q-76 0 -123.5 -55t-68.5 -176l-37 -221h277l-13 -62h-276l-172 -991q-15 -87 -53.5 -153t-90 -103.5 t-106 -55.5t-109.5 -18q-129 0 -204 82zM676 0l10 61h162l139 801h-147l12 60l299 20l-152 -881h162l-10 -61h-475zM1004 1229q9 52 50.5 87.5t94.5 35.5q50 0 77.5 -35.5t18.5 -87.5q-9 -53 -50 -88t-93 -35q-50 0 -78.5 35.5t-19.5 87.5z" />
<glyph unicode="&#xfb02;" horiz-adv-x="1204" d="M-274 -377l57 53q66 -73 160 -73q151 0 190 223l176 1036h-145l10 62h148l32 184q15 87 53.5 153t90 103.5t106 55.5t109.5 18q131 0 209 -82l-60 -53q-62 73 -160 73q-76 0 -123.5 -55t-68.5 -176l-37 -221h277l-13 -62h-276l-172 -991q-15 -87 -53.5 -153t-90 -103.5 t-106 -55.5t-109.5 -18q-129 0 -204 82zM668 0l8 61h129l225 1295h-145l12 57l299 21l-238 -1373h127l-6 -61h-411z" />
</font>
</defs>
</svg>
