<?xml version="1.0" standalone="no"?>
<!DOCTYPE svg PUBLIC "-//W3C//DTD SVG 1.1//EN" "http://www.w3.org/Graphics/SVG/1.1/DTD/svg11.dtd" >
<svg xmlns="http://www.w3.org/2000/svg">
<metadata></metadata>
<defs>
<font id="uni_sans_bold_italicitalic" horiz-adv-x="1306" >
<font-face units-per-em="2048" ascent="1548" descent="-500" />
<missing-glyph horiz-adv-x="483" />
<glyph unicode="&#xfb01;" horiz-adv-x="1128" d="M-53 -164l112 -180q238 133 269 346l92 664h188l39 280h-188l16 109q7 55 68 90t149 35l41 280q-83 -1 -156 -15t-138.5 -45.5t-115.5 -77.5t-84 -114t-46 -153l-148 -1053q0 -1 -1.5 -11.5t-2.5 -14.5t-3.5 -14.5t-4.5 -16.5t-6.5 -17t-9 -18t-11.5 -18t-15.5 -19.5 t-19.5 -18t-24 -18.5zM688 0h285l147 1063h-284zM842 1321q10 72 65.5 121t126.5 49q76 0 117.5 -48.5t30.5 -121.5q-9 -73 -65 -122.5t-132 -49.5q-70 0 -111 50t-32 122z" />
<glyph unicode="&#xfb02;" horiz-adv-x="1198" d="M-43 -164q13 9 24 18.5t19.5 18t15.5 19.5t11.5 18t9 18t6.5 17t4.5 16.5t3.5 14.5t2.5 14.5t1.5 11.5l148 1053q12 85 46 153t84 114t115.5 77.5t138.5 45.5t156 15l-41 -280q-88 0 -149 -35t-68 -90l-16 -109h188l-39 -280h-188l-92 -664q-31 -213 -268 -346z M744.5 259q-6.5 64 0.5 134l150 1057h285l-150 -1057q-8 -64 30 -104.5t122 -40.5l-35 -244q-92 -14 -166.5 0t-121 50t-77.5 88.5t-37.5 116.5z" />
<glyph horiz-adv-x="2048" />
<glyph horiz-adv-x="2048" />
<glyph unicode="&#xd;" horiz-adv-x="2048" />
<glyph unicode=" "  horiz-adv-x="483" />
<glyph unicode="&#x09;" horiz-adv-x="483" />
<glyph unicode="&#xa0;" horiz-adv-x="483" />
<glyph unicode="!" horiz-adv-x="593" d="M104 154q11 74 68.5 126t130.5 52q75 0 120 -52t34 -126t-69.5 -125.5t-133.5 -51.5q-73 0 -117 51.5t-33 125.5zM168 391l149 1063h289l-149 -1063h-289z" />
<glyph unicode="&#x22;" horiz-adv-x="780" d="M178 893l78 555h291l-119 -555h-250zM543 893l78 555h290l-116 -555h-252z" />
<glyph unicode="#" horiz-adv-x="1456" d="M63 375l93 272h262q12 24 45 98h-279l99 277h301q49 110 153 356h283l-154 -356h148l153 356h287l-158 -356h248l-117 -277h-256l-41 -98h281l-96 -272h-305q-100 -231 -162 -377h-281l160 377h-147l-162 -377h-283l164 377h-236zM670 629h196l56 135h-199z" />
<glyph unicode="$" horiz-adv-x="1157" d="M61 256l252 174q51 -105 189 -145l45 315q-417 81 -359 455q34 169 168 275t312 134l18 125h195l-19 -123q255 -33 367 -249l-271 -166q-52 93 -137 123l-43 -306q44 -10 81.5 -22t76.5 -28.5t68.5 -37t58 -48t45 -60t29 -74.5t10.5 -90.5t-10 -108.5q-38 -164 -172 -270 t-310 -137l-18 -135h-195l17 127q-125 14 -230 83.5t-168 188.5zM494 1042q-7 -51 18.5 -81.5t77.5 -49.5l37 260q-113 -32 -133 -127v-2zM696 283q55 16 92.5 50.5t47.5 86.5q11 55 -16 87.5t-85 53.5z" />
<glyph unicode="%" horiz-adv-x="1529" d="M82 -14l1216 1540l205 -148l-1218 -1532zM180 1104q24 165 122.5 264.5t232.5 99.5q146 0 212 -95.5t41 -272.5q-24 -169 -123.5 -269t-232.5 -100q-146 0 -211.5 95.5t-40.5 277.5zM381 1102q-22 -156 76 -156q97 0 118 154q20 155 -73 155q-45 0 -78 -38.5t-43 -114.5z M862 365q23 165 122 264.5t233 99.5q146 0 211 -96t40 -273q-24 -169 -123.5 -268.5t-232.5 -99.5q-146 0 -211 95.5t-39 277.5zM1061 362q-19 -155 78 -155q95 0 116 153q23 156 -73 156q-45 0 -77 -38.5t-44 -115.5z" />
<glyph unicode="&#x26;" horiz-adv-x="1284" d="M90 442q19 130 92 220t187 161q-80 141 -62 264q13 87 57 159.5t107.5 118.5t139.5 71.5t155 25.5q152 0 249.5 -99.5t76.5 -254.5q-19 -122 -87 -203.5t-176 -142.5l134 -187l145 150l158 -176l-168 -170l235 -348h-350l-86 125q-91 -84 -184.5 -124t-216.5 -40 q-98 0 -179.5 32t-136.5 89.5t-79.5 142.5t-10.5 186zM375 442q-7 -51 11 -92t55 -61t82.5 -23t98.5 19.5t99 68.5l-191 258q-67 -40 -107.5 -80.5t-47.5 -89.5zM594 1094q-12 -68 55 -160q62 30 108 76t52 94q6 44 -19 72t-69 28q-48 0 -84.5 -31.5t-42.5 -78.5z" />
<glyph unicode="'" horiz-adv-x="440" d="M174 893l78 555h287l-107 -555h-258z" />
<glyph unicode="(" horiz-adv-x="614" d="M150 731q35 247 150 481.5t298 411.5l186 -139q-207 -223 -306 -496t-78 -554.5t159 -530.5l-233 -146q-124 218 -167.5 472t-8.5 501z" />
<glyph unicode=")" horiz-adv-x="579" d="M-80 -96q313 378 372.5 810t-157.5 771l227 139q133 -178 182 -412t15.5 -481t-148.5 -501.5t-300 -471.5z" />
<glyph unicode="*" horiz-adv-x="899" d="M143 1049l111 258l221 -97l12 242h267l-58 -240l246 91l39 -259l-244 -45l137 -190l-233 -160l-104 221l-158 -221l-197 158l187 190z" />
<glyph unicode="+" horiz-adv-x="1234" d="M125 524l41 289h389l53 377h287l-53 -377h372l-40 -289h-373l-53 -381h-287l53 381h-389z" />
<glyph unicode="," horiz-adv-x="577" d="M-47 -250l223 477h320l-256 -477h-287z" />
<glyph unicode="-" horiz-adv-x="720" d="M98 455l41 288h604l-41 -288h-604z" />
<glyph unicode="." horiz-adv-x="559" d="M115 166q11 74 68 125t130 51q74 0 118 -51.5t34 -124.5q-10 -75 -68.5 -126.5t-132.5 -51.5q-73 0 -116.5 51.5t-32.5 126.5z" />
<glyph unicode="/" horiz-adv-x="778" d="M-68 -12l844 1573l254 -95l-842 -1577z" />
<glyph unicode="0" horiz-adv-x="1257" d="M119 422l86 604q12 88 53.5 162.5t100.5 124.5t132 85.5t148.5 51.5t151.5 16t147.5 -16t134.5 -51.5t107.5 -85.5t64.5 -124.5t8 -162.5l-86 -604q-15 -109 -73.5 -195.5t-142 -138t-178.5 -78t-191 -26.5q-76 0 -147 16t-134 51t-107.5 85.5t-65.5 124t-9 161.5z M408 422q-3 -60 40 -101t108.5 -51t133.5 0t122 51t67 101l86 604q6 92 -87 136q-88 41 -200 18q-116 -25 -164 -104q-14 -24 -20 -50z" />
<glyph unicode="1" horiz-adv-x="665" d="M63 1063l426 391h238l-203 -1454h-282l143 1022l-156 -119z" />
<glyph unicode="2" horiz-adv-x="1103" d="M0 158l729 690q76 70 109.5 146t1.5 126q-38 65 -122 75.5t-179 -38t-160 -141.5l-207 155q105 145 250.5 224.5t294.5 74.5q124 -5 216 -46t141.5 -105t65 -148.5t-6 -174t-80.5 -183t-150 -174.5l-428 -360l2 -13q195 21 209 23l346 2l-39 -289h-938z" />
<glyph unicode="3" horiz-adv-x="1153" d="M31 291l248 164q37 -82 109.5 -128t152.5 -46q149 0 227 84q59 64 44 138q-15 76 -99 108q-39 15 -88 18h-203l35 256h202q64 0 113.5 41.5t58.5 105.5t-39 103t-122 39q-185 0 -299 -121l-156 157q60 77 143 133.5t171.5 86t181 31.5t171.5 -24t143 -88t95 -153 q35 -104 -3.5 -216t-162.5 -202q91 -71 129.5 -163.5t26 -183t-66 -177.5t-135 -150.5t-191.5 -97t-225 -22.5q-78 8 -139.5 23.5t-125 48.5t-113.5 92t-83 143z" />
<glyph unicode="4" horiz-adv-x="1130" d="M61 528l830 924h258l-121 -862h98l-36 -264h-99l-45 -322h-289l45 322h-532zM418 569h325l50 305q49 164 59 203l-10 2l-80 -112z" />
<glyph unicode="5" horiz-adv-x="1204" d="M94 283l242 147q35 -72 99.5 -111.5t133.5 -39.5q139 0 220 101q65 81 58 179q-8 101 -89 147q-49 28 -117 29q-78 1 -140.5 -17.5t-176.5 -76.5l-168 -4l114 813h906l-41 -285h-627l-27 -198q85 33 175 38.5t162 -10.5t132 -47q75 -40 123.5 -105t65.5 -140.5t9 -160.5 t-39.5 -165.5t-87.5 -153.5t-128 -127t-168 -83.5t-201 -24.5q-70 3 -132 20t-120.5 50t-104 90.5t-73.5 134.5z" />
<glyph unicode="6" horiz-adv-x="1249" d="M109 428l84 594q15 107 72.5 193t141 139t182.5 81t202 27q331 0 456 -295l-270 -108q-18 53 -60.5 86t-94.5 43.5t-109.5 4t-106.5 -28.5t-83.5 -60t-41.5 -84l-26 -201q68 60 155 89t171.5 26.5t164 -34t136.5 -85t86 -134.5t16 -175l-10 -78q-15 -106 -71 -191.5 t-138.5 -139t-180 -81.5t-200.5 -28q-103 -1 -193.5 27t-159 81t-102 139t-20.5 193zM399 430q-12 -86 82 -129q90 -41 208 -21q125 20 174 93q18 26 22 57l10 74q12 87 -84 130q-89 40 -208 20q-123 -21 -172 -94q-17 -26 -21 -56z" />
<glyph unicode="7" horiz-adv-x="1009" d="M-29 0l785 1163h-629l41 289h942l61 -168l-874 -1284h-326z" />
<glyph unicode="8" horiz-adv-x="1206" d="M84 457q12 83 67.5 168t159.5 147q-64 45 -85 124.5t-5 155.5t55 136q73 112 199 171.5t268 59.5h31q73 0 138 -14.5t121.5 -46t94 -77.5t54 -114.5t4.5 -152.5q-8 -63 -52 -130t-114 -106q92 -49 125 -134.5t20 -186.5q-24 -147 -109.5 -254.5t-210 -161t-272.5 -53.5 h-30q-228 0 -357.5 124.5t-101.5 344.5zM369 442q-11 -84 55 -133t156 -49h30q91 0 172 49.5t92 132.5q9 66 -19 110.5t-76.5 62.5t-114.5 18h-31q-103 0 -177 -46.5t-87 -144.5zM496 1028q-7 -52 19.5 -87t67.5 -49.5t91 -14.5q85 0 156 38t81 113q10 69 -41.5 110.5 t-128.5 41.5h-32q-78 0 -140.5 -41.5t-72.5 -110.5z" />
<glyph unicode="9" horiz-adv-x="1239" d="M111 283l268 108q18 -53 60.5 -86t94.5 -43.5t110 -4t106.5 28.5t82.5 60t41 84l29 201q-70 -59 -157.5 -87.5t-171.5 -26t-163.5 34t-136.5 84.5t-86 133.5t-16 174.5l12 78q15 106 71 191.5t138.5 139t180 81.5t200.5 28q103 1 193.5 -27t159 -81t102 -139t20.5 -193 l-84 -594q-15 -107 -72.5 -193t-141 -139t-182.5 -81t-202 -27q-334 0 -456 295zM461 946q-12 -87 84 -130q89 -40 208 -20q123 21 172 94q17 26 21 56l10 74q13 86 -81 129q-89 41 -208 21q-124 -20 -174 -93q-17 -27 -22 -57z" />
<glyph unicode=":" horiz-adv-x="497" d="M70 190q10 76 68 126.5t132 50.5t118 -50.5t34 -126.5q-10 -73 -69.5 -124.5t-133.5 -51.5q-73 0 -116.5 51t-32.5 125zM158 827q10 73 68 123.5t132 50.5t118 -50.5t34 -123.5q-9 -73 -68 -125.5t-133 -52.5q-73 0 -116.5 52t-34.5 126z" />
<glyph unicode=";" horiz-adv-x="514" d="M-47 -195l180 476h313l-239 -476h-254zM164 803q9 74 67 124t136 50q74 0 115 -50t32 -124q-11 -75 -67.5 -126.5t-131.5 -51.5q-77 0 -119.5 51t-31.5 127z" />
<glyph unicode="&#x3c;" horiz-adv-x="897" d="M129 510l27 188l790 465l-45 -329l-436 -230l373 -221l-47 -332z" />
<glyph unicode="=" horiz-adv-x="1087" d="M106 270l39 279h875l-39 -279h-875zM160 645l39 281h874l-39 -281h-874z" />
<glyph unicode="&#x3e;" horiz-adv-x="907" d="M76 51l47 332l434 221l-371 230l45 329l660 -465l-27 -188z" />
<glyph unicode="?" horiz-adv-x="966" d="M154 1214q101 112 214.5 165t225.5 53q115 0 204.5 -42t135.5 -110.5t67 -152.5t-1 -171t-69 -162.5t-136.5 -130t-204.5 -71.5l-53 -232h-248l41 424q55 -14 125 -14q124 0 197 92q60 75 52 161q-9 88 -86 123q-47 21 -114 15q-110 -10 -189 -102zM229 141 q10 70 63.5 116t121.5 46t108.5 -46t30.5 -116q-9 -67 -62.5 -114t-121.5 -47t-108.5 47t-31.5 114z" />
<glyph unicode="@" horiz-adv-x="1568" d="M114 456q-16 113 13 249q34 166 127.5 320t235 267.5t322 157.5t386.5 -10q137 -35 234.5 -119t140.5 -201q35 -87 31 -193.5t-35.5 -209t-94 -198.5t-145.5 -161q-58 -46 -135 -75t-161 -26t-138 50q-99 -59 -203.5 -42.5t-171.5 87.5q-110 114 -81 304q26 164 139 305 t249 175q158 40 285 -87l53 51l156 -39l-195 -596q79 40 137 102.5t87.5 134t38 151.5t-12.5 155q-21 87 -84.5 146.5t-158.5 86.5q-263 71 -479 -81q-161 -113 -248 -311q-85 -194 -59 -370q27 -181 164 -255q147 -81 390 -13l21 -193q-119 -36 -233.5 -37t-211 30.5 t-175 92.5t-125.5 150t-63 202zM677.5 671q-15.5 -95 24.5 -155q39 -49 110 -43.5t116 51.5l106 303q-28 67 -80.5 87.5t-107 -3t-98.5 -77.5q-55 -68 -70.5 -163z" />
<glyph unicode="A" d="M-29 0l711 1450h289l317 -1450h-315l-82 332h-432q-23 -47 -77 -153.5t-89 -178.5h-322zM573 608h279l-47 316l-12 206h-23l-70 -208z" />
<glyph unicode="B" horiz-adv-x="1269" d="M88 0l203 1452h573q95 0 173 -27.5t133 -79.5q56 -52 80 -134q16 -52 15 -113q0 -35 -5 -72q-6 -44 -26.5 -90t-59.5 -92t-89 -72q61 -32 99 -79t50 -102q10 -46 10 -91v-18q-2 -54 -19 -113q-22 -77 -63.5 -140.5t-107 -116.5t-163.5 -82.5t-219 -29.5h-584zM430 293 h272q129 0 198 81q41 49 41 103q0 17 -4 34q-18 73 -101 101q-38 13 -88 13h-273zM512 883h272q97 0 152 71q33 43 33 87q0 16 -4 32q-18 66 -101 81q-19 3 -41 3h-272z" />
<glyph unicode="C" horiz-adv-x="1196" d="M94 467l72 516q13 92 56 171t105 135.5t140.5 96.5t163.5 59t172 19q74 0 144 -19t132 -56t111 -98t74 -138l-260 -131q-22 57 -70 95t-104 51q-40 9 -82 9q-18 1 -36 -1q-62 -6 -114 -29.5t-89 -66.5t-44 -97l-72 -516q-2 -15 -2 -29q-1 -86 83 -132q60 -33 133 -32 q47 0 99 13q134 34 207 147l240 -145q-112 -147 -262.5 -225t-300.5 -78q-85 0 -163.5 19t-145 59t-113 96t-66.5 135q-13 48 -13 102q0 34 5 70z" />
<glyph unicode="D" horiz-adv-x="1292" d="M86 0l203 1450h532q88 0 165.5 -17t143 -54.5t110 -91.5t63.5 -133q11 -47 12 -100q0 -36 -6 -75l-74 -516q-13 -95 -54 -173t-100 -131t-135 -89.5t-158 -53t-170 -16.5h-532zM428 303h231q70 0 126 15t97.5 52t49.5 93l74 516q2 12 2 23q0 67 -57 103q-66 42 -173 42 h-231z" />
<glyph unicode="E" horiz-adv-x="1171" d="M82 0l203 1452h983l-41 -295h-680l-41 -285h624l-40 -292h-625l-39 -287h680l-41 -293h-983z" />
<glyph unicode="F" horiz-adv-x="1128" d="M82 0l203 1450h981l-41 -293h-678l-45 -319h594l-41 -297h-594l-76 -541h-303z" />
<glyph unicode="G" horiz-adv-x="1341" d="M102 358q-1 17 -1 35q0 36 5 74l74 526q13 92 55 171t104 134.5t140 94.5t162 58t170 19q77 0 146 -16.5t131.5 -51.5t112 -96t77.5 -143l-262 -129q-16 58 -61 96.5t-101 53.5q-43 10 -88 10q-16 0 -32 -1q-63 -5 -116.5 -29t-92 -68.5t-46.5 -102.5l-73 -526 q-2 -14 -2 -27q0 -85 87 -131q66 -35 150 -35q33 0 68 5q133 19 197 98q33 41 40 90l8 68h-329l41 292h624l-49 -360q-32 -224 -222 -358q-163 -116 -379 -126q-22 -1 -43 -1q-182 0 -315 84q-165 103 -180 292z" />
<glyph unicode="H" horiz-adv-x="1404" d="M104 0l203 1450h301l-80 -576h535l80 576h301l-203 -1450h-301l80 573h-535l-79 -573h-302z" />
<glyph unicode="I" horiz-adv-x="536" d="M63 0l203 1450h301l-202 -1450h-302z" />
<glyph unicode="J" horiz-adv-x="1249" d="M49 461l299 57q4 -116 68.5 -180t154.5 -64q97 0 177.5 48.5t91.5 132.5l98 710h-342l41 285h645l-139 -995q-16 -114 -77 -206.5t-148 -150t-188.5 -88t-205.5 -30.5q-93 0 -177 30t-152 87t-107 151q-39 92 -39 207v6z" />
<glyph unicode="K" horiz-adv-x="1265" d="M90 0l203 1450h301l-84 -604l600 604h367l-723 -711l520 -739h-373l-379 539l-63 -56l-68 -483h-301z" />
<glyph unicode="L" horiz-adv-x="1062" d="M82 0l203 1450h301l-162 -1147h627l-41 -303h-928z" />
<glyph unicode="M" horiz-adv-x="1603" d="M90 0l203 1450h315l236 -834l473 834h315l-202 -1450h-302l80 578l76 280h-22l-99 -203l-262 -465h-225l-135 467l-43 199h-21l-6 -281l-80 -575h-301z" />
<glyph unicode="N" horiz-adv-x="1396" d="M88 0l203 1450h297l348 -791l65 -262l21 4q-2 71 -2 178t2 130l104 741h301l-202 -1450h-322l-336 762l-61 196l-21 -4l4 -247l-98 -707h-303z" />
<glyph unicode="O" horiz-adv-x="1396" d="M116 338q-2 22 -2 45q0 34 5 70l76 544q31 223 227 357q168 115 394 126q21 1 42 1q192 0 334 -84q171 -101 192 -284q3 -24 3 -49q0 -33 -5 -67l-75 -544q-32 -222 -228 -355q-169 -116 -395 -127q-23 -1 -46 -1q-191 0 -331 83q-171 101 -191 285zM418 453 q-2 -12 -1 -23q0 -80 93 -125q73 -35 168 -35q35 0 73 5q146 18 215 95q33 37 40 83l75 544q2 12 2 24q0 82 -94 127q-73 35 -167 35q-35 0 -73 -5q-144 -19 -213 -95q-35 -38 -42 -86z" />
<glyph unicode="P" horiz-adv-x="1261" d="M88 0l203 1450h571q245 -1 367 -157q86 -110 86 -263q0 -23 -2 -47q-15 -182 -133 -326q-140 -169 -360 -201q-48 -7 -97 -7h-274l-62 -449h-299zM489 731h273q128 0 201 94q51 66 51 142q0 13 -1 26q-11 93 -91 132q-44 22 -103 22h-272z" />
<glyph unicode="Q" horiz-adv-x="1384" d="M123 453l76 544q31 223 227 357q168 115 394 126q21 1 42 1q192 0 334 -84q171 -101 192 -284q3 -24 3 -49q0 -33 -5 -67l-75 -544q-19 -131 -107 -244l82 -103l-201 -169l-88 110q-93 -44 -199 -63q-80 -14 -156 -14q-27 0 -52 2q-102 6 -194 41t-158 93t-98 148 q-22 61 -22 131q0 33 5 68zM422 453q-2 -11 -2 -22q0 -32 16 -59q20 -36 60 -58t92 -34q46 -10 96 -10h14q57 2 111 15l-94 121l211 153l84 -104l75 542q2 12 2 24q0 82 -94 127q-73 35 -167 35q-35 0 -73 -5q-144 -19 -213 -95q-35 -38 -42 -86z" />
<glyph unicode="R" horiz-adv-x="1277" d="M88 0l203 1450h571q112 0 199.5 -26.5t150.5 -81t90 -144.5q18 -59 18 -132q0 -38 -5 -79q-27 -194 -125.5 -299t-265.5 -137l356 -551h-371l-338 530h-106l-74 -530h-303zM504 805h268q216 0 242 180q3 17 3 33q0 64 -43 94q-49 36 -141 35h-14h-268z" />
<glyph unicode="S" horiz-adv-x="1191" d="M72 256l252 174q29 -60 89 -100q59 -41 127 -52q37 -6 74 -6q30 0 59 4q65 9 113 47t60 97q3 14 3 28q-1 20 -7 36q-10 28 -31 45.5t-59.5 30.5t-73.5 20t-86 14q-400 64 -400 374q0 41 7 87q20 99 78 180t139 132t176 78.5t194 27.5q148 0 266 -62.5t187 -193.5 l-270 -166q-71 137 -224 137q-92 0 -159.5 -36.5t-81.5 -107.5v-2q-4 -32 6 -56.5t25 -38.5t47 -26.5t54.5 -18.5t66.5 -15q6 -1 9.5 -2t9 -2t9.5 -2q40 -8 73.5 -16t70 -19.5t66.5 -25t60 -31t53 -39t43.5 -47.5t32.5 -58t20 -69q7 -33 7 -72v-10q-1 -45 -10 -95 q-23 -99 -84.5 -180t-145.5 -132t-182 -79t-198 -28q-146 0 -270.5 71t-194.5 205z" />
<glyph unicode="T" horiz-adv-x="1155" d="M143 1149l43 303h1135l-43 -303h-416l-160 -1149h-303l160 1149h-416z" />
<glyph unicode="U" horiz-adv-x="1390" d="M153 357q-2 22 -2 46q0 35 5 72l137 975h303l-137 -975q-2 -15 -2 -30q0 -89 85 -137q65 -37 149 -37q30 0 63 5q128 19 194 100q35 43 43 99l137 975h304l-138 -975q-33 -230 -224 -368q-162 -117 -376 -128q-22 -1 -43 -1q-181 0 -315 84q-165 103 -183 295z" />
<glyph unicode="V" horiz-adv-x="1255" d="M119 1452h321l162 -805l16 -299h23l98 299l398 805h321l-727 -1450h-291z" />
<glyph unicode="W" horiz-adv-x="1892" d="M143 1450h312l100 -758l-2 -338h18l97 340q63 142 136 291t126 264h244l98 -559l10 -350h18l89 350l317 760h309l-620 -1450h-295l-109 559l-8 174h-16q-4 -11 -10.5 -29.5t-20 -57.5t-23 -64.5t-10.5 -24.5l-248 -557h-295z" />
<glyph unicode="X" horiz-adv-x="1218" d="M-72 0l529 723l-322 727h367l196 -516l365 516h367l-562 -729q12 -23 162.5 -328.5t196.5 -392.5h-369l-219 512l-340 -512h-371z" />
<glyph unicode="Y" horiz-adv-x="1187" d="M109 1450h346l221 -606l393 606h350l-631 -895l-77 -555h-301l77 555z" />
<glyph unicode="Z" horiz-adv-x="1144" d="M-10 137l866 1034h-684l39 279h1022l65 -137l-870 -1043h694l-37 -270h-1044z" />
<glyph unicode="[" horiz-adv-x="548" d="M23 -223l237 1683h445l-39 -278h-154l-160 -1129h154l-39 -276h-444z" />
<glyph unicode="\" horiz-adv-x="770" d="M80 1464l287 97l401 -1586l-287 -92z" />
<glyph unicode="]" horiz-adv-x="540" d="M-80 -221l39 270h147l160 1141h-149l39 272h442l-238 -1683h-440z" />
<glyph unicode="^" horiz-adv-x="1214" d="M102 807l566 612h174l405 -612h-342l-198 295l-275 -295h-330z" />
<glyph unicode="_" horiz-adv-x="1114" d="M-61 -268l41 284h1028l-41 -284h-1028z" />
<glyph unicode="`" horiz-adv-x="526" d="M68 1444h381l178 -371h-316z" />
<glyph unicode="a" horiz-adv-x="1034" d="M86 362l47 332q15 104 63 180.5t119 119.5t151 63t171 20q94 0 198.5 -28t190.5 -74l-133 -975h-234l-24 86q-77 -92 -219 -92q-72 0 -136.5 24.5t-112 69t-70.5 116.5q-15 47 -15 100q0 28 4 58zM371 362q-1 -7 -1 -13q0 -39 26 -64q30 -29 76 -35q20 -3 41 -3 q25 0 53 4q50 8 83 28l74 524q-31 21 -81 25q-13 1 -27 1q-36 0 -70 -8q-47 -11 -84 -44t-43 -81z" />
<glyph unicode="b" horiz-adv-x="1034" d="M61 55l197 1393h287l-60 -416q73 32 153 36q13 1 26 0q66 0 126 -20q70 -24 124 -68q55 -42 81 -114q17 -48 17 -102q0 -27 -4 -55l-52 -367q-21 -99 -69.5 -172t-115.5 -114.5t-143 -61t-163 -19.5q-203 0 -404 80zM371 209q33 -17 81 -21q11 -1 23 -1q35 1 69 9 q44 12 80 43t44 76l57 408q2 58 -45 89q-46 30 -107 30h-3q-64 -1 -115 -27z" />
<glyph unicode="c" horiz-adv-x="925" d="M78 362l47 334q13 91 60 164.5t114.5 119t145.5 69.5t159 24q61 0 118 -15t109.5 -46.5t88.5 -89.5t45 -136l-254 -75q-7 45 -38.5 73t-72.5 32q-11 1 -21 0l-61 -7q-41 -10 -71.5 -40t-36.5 -71l-45 -333q-1 -10 -1 -20q0 -55 50 -85q34 -20 73 -19q30 1 63 11 q78 26 118 106l237 -82q-37 -77 -91.5 -135t-116.5 -90t-123 -47.5t-121 -15.5q-81 0 -152.5 23.5t-127 68.5t-81.5 118q-18 49 -18 106q0 28 4 58z" />
<glyph unicode="d" horiz-adv-x="1034" d="M94 342l51 367q11 85 57 156.5t113 115.5q67 43 145 67q65 20 130 20h26q78 -4 142 -36l59 416h287l-197 -1393q-220 -80 -424 -80q-87 0 -158 19.5t-126.5 61t-83.5 114.5q-22 58 -22 133q0 19 1 39zM375 315q-1 -7 0 -14q0 -37 21 -63q26 -32 68 -42q32 -9 68 -9 q10 1 22 1q48 4 89 21l84 606q-43 26 -105 27h-4q-60 0 -114 -30q-56 -31 -72 -89z" />
<glyph unicode="e" horiz-adv-x="1011" d="M86 358l47 332q13 93 59.5 168.5t113.5 122.5t145.5 71.5t160.5 24.5t154 -24.5t126 -71t79 -120.5q16 -49 16 -105q0 -29 -4 -60q-15 -106 -83.5 -180.5t-160 -105t-189.5 -30.5q-2 0 -3 -1q-96 0 -174 31l-8 -52q-2 -10 -1 -20q0 -60 59 -89q43 -21 94 -21q31 0 66 8 q91 20 140 79l162 -116q-91 -113 -202.5 -165t-225.5 -52q-80 0 -151 24t-126 70q-54 44 -80 118q-18 49 -18 107q0 27 4 57zM399 608q68 -22 144 -22q60 0 110 30.5t56 81.5q1 8 1 15q0 43 -36 73q-42 36 -96 35q-58 0 -108.5 -37t-57.5 -92z" />
<glyph unicode="f" horiz-adv-x="579" d="M-53 -164q13 9 24 18.5t19.5 18t15.5 19.5t11.5 18t9 18t6.5 17t4.5 16.5t3.5 14.5t2.5 14.5t1.5 11.5l148 1053q12 85 46 153t84 114t115.5 77.5t138.5 45.5t156 15l-41 -280q-88 0 -149 -35t-68 -90l-16 -109h188l-39 -280h-188l-92 -664q-31 -213 -269 -346z" />
<glyph unicode="g" horiz-adv-x="1026" d="M45 -227l162 149q36 -39 99 -57q45 -13 91 -13q16 0 33 2q61 6 110.5 47.5t59.5 112.5q-79 -26 -159 -29h-19q-69 0 -130 19q-69 22 -120 63t-76 109q-16 46 -16 100q0 26 4 54l57 399q14 102 67 177t128.5 113.5t167.5 55.5q63 12 127 12q29 0 57 -3q94 -7 180.5 -30 t153.5 -59l-135 -956q-15 -109 -70.5 -195.5t-131.5 -136.5t-168 -73q-69 -18 -134 -18q-23 0 -45 2q-87 8 -165.5 48t-127.5 107zM358 334q-1 -58 46 -89q47 -30 108 -30h4q63 1 113 27l86 606q-34 18 -82 20q-8 1 -15 1q-40 0 -78 -11q-45 -13 -80.5 -45.5t-43.5 -77.5z " />
<glyph unicode="h" horiz-adv-x="1081" d="M68 0l202 1450h285l-59 -420q78 29 158 33q12 1 23 1q68 0 127 -21q69 -24 120 -70q52 -45 76 -121q15 -48 15 -103q0 -32 -5 -67l-95 -682h-282l94 684q1 10 1 19q0 48 -40 74q-44 29 -103 29h-9q-66 -2 -115 -30l-109 -776h-284z" />
<glyph unicode="i" horiz-adv-x="518" d="M76 0h284l148 1063h-285zM229 1321q10 72 66 121t127 49q76 -1 117 -49q32 -38 32 -91q0 -14 -2 -30q-9 -73 -64.5 -122.5t-131.5 -49.5q-69 0 -111 50q-34 41 -35 97q0 12 2 25z" />
<glyph unicode="j" horiz-adv-x="489" d="M-133 -375q57 -11 107 -11q45 0 84 9q83 18 142.5 71.5t94 126t47.5 161.5l152 1081h-285l-152 -1081q-19 -139 -138 -139q-10 0 -21 1zM213 1303q10 73 67 122.5t128 49.5q72 0 114 -49q35 -41 35 -96q0 -13 -2 -27q-11 -71 -68 -120.5t-129 -49.5q-71 0 -113 50 q-34 40 -34 94q0 13 2 26z" />
<glyph unicode="k" horiz-adv-x="978" d="M70 0l202 1448h285l-111 -789l363 402h332l-494 -512q53 -86 173.5 -273.5t174.5 -275.5h-329l-240 387l-20 -16l-52 -371h-284z" />
<glyph unicode="l" horiz-adv-x="552" d="M106 259q-3 31 -4 63q0 35 4 71l150 1057h285l-150 -1057l-2 -22q0 -49 32 -83q38 -40 122 -40l-35 -244q-46 -7 -88 -7q-40 0 -78 7q-74 14 -121 50t-78 88.5t-37 116.5z" />
<glyph unicode="m" horiz-adv-x="1552" d="M72 0l135 965q77 60 185 96q106 35 206 36q3 0 6 -1q208 -4 264 -146q57 66 135.5 99.5t157.5 33.5q75 0 141 -23t117 -66.5t75 -114.5q16 -46 16 -99q0 -29 -5 -59l-100 -721h-283l101 727q1 7 1 14q0 49 -52 70q-29 12 -60 12q-32 -1 -65 -13q-66 -24 -74 -81 l-103 -729h-272l102 733q1 7 1 13q1 39 -37 63q-38 25 -90 25q-6 0 -14 -1q-60 -4 -99 -40l-111 -793h-278z" />
<glyph unicode="n" horiz-adv-x="1058" d="M70 0l139 1004q202 92 397 92q93 0 170.5 -22t137.5 -66q60 -46 87 -122q18 -50 18 -111q0 -32 -5 -66l-99 -709h-282l98 707q2 12 2 23q0 38 -19 64q-24 34 -65 46q-28 8 -59 7q-14 1 -30 -1q-48 -6 -91 -27l-115 -819h-284z" />
<glyph unicode="o" horiz-adv-x="1024" d="M92 360l49 345q13 91 59.5 164.5t114 119t146 69.5t160.5 25q81 -1 152 -25t125 -70q54 -44 80 -118q17 -49 18 -106q0 -28 -5 -59l-49 -345q-13 -92 -59 -165.5t-113 -118t-145 -68t-160 -24.5q-81 1 -152.5 24.5t-126.5 67.5q-54 44 -80 118q-18 49 -18 107q0 29 4 59z M377 354q-1 -7 -1 -15q0 -39 33 -67q39 -32 93 -32q52 0 100 32.5t55 81.5l50 351q1 6 1 13q0 39 -34 63q-38 28 -92 28q-56 0 -103 -28t-53 -76z" />
<glyph unicode="p" horiz-adv-x="1042" d="M-6 -389l192 1393q221 79 426 79q88 0 158 -19t126 -60.5t84 -114.5q22 -58 22 -133q0 -19 -1 -39l-51 -367q-11 -85 -57.5 -156.5t-113.5 -115.5t-144 -68q-65 -19 -131 -19q-12 0 -25 1q-79 4 -143 35l-57 -416h-285zM367 233q31 -19 77 -23h21q35 0 69 8 q45 12 81.5 43t48.5 75l57 407q1 6 1 12q0 37 -24 65q-26 31 -68 42q-32 10 -70 10q-9 0 -20 -1q-48 -3 -87 -21z" />
<glyph unicode="q" horiz-adv-x="1038" d="M90 350l51 367q21 99 69.5 172t116 114.5t143 60.5t163.5 19q206 0 401 -79l-194 -1393h-287l57 416q-73 -31 -153 -35q-13 -1 -25 -1q-66 0 -125 19q-70 24 -124.5 68t-80.5 116q-17 46 -17 98q0 28 5 58zM373 336q-1 -44 26.5 -75t68.5 -43q31 -8 67 -8h21q48 4 85 23 l86 617q-35 18 -83 21q-9 1 -19 1q-37 0 -73 -10q-45 -11 -80 -42.5t-42 -76.5z" />
<glyph unicode="r" horiz-adv-x="673" d="M51 0l99 700q14 111 82 197t165 133q62 26 117 37h2q31 10 100 10q70 0 148 -18l-33 -232q-39 11 -78 11q-53 0 -107 -20q-92 -36 -114 -122l-96 -696h-285z" />
<glyph unicode="s" horiz-adv-x="813" d="M8 160l162 184q82 -90 188 -113q28 -6 52 -6q65 0 92 47q16 25 16 49q0 19 -10 37q-22 40 -90 50q-88 16 -153 53t-99 86q-32 49 -44 107q-6 28 -6 56q0 30 6 60q12 58 46.5 112.5t84.5 96t121 67.5t152 27q6 0 12 1q78 0 159 -24q87 -26 153 -87l-170 -195 q-21 24 -61 42q-41 18 -83 24q-9 1 -17 1q-33 0 -61 -17q-36 -21 -48 -70q-7 -29 16.5 -54t53 -37.5t55.5 -17.5q265 -71 265 -266q0 -22 -3 -45q-24 -165 -148.5 -256.5t-283.5 -91.5q-246 0 -357 180z" />
<glyph unicode="t" horiz-adv-x="624" d="M106 373l152 1077h283l-56 -389h189l-39 -285h-189l-57 -401q-2 -17 -2 -32q0 -67 43 -101q36 -28 95 -27q29 0 63 6l-31 -207q-92 -31 -170 -31q-16 0 -32 1q-91 8 -153 50t-88 130q-16 52 -15 117q0 43 7 92z" />
<glyph unicode="u" horiz-adv-x="1046" d="M109 373l96 688h284l-96 -690q-1 -8 -1 -17q0 -52 33 -88q38 -42 98 -50q18 -3 37 -3q44 0 93 14l117 834h283l-140 -1000q-73 -25 -151 -43.5t-163 -27.5q-59 -6 -113 -6q-24 0 -48 1q-76 4 -143.5 28.5t-112.5 68.5q-46 44 -66 118q-12 44 -13 97q0 36 6 76z" />
<glyph unicode="v" horiz-adv-x="956" d="M72 1061h303l82 -535l4 -274h20l78 274l232 535h305l-527 -1061h-268z" />
<glyph unicode="w" horiz-adv-x="1370" d="M100 1061h281l53 -449v-256h12l60 258l196 447h207l70 -445l-14 -260h12l76 258l170 447h284l-467 -1061h-260l-35 383l13 289h-15l-65 -289l-137 -383h-258z" />
<glyph unicode="x" horiz-adv-x="968" d="M-68 0l418 530q-14 26 -44.5 91t-86 175.5t-139.5 264.5h321l115 -242l25 -100h12l51 100q18 23 76.5 105.5t97.5 136.5h334l-426 -529q41 -72 140.5 -265t142.5 -267h-338l-107 221l-26 109h-15l-63 -113q-70 -94 -166 -217h-322z" />
<glyph unicode="y" horiz-adv-x="1034" d="M59 -227l162 145q36 -39 99 -56q43 -13 87 -13q18 0 37 3q61 7 110.5 49t59.5 113q-79 -26 -159 -29h-19q-69 0 -130 19q-69 22 -120 63t-76 109q-16 46 -16 100q0 26 4 54l103 731h274l-102 -727q-1 -58 47 -89q46 -30 106 -30h4q63 1 113 27l115 819h286l-143 -1022 q-15 -109 -70.5 -195.5t-131.5 -136.5t-168 -73q-69 -18 -134 -18q-23 0 -45 2q-87 8 -165.5 48t-127.5 107z" />
<glyph unicode="z" horiz-adv-x="878" d="M-6 102l538 715h-401l33 244h710l68 -100l-543 -717h428l-32 -244h-736z" />
<glyph unicode="{" horiz-adv-x="595" d="M92 483l37 273q64 0 98 46t43 116l35 245q22 146 97.5 222.5t230.5 76.5h137l-39 -272h-131q-2 -14 -4 -37l-39 -270q-11 -81 -62.5 -158.5t-117.5 -106.5q135 -58 106 -262l-39 -276q-3 -26 -12 -31h139l-39 -270h-155q-150 0 -197.5 75t-25.5 222l34 246 q19 161 -96 161z" />
<glyph unicode="|" horiz-adv-x="501" d="M29 -299l247 1757h285l-248 -1757h-284z" />
<glyph unicode="}" horiz-adv-x="579" d="M-45 -221l39 270h100q12 0 15 31l38 276q10 87 57 160t128 105q-58 40 -90.5 112.5t-20.5 149.5l39 270q3 37 -2 37h-106l38 272h109q96 0 154 -21t80 -60t25.5 -94.5t-9.5 -123.5l-35 -245q-20 -162 98 -162l-37 -273q-124 0 -143 -161l-35 -246q-11 -73 -31 -124 t-57.5 -92t-100 -61t-151.5 -20h-102z" />
<glyph unicode="~" horiz-adv-x="954" d="M106 604q165 199 316 199q44 0 86 -16.5t66 -33.5t55 -44q48 -39 92.5 -26.5t103.5 77.5l142 -135q-153 -217 -330 -217q-101 0 -182 81q-28 28 -54.5 35.5t-61 -8.5t-75.5 -61z" />
<glyph unicode="&#xa1;" horiz-adv-x="569" d="M55 -375l142 1016h288l-141 -1016h-289zM201 879q11 74 66.5 124t131.5 50q75 0 119 -50t33 -124q-10 -76 -68 -126.5t-133 -50.5q-76 0 -118 50t-31 127z" />
<glyph unicode="&#xa2;" horiz-adv-x="948" d="M106 362l48 334q15 106 76.5 187.5t145 125.5t181.5 58l12 98h185l-15 -104q101 -24 171 -91.5t83 -183.5l-254 -75q-9 47 -39 71l-71 -506q42 28 67 82l238 -82q-56 -116 -147 -184t-195 -92l-17 -109h-184l15 103q-69 10 -127.5 37.5t-101.5 72.5t-62.5 111.5 t-8.5 146.5zM393 365q-11 -70 49 -105l76 539q-68 -33 -80 -101z" />
<glyph unicode="&#xa3;" horiz-adv-x="976" d="M4 0l37 276h174l43 304h-174l39 270h174l14 108q9 61 30 120.5t61 119t94 103.5t134.5 72t176.5 28q195 0 301 -180l-186 -154q-45 62 -114.5 68.5t-128.5 -40t-77 -126.5l-16 -119h274l-39 -270h-274l-43 -304h459l-37 -276h-922z" />
<glyph unicode="&#xa4;" horiz-adv-x="1148" d="M29 336l110 100q-49 113 -28 254q18 135 102 254l-2 4l-86 94l217 205l96 -110q115 63 256 63q136 0 242 -65l127 110l158 -203l-117 -100q52 -107 33 -252q-21 -143 -105 -256l4 -4v2l86 -94l-215 -203l-96 111q-118 -66 -260 -66q-138 0 -242 64l-8 -11l-115 -96z M391 688q-13 -95 45.5 -163t153.5 -68q94 0 171.5 68t90.5 163q13 98 -45 167t-152 69q-96 0 -173.5 -69t-90.5 -167z" />
<glyph unicode="&#xa5;" horiz-adv-x="1150" d="M86 1450h346l221 -606l394 606h350l-486 -688h144l-70 -205h-219v-2l-12 -76h260l-66 -200h-221l-39 -279h-301l39 279h-258l68 200h217l12 76l-2 2h-256l69 205h101z" />
<glyph unicode="&#xa6;" horiz-adv-x="446" d="M20 -244l109 781h287l-109 -781h-287zM147 664l101 712h287l-101 -712h-287z" />
<glyph unicode="&#xa7;" horiz-adv-x="960" d="M20 61l236 121q50 -133 186 -133q46 0 83.5 26t43.5 70q4 24 -8 45.5t-41.5 42.5t-54.5 35.5t-70 36.5q-125 60 -174 100q-117 94 -96 244q23 166 180 228q-95 66 -80 200q16 111 86 196.5t165.5 128t197.5 42.5q105 0 181 -50t128 -167l-223 -111q-20 46 -59.5 63 t-78 6.5t-69.5 -40.5t-37 -68q-5 -39 37.5 -72.5t126.5 -74.5q68 -34 104.5 -56.5t84.5 -64.5t65.5 -96t7.5 -123q-9 -64 -52 -122t-108 -91q52 -64 68.5 -136t-0.5 -137.5t-59 -126.5t-102 -105t-134.5 -70.5t-151.5 -26.5q-129 0 -234.5 74.5t-148.5 211.5zM385 659 q-4 -29 15.5 -49.5t56.5 -42.5l153 -78q47 26 65 53.5t8 52.5t-33.5 46t-59.5 39v2l-98 61q-40 -17 -72 -40.5t-35 -43.5z" />
<glyph unicode="&#xa8;" horiz-adv-x="804" d="M131 1292q10 70 64.5 118t123.5 48q68 0 109 -48t31 -118q-9 -67 -64 -114.5t-123 -47.5q-69 0 -109.5 47t-31.5 115zM604 1292q11 71 65 118.5t124 47.5t111 -47.5t30 -118.5q-9 -68 -64 -115t-125 -47t-110 47t-31 115z" />
<glyph unicode="&#xa9;" horiz-adv-x="1583" d="M139 719q28 198 150.5 367.5t306.5 268.5t383 99q148 0 276 -58.5t212.5 -157.5t124 -235t18.5 -284q-28 -199 -151 -368.5t-306 -268t-381 -98.5q-200 0 -355.5 98.5t-230.5 267.5t-47 369zM350 719q-20 -143 33 -264t164.5 -191.5t255.5 -70.5q142 0 272 70.5 t217 191.5t107 264q20 144 -33 264.5t-163.5 190t-252.5 69.5q-220 0 -394.5 -152.5t-205.5 -371.5zM467 600q-10 -67 4 -123.5t46.5 -96t79 -67t100.5 -40.5t114 -13q61 0 122 14.5t120 44t108 81.5t78 120l-186 74q-17 -38 -46 -66.5t-63.5 -42.5t-72 -18.5t-71.5 3.5 t-61.5 24t-43.5 43t-15 61l31 231q13 47 53 81t90.5 44.5t100 5t87 -39t45.5 -86.5l203 73q-19 132 -119 196t-231 64q-60 0 -118 -13t-112.5 -40.5t-98 -67t-73.5 -96t-40 -123.5z" />
<glyph unicode="&#xaa;" horiz-adv-x="700" d="M145 913q10 69 44.5 121t81 79t101 39.5t105 9.5t92.5 -17q5 53 -40 74t-108 8t-110 -51l-100 106q48 60 114.5 98.5t134 51t133 1.5t113.5 -44t73 -92.5t14 -135.5l-68 -477q-72 -19 -140.5 -30t-140 -13.5t-128.5 12t-100.5 44t-62.5 84.5t-8 132zM367 907 q-6 -40 18 -62t58 -22t67 6l20 136q-30 11 -64 11.5t-63.5 -18.5t-35.5 -51z" />
<glyph unicode="&#xab;" horiz-adv-x="1101" d="M78 592l381 469l225 -148l-264 -321q152 -287 174 -326l-268 -145zM547 592l379 469l227 -148l-266 -325l12 -19q7 -15 30 -55.5t61.5 -109t74.5 -134.5l-270 -149z" />
<glyph unicode="&#xac;" horiz-adv-x="1161" d="M106 578l41 284h994l-82 -577h-285l41 293h-709z" />
<glyph unicode="&#xad;" horiz-adv-x="681" d="M57 358l41 289h604l-40 -289h-605z" />
<glyph unicode="&#xae;" horiz-adv-x="1599" d="M139 719q28 198 150.5 367.5t306.5 268.5t383 99q148 0 276 -58.5t212.5 -157.5t124 -235t18.5 -284q-28 -199 -151 -368.5t-306 -268t-381 -98.5q-200 0 -355.5 98.5t-230.5 267.5t-47 369zM358 719q-20 -141 33 -261.5t163.5 -190.5t252.5 -70q140 0 269.5 70 t216 190.5t106.5 261.5q15 106 -12.5 202.5t-87.5 166t-150 110.5t-195 41q-142 0 -272 -69t-217 -189t-107 -262zM524 346l105 733h332q68 0 120 -21.5t80 -57.5t41 -80.5t4.5 -92.5t-29.5 -91.5t-60.5 -80t-90.5 -55.5l139 -254h-237l-125 240h-43l-35 -240h-201zM782 750 h125q58 0 82 49q22 43 -1 78q-19 28 -60 28h-123z" />
<glyph unicode="&#xaf;" horiz-adv-x="657" d="M139 1153l39 289h633l-39 -289h-633z" />
<glyph unicode="&#xb0;" horiz-adv-x="714" d="M160 1137q19 135 124.5 227t239.5 92q133 0 214.5 -92.5t62.5 -226.5q-19 -131 -128 -226.5t-239 -95.5q-134 0 -214 94.5t-60 227.5zM381 1135q-5 -40 20 -68.5t66 -28.5t73.5 28.5t37.5 68.5q6 40 -18.5 70t-65.5 30t-74 -30t-39 -70z" />
<glyph unicode="&#xb1;" horiz-adv-x="1150" d="M78 57l41 285h911l-41 -285h-911zM170 698l41 287h307l41 293h287l-41 -293h313l-41 -287h-313l-41 -290h-287l41 290h-307z" />
<glyph unicode="&#xb2;" horiz-adv-x="731" d="M90 659l367 361q72 70 56 116q-11 33 -55 29q-60 -5 -110 -75l-166 161q139 179 342 179q148 0 227 -91.5t60 -220.5q-20 -141 -139 -231l-137 -115h243l-37 -268h-616z" />
<glyph unicode="&#xb3;" horiz-adv-x="710" d="M109 705l202 116q17 -42 64 -55t90 7t49 61q2 20 -11 37t-36 14h-105l29 205h103q30 0 45.5 29.5t1.5 58t-56 26.5q-32 -1 -62 -15.5t-48 -35.5l-137 131q77 72 136 105.5t136 37.5q69 4 129.5 -20.5t96 -69t48 -99t-13.5 -116.5t-90 -116q75 -37 96 -106.5t-6 -141 t-86 -129.5q-91 -87 -212.5 -108.5t-223.5 28.5t-139 156z" />
<glyph unicode="&#xb4;" horiz-adv-x="536" d="M125 1057l268 393h371l-336 -393h-303z" />
<glyph unicode="&#xb5;" horiz-adv-x="1032" d="M-6 -383l201 1440h290l-90 -643q-14 -96 52 -133q55 -31 122 -3q72 30 94 106l5 26l90 647h291l-146 -1061l-254 2l-12 70q-36 -54 -97.5 -76.5t-118 -2t-77.5 82.5l-63 -455h-287z" />
<glyph unicode="&#xb6;" horiz-adv-x="1251" d="M121 965q13 93 56.5 179t113.5 155t173 110t224 41h658l-230 -1634h-289l191 1364h-123l-190 -1364h-291l94 665q-108 7 -190 50.5t-128 111t-64 150.5t-5 172z" />
<glyph unicode="&#xb7;" horiz-adv-x="550" d="M154 629q11 76 68 127t134 51q75 0 117 -51t31 -127q-11 -74 -67 -124t-130 -50q-77 0 -120.5 50t-32.5 124z" />
<glyph unicode="&#xb8;" horiz-adv-x="514" d="M-96 -346q15 29 40.5 71t35.5 60q77 -58 151 -36q46 14 57 48q13 40 -38 64q-45 22 -127 22l149 230h256l-72 -121q68 -17 98.5 -63t23.5 -101.5t-40 -112.5t-84 -98q-59 -48 -137.5 -62.5t-162.5 10.5t-150 89z" />
<glyph unicode="&#xb9;" horiz-adv-x="577" d="M131 1167l297 281h219l-127 -903h-274l76 536l-109 -57z" />
<glyph unicode="&#xba;" horiz-adv-x="763" d="M125 915l35 246q14 98 77 169t145.5 103.5t172.5 32.5q141 0 235 -80.5t74 -224.5l-35 -246q-14 -97 -77 -168t-146 -104t-172 -33q-141 0 -235 81t-74 224zM401 915q-5 -43 30.5 -61.5t75 -1t46.5 62.5l35 244q6 45 -29.5 64t-75.5 0.5t-47 -62.5z" />
<glyph unicode="&#xbb;" horiz-adv-x="1056" d="M12 266l269 324l-175 323l265 148l250 -469l-379 -469zM477 270l264 322q-142 269 -174 323l269 146l247 -469l-381 -471z" />
<glyph unicode="&#xbc;" horiz-adv-x="1636" d="M131 1180l84 -144l109 58l-76 -537h274l127 903h-219zM176 51l1065 1422l219 -144l-1065 -1421zM809 362l94 -184h330l-25 -178h275l24 178h74l33 240h-74l76 540h-232zM1118 410l195 192l8 -2l-31 -190h-172z" />
<glyph unicode="&#xbd;" horiz-adv-x="1687" d="M131 1180l84 -144l109 58l-76 -537h274l127 903h-219zM193 53l1064 1420l218 -144l-1067 -1421zM973 158l37 -152h596l36 260h-229l135 111q118 90 138 223q18 124 -61.5 212.5t-225.5 88.5q-202 0 -334 -172l164 -156q47 66 105 72q44 4 55 -27q16 -45 -54 -112z" />
<glyph unicode="&#xbe;" horiz-adv-x="1683" d="M68 713q39 -110 146.5 -161.5t235 -29t222.5 112.5q62 59 90 132.5t5.5 145t-101.5 109.5q67 55 94.5 119t14.5 120t-50.5 102t-101 71.5t-136.5 21.5q-80 -4 -143 -38.5t-143 -108.5l145 -135q20 21 52 36.5t65 16.5q43 2 58 -28t-1 -60.5t-47 -30.5h-108l-31 -211h110 q25 3 38 -14.5t10 -38.5q-6 -42 -51 -62.5t-94 -7t-66 56.5zM301 53l1065 1420l211 -144l-1065 -1421zM909 350l88 -178h334l-22 -172h241l23 172h72l32 231h-71l73 523h-215zM1206 395l187 187l8 -2l-29 -185h-166z" />
<glyph unicode="&#xbf;" horiz-adv-x="995" d="M43 -72q21 -84 67 -152.5t135.5 -110.5t203.5 -42q244 0 440 217l-164 156q-77 -92 -188 -102q-129 -11 -179 72q-40 69 -8 158q33 91 120 135q53 26 116 26q66 0 125 -15l41 424h-248l-53 -231q-114 -17 -203 -71.5t-135.5 -130t-68.5 -162.5t-1 -171zM494 922 q9 70 63.5 117.5t126.5 47.5q69 0 110.5 -47.5t32.5 -117.5q-10 -70 -65.5 -119t-124.5 -49q-72 0 -113 48.5t-30 119.5z" />
<glyph unicode="&#xc0;" d="M-29 0h322q35 72 89 178.5t77 153.5h432l82 -332h315l-317 1450h-289zM485 1833h357l174 -313h-295zM573 608l127 314l70 208h23l6 -206l53 -316h-279z" />
<glyph unicode="&#xc1;" d="M-29 0l711 1450h289l317 -1450h-315l-82 332h-432q-23 -47 -77 -153.5t-89 -178.5h-322zM573 608h279l-53 316l-6 206h-23l-70 -208zM668 1511l258 342h362l-323 -342h-297z" />
<glyph unicode="&#xc2;" d="M-29 0h322q35 72 89 178.5t77 153.5h432l82 -332h315l-317 1450h-289zM444 1507l349 324h170l258 -324h-295l-78 113l-103 -113h-301zM573 608l127 314l70 208h23l10 -206l49 -316h-279z" />
<glyph unicode="&#xc3;" d="M-29 0h322q35 72 89 178.5t77 153.5h432l82 -332h315l-317 1450h-289zM530 1575q31 103 93 155t137 62q35 4 69 -7.5t58.5 -26t49.5 -24.5t53 -1t59 43l135 -70q-90 -191 -232 -205q-32 -3 -66 12t-59.5 31.5t-53 26.5t-58 -5t-62.5 -61zM573 608l127 314l70 208h23 l16 -206l43 -316h-279z" />
<glyph unicode="&#xc4;" d="M-29 0h322q35 72 89 178.5t77 153.5h432l82 -332h315l-317 1450h-289zM489 1653q9 64 58 107.5t112 43.5q64 0 102.5 -43.5t29.5 -107.5q-9 -62 -59.5 -105t-113.5 -43t-100.5 43t-28.5 105zM573 608l127 314l70 208h23l12 -206l47 -316h-279zM924 1653q9 65 57.5 108 t112.5 43q65 0 102.5 -43.5t28.5 -107.5q-9 -62 -58.5 -105t-113.5 -43t-101 43t-28 105z" />
<glyph unicode="&#xc5;" d="M-29 0h322q35 72 89 178.5t77 153.5h432l82 -332h315l-317 1450h-289zM573 608l127 314l70 208h23l12 -206l47 -316h-279zM612 1741q14 103 100 178.5t191 75.5q103 0 165 -77.5t48 -178.5q-14 -100 -97 -176t-185 -76q-105 0 -170.5 75.5t-51.5 178.5zM786 1739 q-5 -30 14.5 -57t55.5 -27q33 0 62.5 25t33.5 59q4 37 -17 62.5t-54 25.5q-38 0 -64 -24.5t-31 -63.5z" />
<glyph unicode="&#xc6;" horiz-adv-x="1613" d="M-102 0l946 1450h893l-43 -303h-533l-37 -273h480l-43 -301h-480l-39 -274h533l-41 -299h-813l57 418h-270l-250 -418h-360zM674 707h162l51 356l-21 2z" />
<glyph unicode="&#xc7;" horiz-adv-x="1196" d="M94 467l72 516q13 92 56 171t105 135.5t140.5 96.5t163.5 59t172 19q74 0 144 -19t132 -56t111 -98t74 -138l-260 -131q-22 57 -69.5 95t-104 51t-118.5 7.5t-114 -29t-89 -66.5t-44 -97l-72 -516q-16 -107 81.5 -160.5t231 -19.5t207.5 147l240 -145q-93 -124 -217 -199 t-256 -96l-35 -60q64 -15 93 -56t23 -90.5t-37 -100.5t-79 -88q-56 -43 -130 -56t-154 9.5t-144 80.5q11 18 34 54.5t38 62.5q74 -52 144 -32q46 14 55 46q10 36 -43 57q-42 17 -113 17l112 162q-84 18 -152.5 56t-118.5 95.5t-71.5 138.5t-7.5 177z" />
<glyph unicode="&#xc8;" horiz-adv-x="1171" d="M82 0l203 1452h983l-41 -295h-680l-41 -285h624l-40 -292h-625l-39 -287h680l-41 -293h-983zM451 1837h358l174 -321h-297z" />
<glyph unicode="&#xc9;" horiz-adv-x="1171" d="M82 0l203 1452h983l-41 -295h-680l-41 -285h624l-40 -292h-625l-39 -287h680l-41 -293h-983zM610 1518l246 321h352l-311 -321h-287z" />
<glyph unicode="&#xca;" horiz-adv-x="1171" d="M82 0l203 1452h983l-41 -295h-680l-41 -285h624l-40 -292h-625l-39 -287h680l-41 -293h-983zM395 1516l359 294h180l274 -294h-325l-70 79l-94 -79h-324z" />
<glyph unicode="&#xcb;" horiz-adv-x="1171" d="M82 0l203 1452h983l-41 -295h-680l-41 -285h624l-40 -292h-625l-39 -287h680l-41 -293h-983zM446 1632q7 60 54.5 101t109.5 41t99 -41t30 -101q-9 -57 -57.5 -96t-110.5 -39t-98 39t-27 96zM868 1632q8 60 55.5 101t110.5 41t101 -41t30 -101q-9 -57 -58 -96t-112 -39 t-99.5 39t-27.5 96z" />
<glyph unicode="&#xcc;" horiz-adv-x="536" d="M61 0l203 1450h299l-203 -1450h-299zM72 1839h329l168 -319h-268z" />
<glyph unicode="&#xcd;" horiz-adv-x="536" d="M74 0l202 1450h299l-202 -1450h-299zM291 1520l258 319h330l-320 -319h-268z" />
<glyph unicode="&#xce;" horiz-adv-x="536" d="M25 1516l350 311h174l264 -311h-299l-82 108l-102 -108h-305zM63 0l203 1450h301l-202 -1450h-302z" />
<glyph unicode="&#xcf;" horiz-adv-x="536" d="M63 0l203 1450h301l-202 -1450h-302zM70 1655q9 65 58.5 109t113.5 44q63 0 100.5 -43.5t28.5 -109.5q-9 -64 -59 -109t-113 -45t-100.5 45t-28.5 109zM504 1655q9 66 58 109.5t114 43.5t101.5 -43.5t27.5 -109.5q-9 -65 -58.5 -109.5t-113.5 -44.5t-101 44.5t-28 109.5z " />
<glyph unicode="&#xd0;" horiz-adv-x="1267" d="M68 586l36 262h95l84 602h577q110 0 196 -27t148 -82t87.5 -145.5t8.5 -210.5l-73 -522q-13 -96 -49 -173.5t-88.5 -131t-121.5 -89.5t-146.5 -52.5t-164.5 -16.5h-577l82 586h-94zM424 303h274q102 0 159 37.5t69 122.5l73 522q12 87 -34 124.5t-148 37.5h-274l-41 -299 h180l-37 -262h-180z" />
<glyph unicode="&#xd1;" horiz-adv-x="1411" d="M88 0l203 1450h297l348 -791l65 -262l21 4q-2 71 -2 178t2 130l104 741h301l-202 -1450h-322l-336 762l-61 196l-21 -4l4 -247l-98 -707h-303zM557 1569q32 103 93 155t138 62q34 4 68 -7.5t58.5 -26.5t50 -25t53.5 -1t59 43l133 -69q-90 -192 -231 -205q-32 -3 -65.5 12 t-59 31.5t-53 26.5t-58 -5t-63.5 -61z" />
<glyph unicode="&#xd2;" horiz-adv-x="1396" d="M116 338q-6 55 3 115l76 544q31 223 227 357q168 115 394 126q219 10 376 -83q171 -101 192 -284q6 -56 -2 -116l-75 -544q-32 -222 -228 -355q-169 -116 -395 -127q-220 -11 -377 82q-171 101 -191 285zM418 453q-15 -97 92 -148q101 -48 241 -30q146 18 215 95 q33 37 40 83l75 544q15 100 -92 151q-100 48 -240 30q-144 -19 -213 -95q-35 -38 -42 -86zM516 1837h356l172 -305h-292z" />
<glyph unicode="&#xd3;" horiz-adv-x="1396" d="M116 338q-6 55 3 115l76 544q31 223 227 357q168 115 394 126q219 10 376 -83q171 -101 192 -284q6 -56 -2 -116l-75 -544q-32 -222 -228 -355q-169 -116 -395 -127q-220 -11 -377 82q-171 101 -191 285zM418 453q-15 -97 92 -148q101 -48 241 -30q146 18 215 95 q33 37 40 83l75 544q15 100 -92 151q-100 48 -240 30q-144 -19 -213 -95q-35 -38 -42 -86zM694 1534l240 305h342l-303 -305h-279z" />
<glyph unicode="&#xd4;" horiz-adv-x="1396" d="M116 338q-6 55 3 115l76 544q31 223 227 357q168 115 394 126q219 10 376 -83q171 -101 192 -284q6 -56 -2 -116l-75 -544q-32 -222 -228 -355q-169 -116 -395 -127q-220 -11 -377 82q-171 101 -191 285zM418 453q-15 -97 92 -148q101 -48 241 -30q146 18 215 95 q33 37 40 83l75 544q15 100 -92 151q-100 48 -240 30q-144 -19 -213 -95q-35 -38 -42 -86zM426 1520l379 317h188l289 -317h-324l-90 110l-110 -110h-332z" />
<glyph unicode="&#xd5;" horiz-adv-x="1396" d="M116 338q-6 55 3 115l76 544q31 223 227 357q168 115 394 126q219 10 376 -83q171 -101 192 -284q6 -56 -2 -116l-75 -544q-32 -222 -228 -355q-169 -116 -395 -127q-220 -11 -377 82q-171 101 -191 285zM418 453q-15 -97 92 -148q101 -48 241 -30q146 18 215 95 q33 37 40 83l75 544q15 100 -92 151q-100 48 -240 30q-144 -19 -213 -95q-35 -38 -42 -86zM569 1606q31 103 93 155t139 62q34 4 68 -7.5t58 -26.5t49 -25t52.5 -1t58.5 43l136 -69q-90 -191 -232 -205q-32 -3 -66 12t-59.5 31.5t-53 26.5t-58 -5t-62.5 -61z" />
<glyph unicode="&#xd6;" horiz-adv-x="1396" d="M116 338q-6 55 3 115l76 544q31 223 227 357q168 115 394 126q219 10 376 -83q171 -101 192 -284q6 -56 -2 -116l-75 -544q-32 -222 -228 -355q-169 -116 -395 -127q-220 -11 -377 82q-171 101 -191 285zM418 453q-15 -97 92 -148q101 -48 241 -30q146 18 215 95 q33 37 40 83l75 544q15 100 -92 151q-100 48 -240 30q-144 -19 -213 -95q-35 -38 -42 -86zM498 1661q9 64 59 107.5t115 43.5q63 0 101.5 -43.5t29.5 -107.5q-7 -61 -59 -104.5t-115 -43.5q-64 0 -101.5 43t-29.5 105zM938 1661q9 65 58.5 108t115.5 43t104 -43t29 -108 q-8 -62 -59 -105t-117 -43q-65 0 -102 43t-29 105z" />
<glyph unicode="&#xd7;" horiz-adv-x="1075" d="M82 334l309 268l-237 277l227 198l237 -272l308 270l172 -203l-303 -266l227 -266l-229 -201l-230 267l-313 -277z" />
<glyph unicode="&#xd8;" horiz-adv-x="1402" d="M137 453l76 544q16 117 79.5 211.5t156 152.5t201.5 89t224 31q77 0 136 -11l86 162l268 -100l-92 -172q165 -130 131 -363l-76 -544q-17 -116 -81.5 -210.5t-157.5 -153t-202.5 -89.5t-223.5 -31q-53 0 -132 11q0 -1 -1 -2.5t-1 -2.5l-86 -163l-268 100l98 178 q-169 142 -135 363zM434 428q-4 -27 2 -45l420 799h-22q-123 -2 -215 -49t-105 -136zM686 270h19q76 0 144 20t117.5 62.5t59.5 100.5l78 561q3 27 0 47z" />
<glyph unicode="&#xd9;" horiz-adv-x="1380" d="M153 357q-6 56 3 118l137 975h303l-137 -975q-16 -111 83 -167q89 -50 212 -32q128 19 194 100q35 43 43 99l137 975h304l-138 -975q-33 -230 -224 -368q-162 -117 -376 -128q-208 -11 -358 83q-165 103 -183 295zM512 1833h369l180 -322h-305z" />
<glyph unicode="&#xda;" horiz-adv-x="1378" d="M153 357q-6 56 3 118l137 975h303l-137 -975q-16 -111 83 -167q89 -50 212 -32q128 19 194 100q35 43 43 99l137 975h304l-138 -975q-33 -230 -224 -368q-162 -117 -376 -128q-208 -11 -358 83q-165 103 -183 295zM690 1511l262 324h379l-332 -324h-309z" />
<glyph unicode="&#xdb;" horiz-adv-x="1376" d="M153 357q-6 56 3 118l137 975h303l-137 -975q-16 -111 83 -167q89 -50 212 -32q128 19 194 100q35 43 43 99l137 975h304l-138 -975q-33 -230 -224 -368q-162 -117 -376 -128q-208 -11 -358 83q-165 103 -183 295zM418 1507l381 330h190l289 -330h-326l-88 115l-114 -115 h-332z" />
<glyph unicode="&#xdc;" horiz-adv-x="1376" d="M153 357q-6 56 3 118l137 975h303l-137 -975q-16 -111 83 -167q89 -50 212 -32q128 19 194 100q35 43 43 99l137 975h304l-138 -975q-33 -230 -224 -368q-162 -117 -376 -128q-208 -11 -358 83q-165 103 -183 295zM481 1679q9 70 63.5 118t123.5 48q68 0 109 -48t32 -118 q-9 -67 -63.5 -114t-122.5 -47q-69 0 -110 46.5t-32 114.5zM954 1679q9 71 63 118.5t124 47.5t111 -47.5t32 -118.5q-9 -68 -63.5 -114.5t-124.5 -46.5t-110.5 46.5t-31.5 114.5z" />
<glyph unicode="&#xdd;" horiz-adv-x="1179" d="M109 1450h346l221 -606l393 606h350l-631 -895l-77 -555h-301l77 555zM582 1507l249 316h357l-314 -316h-292z" />
<glyph unicode="&#xde;" horiz-adv-x="1105" d="M74 2l205 1462h303l-35 -247q27 2 67 2q289 0 423 -121t102 -355q-15 -106 -62.5 -189t-112.5 -134.5t-150.5 -84.5t-172 -46t-182.5 -13h-45l-37 -274h-303zM455 561h39q60 0 113.5 8.5t104.5 27.5t85 56.5t41 89.5q6 44 -8.5 77.5t-41 53.5t-65.5 32.5t-76.5 17 t-79.5 4.5q-36 0 -61 -2z" />
<glyph unicode="&#xdf;" horiz-adv-x="1148" d="M80 0l147 1055q26 201 196 319q144 101 330 105q182 3 301 -88q141 -108 123 -302q-1 -11 -3 -22q-30 -196 -193 -303q107 -58 147 -158t17.5 -205.5t-92.5 -199.5q-102 -136 -275 -182.5t-329 18.5l40 289q38 -38 97.5 -46t114.5 9.5t97.5 60.5t49.5 99q11 83 -38.5 123 t-141.5 40h-144l37 277h144q60 0 114.5 55t63.5 123q13 90 -66 131q-71 36 -161 10q-94 -26 -128 -100q-11 -25 -14 -53l-147 -1055h-287z" />
<glyph unicode="&#xe0;" horiz-adv-x="1048" d="M86 362q-12 -87 11 -158.5t70.5 -116t112 -69t136.5 -24.5q142 0 219 92l24 -86h234l133 975q-86 46 -190.5 74t-198.5 28q-91 0 -171 -20t-151 -63t-119 -119.5t-63 -180.5zM371 362l47 334q6 48 43 81t84 44t96.5 7t81.5 -25l-74 -524q-33 -20 -82.5 -28t-95 -1.5 t-75.5 35.5t-25 77zM375 1444h305l141 -297h-252z" />
<glyph unicode="&#xe1;" horiz-adv-x="1048" d="M86 362l47 332q15 104 63 180.5t119 119.5t151 63t171 20q94 0 198.5 -28t190.5 -74l-133 -975h-234l-24 86q-77 -92 -219 -92q-72 0 -136.5 24.5t-112 69t-70.5 116t-11 158.5zM371 362q-5 -48 25 -77t75.5 -35.5t95 1.5t82.5 28l74 524q-32 21 -81.5 25t-96.5 -7 t-84 -44t-43 -81zM471 1147l227 297h306l-281 -297h-252z" />
<glyph unicode="&#xe2;" horiz-adv-x="1048" d="M86 362q-12 -87 11 -158.5t70.5 -116t112 -69t136.5 -24.5q142 0 219 92l24 -86h234l133 975q-86 46 -190.5 74t-198.5 28q-91 0 -171 -20t-151 -63t-119 -119.5t-63 -180.5zM299 1143l315 280h156l238 -280h-269l-71 96l-95 -96h-274zM371 362l47 334q6 48 43 81t84 44 t96.5 7t81.5 -25l-74 -524q-33 -20 -82.5 -28t-95 -1.5t-75.5 35.5t-25 77z" />
<glyph unicode="&#xe3;" horiz-adv-x="1048" d="M86 362q-12 -87 11 -158.5t70.5 -116t112 -69t136.5 -24.5q142 0 219 92l24 -86h234l133 975q-86 46 -190.5 74t-198.5 28q-91 0 -171 -20t-151 -63t-119 -119.5t-63 -180.5zM369 1239q62 181 225 199q33 4 65.5 -7.5t55.5 -26t47.5 -24t52.5 -1t59 41.5l125 -69 q-87 -181 -227 -191q-31 -2 -63.5 12.5t-56.5 31t-50 26.5t-55.5 -3.5t-61.5 -56.5zM371 362l47 334q6 48 43 81t84 44t96.5 7t81.5 -25l-74 -524q-33 -20 -82.5 -28t-95 -1.5t-75.5 35.5t-25 77z" />
<glyph unicode="&#xe4;" horiz-adv-x="1048" d="M86 362q-12 -87 11 -158.5t70.5 -116t112 -69t136.5 -24.5q142 0 219 92l24 -86h234l133 975q-86 46 -190.5 74t-198.5 28q-91 0 -171 -20t-151 -63t-119 -119.5t-63 -180.5zM307 1303q9 61 58 103t112 42q62 0 99 -42t28 -103q-7 -58 -56.5 -99t-111.5 -41 q-63 0 -100 40.5t-29 99.5zM371 362l47 334q6 48 43 81t84 44t96.5 7t81.5 -25l-74 -524q-33 -20 -82.5 -28t-95 -1.5t-75.5 35.5t-25 77zM735 1303q9 62 57.5 103.5t112.5 41.5t101 -41.5t28 -103.5q-8 -59 -57 -99.5t-113 -40.5t-100.5 40.5t-28.5 99.5z" />
<glyph unicode="&#xe5;" horiz-adv-x="1048" d="M86 362l47 332q12 86 47 153t87.5 111t114 70.5t134.5 38.5q-45 30 -66 76.5t-14 101.5q12 87 86.5 149t169.5 62q92 0 148 -64.5t45 -148.5q-7 -53 -42.5 -100.5t-86.5 -75.5q139 -23 270 -92l-133 -975h-234l-24 86q-77 -92 -219 -92q-72 0 -136.5 24.5t-112 69 t-70.5 116t-11 158.5zM371 362q-5 -48 25 -77t75.5 -35.5t95 1.5t82.5 28l74 524q-32 21 -81.5 25t-96.5 -7t-84 -44t-43 -81zM582 1243q-3 -25 18 -47t53 -22q30 0 55 20t29 49q4 32 -14.5 53t-48.5 21q-34 0 -61 -21t-31 -53z" />
<glyph unicode="&#xe6;" horiz-adv-x="1562" d="M88 362l47 332q15 104 63 180.5t119 119.5t151 63t171 20q165 0 272 -78q128 78 277 78q82 0 154 -24.5t126 -71t79 -120.5t12 -165q-12 -85 -60.5 -151t-117 -102t-148 -53t-157 -11t-140.5 31l-8 -52q-11 -76 61 -110.5t166.5 -16t144.5 77.5l160 -110 q-91 -113 -202.5 -165t-225.5 -52q-140 0 -241 67l-13 -53h-143l2 90q-77 -92 -219 -92q-72 0 -136.5 24.5t-112 69t-70.5 116t-11 158.5zM373 362q-7 -64 43.5 -96.5t121.5 -27t126 42.5q-3 32 4 77l47 332q10 65 26 109q-39 28 -92.5 34.5t-102 -7t-84.5 -48t-42 -82.5z M965 614q68 -22 153 -22q61 0 110.5 27.5t55.5 78.5q7 52 -34.5 87.5t-96.5 35.5q-59 0 -115 -37.5t-63 -91.5z" />
<glyph unicode="&#xe7;" horiz-adv-x="913" d="M78 362l47 334q13 91 60 164.5t114.5 119t145.5 69.5t159 24q61 0 118 -15t109.5 -46.5t88.5 -89.5t45 -136l-254 -75q-7 45 -38.5 73t-72.5 31.5t-82 -6.5t-71.5 -40t-36.5 -71l-45 -333q-10 -70 48.5 -104.5t136.5 -9t118 106.5l237 -82q-56 -118 -149 -185.5 t-199 -90.5l-18 -29q58 -13 84.5 -46t21 -73t-32.5 -81t-69 -70q-71 -54 -183.5 -48.5t-199.5 75.5q10 19 29.5 47.5t29.5 46.5q72 -44 137 -24q40 12 44 39q5 29 -45 45q-37 12 -97 12l80 106q-132 30 -206.5 123t-53.5 239z" />
<glyph unicode="&#xe8;" horiz-adv-x="1009" d="M84 358q-13 -90 13.5 -163.5t81 -119t125.5 -69.5t151 -24q114 0 225.5 52t202.5 165l-162 116q-49 -59 -140.5 -79t-160.5 13t-58 109l9 52q79 -31 177 -30.5t189.5 31t160 105t83.5 180.5q13 91 -12 165t-79 120.5t-126 71t-154 24.5t-160.5 -24.5t-145.5 -71.5 t-113.5 -122.5t-59.5 -168.5zM324 1444h305l141 -297h-252zM399 614l11 78q7 55 57 92t108 37q56 0 97.5 -35.5t34.5 -87.5q-6 -51 -55.5 -78.5t-110.5 -27.5q-74 0 -142 22z" />
<glyph unicode="&#xe9;" horiz-adv-x="1009" d="M84 358l47 332q13 93 59.5 168.5t113.5 122.5t145.5 71.5t160.5 24.5t154 -24.5t126 -71t79 -120.5t12 -165q-15 -106 -83.5 -180.5t-160 -105t-189.5 -31t-177 30.5l-9 -52q-11 -76 58 -109t160.5 -13t140.5 79l162 -116q-91 -113 -202.5 -165t-225.5 -52q-80 0 -151 24 t-125.5 69.5t-81 119t-13.5 163.5zM399 614q68 -22 142 -22q61 0 110.5 27.5t55.5 78.5q7 52 -34.5 87.5t-97.5 35.5q-58 0 -108 -37t-57 -92zM444 1147l228 303h305l-281 -303h-252z" />
<glyph unicode="&#xea;" horiz-adv-x="1009" d="M84 358q-13 -90 13.5 -163.5t81 -119t125.5 -69.5t151 -24q114 0 225.5 52t202.5 165l-162 116q-49 -59 -140.5 -79t-160.5 13t-58 109l9 52q79 -31 177 -30.5t189.5 31t160 105t83.5 180.5q13 91 -12 165t-79 120.5t-126 71t-154 24.5t-160.5 -24.5t-145.5 -71.5 t-113.5 -122.5t-59.5 -168.5zM264 1130l318 297h157l236 -297h-268l-76 80l-92 -80h-275zM399 614l11 78q7 55 57 92t108 37q56 0 97.5 -35.5t34.5 -87.5q-6 -51 -55.5 -78.5t-110.5 -27.5q-74 0 -142 22z" />
<glyph unicode="&#xeb;" horiz-adv-x="1009" d="M84 358q-13 -90 13.5 -163.5t81 -119t125.5 -69.5t151 -24q114 0 225.5 52t202.5 165l-162 116q-49 -59 -140.5 -79t-160.5 13t-58 109l9 52q79 -31 177 -30.5t189.5 31t160 105t83.5 180.5q13 91 -12 165t-79 120.5t-126 71t-154 24.5t-160.5 -24.5t-145.5 -71.5 t-113.5 -122.5t-59.5 -168.5zM274 1282q9 62 58.5 103.5t113.5 41.5t103.5 -42t30.5 -103q-7 -58 -58 -98.5t-114 -40.5q-64 0 -103 40t-31 99zM399 614l11 78q7 55 57 92t108 37q56 0 97.5 -35.5t34.5 -87.5q-6 -51 -55.5 -78.5t-110.5 -27.5q-74 0 -142 22zM709 1282 q9 62 58.5 103.5t115.5 41.5t105 -42t30 -103q-8 -59 -58 -99t-116 -40t-104.5 40t-30.5 99z" />
<glyph unicode="&#xec;" horiz-adv-x="471" d="M59 1403h332l129 -277h-272zM66 0l147 1059h291l-148 -1059h-290z" />
<glyph unicode="&#xed;" horiz-adv-x="471" d="M66 0l147 1059h291l-148 -1059h-290zM217 1135l207 276h332l-267 -276h-272z" />
<glyph unicode="&#xee;" horiz-adv-x="471" d="M25 1124l311 303h151l230 -303h-262l-70 78l-90 -78h-270zM66 0l147 1059h291l-148 -1059h-290z" />
<glyph unicode="&#xef;" horiz-adv-x="471" d="M66 0l147 1059h291l-148 -1059h-290zM82 1286q7 60 55 102t107 42q58 0 93.5 -42t27.5 -102q-7 -57 -55 -98t-107 -41q-58 0 -93.5 41t-27.5 98zM426 1286q7 60 52 100.5t104 40.5q60 0 95.5 -40.5t27.5 -100.5q-8 -57 -55 -97t-107 -40q-58 0 -91.5 39.5t-25.5 97.5z " />
<glyph unicode="&#xf0;" horiz-adv-x="1034" d="M113 342l55 399q12 85 55.5 153.5t106.5 109.5t138 63t154.5 19t151.5 -29q14 91 -47 139l-39 -82l-151 41l34 74q-98 -13 -165 -80l-119 149q76 77 179.5 117.5t209.5 38.5l53 115l154 -43l-47 -101q116 -42 177.5 -143.5t39.5 -249.5l-133 -956q-66 -31 -144.5 -53 t-160.5 -31t-160 -5.5t-145.5 27t-116 64t-70.5 108.5t-10 156zM387 336q-5 -45 21 -77.5t67 -45.5t89.5 -10.5t88.5 20.5l84 606q-43 26 -105.5 27t-118 -30t-71.5 -89z" />
<glyph unicode="&#xf1;" horiz-adv-x="1048" d="M70 0h284l111 799q42 21 91 26t90 -6.5t65.5 -46t17.5 -86.5l-96 -686h282l97 688q14 101 -13.5 177.5t-87.5 121t-138 66.5t-171 22q-193 0 -395 -92zM377 1182q29 99 86.5 149t128.5 58q32 4 63 -7t53.5 -25t46 -23.5t49.5 -1t54 41.5l123 -67q-79 -181 -215 -195 q-29 -3 -60 11t-54.5 30t-49 25.5t-54 -4.5t-59.5 -58z" />
<glyph unicode="&#xf2;" horiz-adv-x="1017" d="M92 360q-13 -92 13.5 -165.5t81 -118t126 -68t152.5 -24.5q82 1 160 24.5t145 68t113 118t59 165.5l49 345q13 91 -13 164.5t-80 119t-125 69.5t-152 25q-82 -1 -160.5 -25t-146 -69.5t-114 -119t-59.5 -164.5zM299 1395h332l162 -262h-273zM377 354l49 351q6 48 53 76 t103 28q54 0 92.5 -28t32.5 -76l-50 -351q-7 -49 -55 -81.5t-100 -32.5q-54 0 -93 32.5t-32 81.5z" />
<glyph unicode="&#xf3;" horiz-adv-x="1017" d="M92 360l49 345q13 91 59.5 164.5t114 119t146 69.5t160.5 25q81 -1 152 -25t125 -69.5t80 -119t13 -164.5l-49 -345q-13 -92 -59 -165.5t-113 -118t-145 -68t-160 -24.5q-81 1 -152.5 24.5t-126 68t-81 118t-13.5 165.5zM377 354q-7 -49 32 -81.5t93 -32.5q52 0 100 32.5 t55 81.5l50 351q6 48 -32.5 76t-92.5 28q-56 0 -103 -28t-53 -76zM487 1133l236 262h332l-295 -262h-273z" />
<glyph unicode="&#xf4;" horiz-adv-x="1021" d="M92 360q-13 -92 13.5 -165.5t81 -118t126 -68t152.5 -24.5q82 1 160 24.5t145 68t113 118t59 165.5l49 345q13 91 -13 164.5t-80 119t-125 69.5t-152 25q-82 -1 -160.5 -25t-146 -69.5t-114 -119t-59.5 -164.5zM274 1124l312 297h151l230 -297h-262l-70 78l-90 -78h-271z M377 354l49 351q6 48 53 76t103 28q54 0 92.5 -28t32.5 -76l-50 -351q-7 -49 -55 -81.5t-100 -32.5q-54 0 -93 32.5t-32 81.5z" />
<glyph unicode="&#xf5;" horiz-adv-x="1017" d="M92 360q-13 -92 13.5 -165.5t81 -118t126 -68t152.5 -24.5q82 1 160 24.5t145 68t113 118t59 165.5l49 345q13 91 -13 164.5t-80 119t-125 69.5t-152 25q-82 -1 -160.5 -25t-146 -69.5t-114 -119t-59.5 -164.5zM360 1188q30 103 87 154t128 61q32 4 63 -7.5t53 -26 t45.5 -24.5t50 -1t55.5 42l121 -67q-83 -190 -215 -203q-29 -3 -60 11.5t-54.5 31t-49 26.5t-53.5 -4.5t-58 -60.5zM377 354l49 351q6 48 53 76t103 28q54 0 92.5 -28t32.5 -76l-50 -351q-7 -49 -55 -81.5t-100 -32.5q-54 0 -93 32.5t-32 81.5z" />
<glyph unicode="&#xf6;" horiz-adv-x="1028" d="M92 360q-13 -92 13.5 -165.5t81 -118t126 -68t152.5 -24.5q82 1 160 24.5t145 68t113 118t59 165.5l49 345q13 91 -13 164.5t-80 119t-125 69.5t-152 25q-82 -1 -160.5 -25t-146 -69.5t-114 -119t-59.5 -164.5zM299 1264q9 62 56 103.5t108 41.5t96.5 -41.5t26.5 -103.5 q-8 -59 -55 -100.5t-107 -41.5t-96.5 41.5t-28.5 100.5zM377 354l49 351q6 48 53 76t103 28q54 0 92.5 -28t32.5 -76l-50 -351q-7 -49 -55 -81.5t-100 -32.5q-54 0 -93 32.5t-32 81.5zM713 1264q9 63 55.5 104t108.5 41t97.5 -41t26.5 -104q-8 -59 -55 -100.5t-108 -41.5 t-97 41.5t-28 100.5z" />
<glyph unicode="&#xf7;" horiz-adv-x="1093" d="M109 494l41 290h919l-41 -290h-919zM360 262q12 77 72 126.5t137 51.5q75 0 120.5 -51.5t35.5 -126.5q-10 -76 -70.5 -129t-134.5 -53q-76 0 -123 53t-37 129zM461 1018q10 74 71.5 126t135.5 52t119.5 -52t35.5 -126q-10 -75 -71.5 -129.5t-135.5 -54.5t-119.5 54.5 t-35.5 129.5z" />
<glyph unicode="&#xf8;" horiz-adv-x="1017" d="M92 360l49 345q13 91 59.5 164.5t114 119t146 69.5t160.5 25q53 0 102 -12l49 94l186 -67l-61 -111q117 -102 94 -282l-49 -345q-13 -92 -59 -165.5t-113 -118t-145 -68t-160 -24.5q-43 0 -98 10l-54 -103l-186 72l61 113q-122 100 -96 284zM385 422l197 387 q-56 5 -103 -25t-53 -79zM500 240h2q57 -4 102 29.5t53 84.5l39 277z" />
<glyph unicode="&#xf9;" horiz-adv-x="1034" d="M109 373q-14 -99 6.5 -173.5t66 -118t113 -68t143.5 -28.5t161 5t163 27.5t151 43.5l140 1000h-283l-117 -834q-70 -20 -130 -11.5t-98 51t-32 104.5l96 690h-284zM303 1370h332l162 -262h-273z" />
<glyph unicode="&#xfa;" horiz-adv-x="1034" d="M109 373l96 688h284l-96 -690q-6 -62 32 -104.5t98 -51t130 11.5l117 834h283l-140 -1000q-73 -25 -151 -43.5t-163 -27.5t-161 -5t-143.5 28.5t-113 68t-66 118t-6.5 173.5zM496 1108l235 262h332l-295 -262h-272z" />
<glyph unicode="&#xfb;" horiz-adv-x="1032" d="M109 373q-14 -99 6.5 -173.5t66 -118t113 -68t143.5 -28.5t161 5t163 27.5t151 43.5l140 1000h-283l-117 -834q-70 -20 -130 -11.5t-98 51t-32 104.5l96 690h-284zM295 1128l311 297h152l229 -297h-262l-70 78l-90 -78h-270z" />
<glyph unicode="&#xfc;" horiz-adv-x="1032" d="M109 373q-14 -99 6.5 -173.5t66 -118t113 -68t143.5 -28.5t161 5t163 27.5t151 43.5l140 1000h-283l-117 -834q-70 -20 -130 -11.5t-98 51t-32 104.5l96 690h-284zM297 1266q9 64 57.5 105.5t112.5 41.5q62 0 100 -41.5t29 -105.5q-7 -60 -56.5 -102t-111.5 -42 q-63 0 -101 42t-30 102zM750 1266q9 64 57 105.5t113 41.5t102.5 -41.5t28.5 -105.5q-8 -60 -57 -102t-113 -42t-101.5 41.5t-29.5 102.5z" />
<glyph unicode="&#xfd;" horiz-adv-x="1042" d="M59 -227l162 145q36 -39 98.5 -56.5t124 -10t111 49.5t59.5 113q-79 -26 -159 -29t-149 19t-120 63t-75.5 109.5t-12.5 153.5l103 731h274l-102 -727q-1 -58 46.5 -89t110.5 -30t113 27l115 819h286l-143 -1022q-15 -109 -70.5 -195.5t-131.5 -136.5t-168 -73.5 t-179 -15.5t-165.5 48t-127.5 107zM496 1108l235 262h332l-295 -262h-272z" />
<glyph unicode="&#xfe;" horiz-adv-x="1044" d="M16 -350l254 1800h285l-59 -428q66 35 159 35q81 0 150 -23t121.5 -67.5t76.5 -118t11 -166.5l-45 -322q-14 -110 -88 -197.5t-175.5 -132t-207.5 -44.5q-103 0 -144 32l-53 -368h-285zM387 252q35 -24 82.5 -29.5t91.5 7.5t79 48t44 84l47 334q1 46 -23 78.5t-62.5 45 t-87.5 7t-95 -29.5z" />
<glyph unicode="&#xff;" horiz-adv-x="1042" d="M59 -227l162 145q36 -39 98.5 -56.5t124 -10t111 49.5t59.5 113q-79 -26 -159 -29t-149 19t-120 63t-75.5 109.5t-12.5 153.5l103 731h274l-102 -727q-1 -58 46.5 -89t110.5 -30t113 27l115 819h286l-143 -1022q-15 -109 -70.5 -195.5t-131.5 -136.5t-168 -73.5 t-179 -15.5t-165.5 48t-127.5 107zM254 1266q9 64 57.5 105.5t112.5 41.5q62 0 100 -41.5t29 -105.5q-7 -60 -56.5 -102t-111.5 -42q-63 0 -101 42t-30 102zM735 1266q9 64 57 105.5t113 41.5t102.5 -41.5t28.5 -105.5q-8 -60 -57 -102t-113 -42t-101.5 41.5t-29.5 102.5z " />
<glyph unicode="&#x152;" horiz-adv-x="1804" d="M129 422l84 592q13 94 62.5 175.5t118 136t153 89t166.5 42t159.5 -13.5t131.5 -71l10 76h895l-43 -303h-617l-39 -273h562l-41 -301h-562l-39 -270h617l-41 -301h-895l8 70q-96 -59 -204 -77t-201 7.5t-165 80t-105.5 145t-14.5 196.5zM432 426q-9 -59 29 -101 t99.5 -59.5t137.5 -17.5q97 0 154 55l115 817q-33 33 -84 53.5t-107 20.5q-95 0 -174 -51.5t-88 -130.5z" />
<glyph unicode="&#x153;" horiz-adv-x="1574" d="M104 360l50 345q13 91 59.5 164.5t113.5 119t145.5 69.5t160.5 25q84 -2 156 -35t110 -98q111 127 297 127q82 0 154 -24.5t126 -71t79 -120.5t12 -165q-12 -85 -59.5 -151t-114 -102t-144.5 -53t-154 -11t-139 31l-8 -52q-11 -76 58 -109t160.5 -13t140.5 79l161 -116 q-91 -113 -202.5 -165t-225.5 -52q-42 0 -72.5 3.5t-69.5 14t-70 37t-52 67.5q-66 -69 -137.5 -93.5t-161.5 -26.5q-81 1 -152.5 24.5t-126 68t-81 118t-13.5 165.5zM389 354q-7 -49 32 -81.5t93 -32.5q50 0 97.5 31.5t56.5 76.5l2 6l47 336l2 19q4 46 -34.5 73t-90.5 27 q-56 0 -103 -28t-53 -76zM985 614q68 -22 141 -22q61 0 110.5 27.5t55.5 78.5q7 52 -34.5 87.5t-96.5 35.5q-58 0 -108.5 -37t-57.5 -92z" />
<glyph unicode="&#x178;" horiz-adv-x="1116" d="M57 1450h349l229 -559q42 63 174 254h-2q156 220 211 305h350l-629 -881l-80 -569h-303l80 569q-64 151 -196.5 457.5t-182.5 423.5zM352 1655q11 74 67.5 124t129.5 50q71 0 113 -50.5t32 -123.5q-10 -72 -66.5 -121t-127.5 -49q-73 0 -116 49t-32 121zM791 1655 q11 74 67 124t129 50q72 0 115 -50.5t33 -123.5q-10 -72 -67.5 -121t-129.5 -49q-73 0 -115.5 49t-31.5 121z" />
<glyph unicode="&#x2c6;" horiz-adv-x="903" d="M121 1059l409 389h201l299 -389h-344l-92 135l-121 -135h-352z" />
<glyph unicode="&#x2dc;" horiz-adv-x="624" d="M141 1235q31 103 93 155t139 62q34 4 68 -7.5t58.5 -26t50 -24.5t53.5 -1t59 43l133 -70q-90 -191 -232 -205q-32 -3 -65.5 12t-59 31.5t-53 26.5t-58 -5t-63.5 -61z" />
<glyph unicode="&#x2000;" horiz-adv-x="997" />
<glyph unicode="&#x2001;" horiz-adv-x="1995" />
<glyph unicode="&#x2002;" horiz-adv-x="997" />
<glyph unicode="&#x2003;" horiz-adv-x="1995" />
<glyph unicode="&#x2004;" horiz-adv-x="665" />
<glyph unicode="&#x2005;" horiz-adv-x="498" />
<glyph unicode="&#x2006;" horiz-adv-x="332" />
<glyph unicode="&#x2007;" horiz-adv-x="332" />
<glyph unicode="&#x2008;" horiz-adv-x="249" />
<glyph unicode="&#x2009;" horiz-adv-x="399" />
<glyph unicode="&#x200a;" horiz-adv-x="110" />
<glyph unicode="&#x2010;" horiz-adv-x="720" d="M98 455l41 288h604l-41 -288h-604z" />
<glyph unicode="&#x2011;" horiz-adv-x="720" d="M98 455l41 288h604l-41 -288h-604z" />
<glyph unicode="&#x2012;" horiz-adv-x="720" d="M98 455l41 288h604l-41 -288h-604z" />
<glyph unicode="&#x2013;" horiz-adv-x="1110" d="M102 455l39 286h973l-39 -286h-973z" />
<glyph unicode="&#x2014;" horiz-adv-x="1832" d="M119 455l39 286h1634l-39 -286h-1634z" />
<glyph unicode="&#x2018;" horiz-adv-x="493" d="M137 975l279 473h260l-195 -473h-344z" />
<glyph unicode="&#x2019;" horiz-adv-x="548" d="M170 973l195 473h344l-279 -473h-260z" />
<glyph unicode="&#x201a;" horiz-adv-x="487" d="M-88 -231l203 483h331l-286 -483h-248z" />
<glyph unicode="&#x201c;" horiz-adv-x="905" d="M160 975l278 473h260l-194 -473h-344zM571 975l250 473h260l-166 -473h-344z" />
<glyph unicode="&#x201d;" horiz-adv-x="886" d="M158 973l166 473h344l-250 -473h-260zM541 973l194 473h344l-278 -473h-260z" />
<glyph unicode="&#x201e;" horiz-adv-x="968" d="M-47 -231l203 483h331l-286 -483h-248zM356 -231l205 483h332l-287 -483h-250z" />
<glyph unicode="&#x2022;" horiz-adv-x="847" d="M170 690q19 131 123.5 223.5t236.5 92.5q130 0 209 -92.5t60 -223.5t-124 -224t-235 -93q-132 0 -210.5 93t-59.5 224z" />
<glyph unicode="&#x2026;" horiz-adv-x="1570" d="M135 166q11 74 69.5 125t133.5 51q74 0 117.5 -51.5t33.5 -124.5q-10 -75 -68 -126.5t-132 -51.5q-75 0 -119.5 51.5t-34.5 126.5zM621 166q11 74 68 125t130 51q75 0 120 -51t34 -125q-10 -75 -69 -126.5t-134 -51.5q-73 0 -116.5 51.5t-32.5 126.5zM1106 166 q11 74 68.5 125t130.5 51q76 0 120 -51t33 -125q-11 -75 -69 -126.5t-134 -51.5q-73 0 -116.5 51.5t-32.5 126.5z" />
<glyph unicode="&#x202f;" horiz-adv-x="399" />
<glyph unicode="&#x2039;" horiz-adv-x="663" d="M106 592l381 469l224 -148l-265 -319q97 -187 175 -328l-267 -145z" />
<glyph unicode="&#x203a;" horiz-adv-x="657" d="M66 266l264 326q-27 54 -88 166t-84 155l266 148l248 -469l-377 -469z" />
<glyph unicode="&#x205f;" horiz-adv-x="498" />
<glyph unicode="&#x20ac;" horiz-adv-x="1214" d="M27 471l69 201h90l11 78h-131l69 204h90l4 29q13 92 56 171t105 135.5t140.5 96.5t163.5 59t172 19q74 0 144 -19t132 -56t111 -98t74 -138l-260 -131q-22 57 -69.5 95t-104 51t-118.5 7.5t-114 -29t-89 -66.5t-44 -97l-4 -29h389l-69 -204h-348l-11 -78h389l-67 -201 h-350v-4q-16 -107 81.5 -160.5t231 -19.5t207.5 147l240 -145q-112 -147 -262.5 -225t-301.5 -78q-85 0 -163.5 19t-145 59t-112.5 96t-66.5 135t-7.5 172v4h-131z" />
<glyph unicode="&#x2122;" horiz-adv-x="1679" d="M154 1184l36 270h672l-37 -270h-198l-82 -574h-277l82 574h-196zM795 614l116 840h234l131 -340l231 340h226l-117 -840h-246l53 336l-149 -233h-100l-84 246l-39 -349h-256z" />
<glyph unicode="&#xe000;" horiz-adv-x="1064" d="M0 0v1065h1065v-1065h-1065z" />
</font>
</defs>
</svg>
