<?xml version="1.0" encoding="utf-8"?>
<!-- Generator: Adobe Illustrator 18.0.0, SVG Export Plug-In . SVG Version: 6.00 Build 0)  -->
<!DOCTYPE svg PUBLIC "-//W3C//DTD SVG 1.1//EN" "http://www.w3.org/Graphics/SVG/1.1/DTD/svg11.dtd">
<svg version="1.1" id="Layer_1" xmlns="http://www.w3.org/2000/svg" xmlns:xlink="http://www.w3.org/1999/xlink" x="0px" y="0px"
	 viewBox="0 0 54.1 24.9" enable-background="new 0 0 54.1 24.9" xml:space="preserve">
<g>
	<path d="M54.1,6.5c0-3.6-2.9-6.5-6.5-6.5c-3.6,0-6.4,2.1-6.4,5.7v0.1c0,1,0.8,1.8,1.8,1.8c1,0,1.7-0.6,1.8-1.7l0-0.2
		c0-1,1.3-2.2,2.8-2.1c1.6,0.1,2.9,1.3,2.9,2.9c0,1.6-1.3,2.9-2.9,2.9c-0.1,0-0.7,0-0.8,0h-0.5v3.3h0.5c0.1,0,0.7,0,0.8,0
		c1.6,0,2.9,1.3,2.9,2.9c0,1.6-1.3,2.9-2.9,2.9c-1.6,0-2.9-1.3-2.9-2.9v-0.1c0-0.3-0.1-2.6-0.2-3.3c-0.4-2.8-3.2-4.4-6.1-4.4
		c-1.6,0-3.1,0.6-4.1,1.5L34,9.6l-0.3-0.2c-1.2-1-2.6-1.5-4.3-1.5c-1.6,0-3,0.6-4,1.5l-0.3,0.3l-0.3-0.2c-1.2-1-2.7-1.5-4.4-1.5h0
		c-3.6,0-6.4,2.9-6.5,6.5c-0.1,3.8,2,6.4,5.8,6.5h0.1c1,0,1.8-0.8,1.8-1.8c0-1-0.6-1.8-1.8-1.8h-0.1c-1.6-0.2-2.3-1.5-2.2-2.9
		c0-1.6,1.3-2.9,2.9-2.9c1.6,0.1,2.9,1.3,2.9,2.9v6.4h3.3c0,0,0-5.7,0-6.8c0-1.1,1-2.6,2.8-2.6c1.6,0,2.9,1.3,2.9,2.9v6.4h3.3
		c0,0,0-5.2,0-6.4c0-1.8,1.3-2.9,2.8-2.9c1.6,0,2.9,1.3,2.9,2.9c0,0,0,1,0,1.2v0.1c0,3.6,2.8,6.4,6.3,6.4c3.6,0,6.5-2.9,6.5-6.5v0
		c0,0,0-0.1,0-0.1h0c0-0.3,0-0.6-0.1-0.8c-0.2-1.3-0.7-2.6-1.5-3.5l0-0.1l0-0.1c0.8-0.9,1.3-2.2,1.5-3.5c0-0.3,0.1-0.5,0.1-0.8h0
		C54.1,6.5,54.1,6.5,54.1,6.5L54.1,6.5z"/>
	<path d="M0,18.3L0,18.3c0,3.7,2.9,6.6,6.5,6.6l0,0c3.7,0,6.5-2.7,6.5-6.5l0,0c0-3,0.1-9.5,0.1-9.5l-3.6,0l0,9.5
		c0,1.6-1.3,2.9-2.9,2.9l0,0c-1.6,0-2.9-1.3-2.9-2.8l0,0v-0.1c0-1-0.8-1.8-1.8-1.8l0,0C0.8,16.5,0,17.3,0,18.3L0,18.3z"/>
	<circle cx="11.1" cy="5.7" r="1.8"/>
</g>
</svg>
